G04 #@! TF.GenerationSoftware,KiCad,Pcbnew,5.1.9+dfsg1-1+deb11u1*
G04 #@! TF.CreationDate,2023-04-03T20:06:42-05:00*
G04 #@! TF.ProjectId,lcbdk,6c636264-6b2e-46b6-9963-61645f706362,rev?*
G04 #@! TF.SameCoordinates,Original*
G04 #@! TF.FileFunction,Copper,L1,Top*
G04 #@! TF.FilePolarity,Positive*
%FSLAX46Y46*%
G04 Gerber Fmt 4.6, Leading zero omitted, Abs format (unit mm)*
G04 Created by KiCad (PCBNEW 5.1.9+dfsg1-1+deb11u1) date 2023-04-03 20:06:42*
%MOMM*%
%LPD*%
G01*
G04 APERTURE LIST*
G04 #@! TA.AperFunction,ComponentPad*
%ADD10R,1.600000X1.600000*%
G04 #@! TD*
G04 #@! TA.AperFunction,ComponentPad*
%ADD11C,1.600000*%
G04 #@! TD*
G04 #@! TA.AperFunction,ComponentPad*
%ADD12C,1.400000*%
G04 #@! TD*
G04 #@! TA.AperFunction,ComponentPad*
%ADD13R,2.000000X2.000000*%
G04 #@! TD*
G04 #@! TA.AperFunction,ComponentPad*
%ADD14C,2.000000*%
G04 #@! TD*
G04 #@! TA.AperFunction,ComponentPad*
%ADD15R,1.778000X2.286000*%
G04 #@! TD*
G04 #@! TA.AperFunction,ComponentPad*
%ADD16O,1.778000X2.286000*%
G04 #@! TD*
G04 #@! TA.AperFunction,ComponentPad*
%ADD17C,6.000000*%
G04 #@! TD*
G04 #@! TA.AperFunction,ComponentPad*
%ADD18C,9.000000*%
G04 #@! TD*
G04 #@! TA.AperFunction,ComponentPad*
%ADD19R,1.700000X1.700000*%
G04 #@! TD*
G04 #@! TA.AperFunction,ComponentPad*
%ADD20O,1.700000X1.700000*%
G04 #@! TD*
G04 #@! TA.AperFunction,ComponentPad*
%ADD21O,1.600000X1.600000*%
G04 #@! TD*
G04 #@! TA.AperFunction,ComponentPad*
%ADD22C,2.400000*%
G04 #@! TD*
G04 #@! TA.AperFunction,ComponentPad*
%ADD23O,2.400000X2.400000*%
G04 #@! TD*
G04 #@! TA.AperFunction,ComponentPad*
%ADD24R,1.600000X2.400000*%
G04 #@! TD*
G04 #@! TA.AperFunction,ComponentPad*
%ADD25O,1.600000X2.400000*%
G04 #@! TD*
G04 #@! TA.AperFunction,ComponentPad*
%ADD26O,1.050000X1.500000*%
G04 #@! TD*
G04 #@! TA.AperFunction,ComponentPad*
%ADD27R,1.050000X1.500000*%
G04 #@! TD*
G04 #@! TA.AperFunction,ComponentPad*
%ADD28C,1.500000*%
G04 #@! TD*
G04 #@! TA.AperFunction,ConnectorPad*
%ADD29C,7.400000*%
G04 #@! TD*
G04 #@! TA.AperFunction,ComponentPad*
%ADD30C,4.100000*%
G04 #@! TD*
G04 #@! TA.AperFunction,ViaPad*
%ADD31C,1.270000*%
G04 #@! TD*
G04 #@! TA.AperFunction,ViaPad*
%ADD32C,0.800000*%
G04 #@! TD*
G04 #@! TA.AperFunction,Conductor*
%ADD33C,0.635000*%
G04 #@! TD*
G04 #@! TA.AperFunction,Conductor*
%ADD34C,0.381000*%
G04 #@! TD*
G04 #@! TA.AperFunction,Conductor*
%ADD35C,0.508000*%
G04 #@! TD*
G04 #@! TA.AperFunction,Conductor*
%ADD36C,0.762000*%
G04 #@! TD*
G04 #@! TA.AperFunction,Conductor*
%ADD37C,0.250000*%
G04 #@! TD*
G04 APERTURE END LIST*
D10*
X167680000Y-113030000D03*
D11*
X170180000Y-113030000D03*
X172680000Y-113030000D03*
X167680000Y-107630000D03*
X170180000Y-107630000D03*
X172680000Y-107630000D03*
D12*
X142280000Y-66040000D03*
X144780000Y-66040000D03*
D13*
X147320000Y-95250000D03*
D14*
X147320000Y-100330000D03*
X147320000Y-105410000D03*
X147320000Y-110490000D03*
D12*
X133350000Y-106680000D03*
X135850000Y-106680000D03*
D10*
X127000000Y-102870000D03*
D11*
X129500000Y-102870000D03*
X129500000Y-96520000D03*
D10*
X127000000Y-96520000D03*
D12*
X130850000Y-90170000D03*
X133350000Y-90170000D03*
X121960000Y-72390000D03*
X124460000Y-72390000D03*
X148590000Y-66040000D03*
X151090000Y-66040000D03*
X154940000Y-63500000D03*
X157440000Y-63500000D03*
X144740000Y-88900000D03*
X142240000Y-88900000D03*
X148590000Y-88900000D03*
X151090000Y-88900000D03*
D10*
X113030000Y-88900000D03*
D11*
X115530000Y-88900000D03*
D12*
X121880000Y-87630000D03*
X119380000Y-87630000D03*
X115570000Y-95250000D03*
X113070000Y-95250000D03*
X142200000Y-111760000D03*
X139700000Y-111760000D03*
X139700000Y-106680000D03*
X142200000Y-106680000D03*
D15*
X147320000Y-59690000D03*
D16*
X144780000Y-59690000D03*
X142240000Y-59690000D03*
X139700000Y-59690000D03*
X137160000Y-59690000D03*
X134620000Y-59690000D03*
X132080000Y-59690000D03*
X129540000Y-59690000D03*
X127000000Y-59690000D03*
X124460000Y-59690000D03*
X121920000Y-59690000D03*
X119380000Y-59690000D03*
X116840000Y-59690000D03*
X114300000Y-59690000D03*
X152400000Y-59690000D03*
X149860000Y-59690000D03*
D17*
X112010000Y-49150000D03*
X176010000Y-49150000D03*
D18*
X146050000Y-121920000D03*
X127000000Y-121920000D03*
D19*
X114300000Y-67310000D03*
D20*
X114300000Y-69850000D03*
D11*
X125730000Y-111760000D03*
D21*
X135890000Y-111760000D03*
D22*
X161290000Y-82550000D03*
D23*
X173990000Y-82550000D03*
X173990000Y-87630000D03*
D22*
X161290000Y-87630000D03*
D23*
X173990000Y-92710000D03*
D22*
X161290000Y-92710000D03*
D23*
X173990000Y-97790000D03*
D22*
X161290000Y-97790000D03*
X161290000Y-102870000D03*
D23*
X173990000Y-102870000D03*
D22*
X138430000Y-82550000D03*
D23*
X125730000Y-82550000D03*
D13*
X166370000Y-69850000D03*
D14*
X168870000Y-64850000D03*
X171370000Y-69850000D03*
D11*
X119340000Y-107630000D03*
X116840000Y-107630000D03*
X114340000Y-107630000D03*
X119340000Y-113030000D03*
X116840000Y-113030000D03*
D10*
X114340000Y-113030000D03*
D11*
X161250000Y-107630000D03*
X158750000Y-107630000D03*
X156250000Y-107630000D03*
X161250000Y-113030000D03*
X158750000Y-113030000D03*
D10*
X156250000Y-113030000D03*
X115610000Y-81280000D03*
D11*
X118110000Y-81280000D03*
X120610000Y-81280000D03*
X115610000Y-75880000D03*
X118110000Y-75880000D03*
X120610000Y-75880000D03*
D24*
X133350000Y-101600000D03*
D25*
X140970000Y-93980000D03*
X135890000Y-101600000D03*
X138430000Y-93980000D03*
X138430000Y-101600000D03*
X135890000Y-93980000D03*
X140970000Y-101600000D03*
X133350000Y-93980000D03*
D24*
X128270000Y-77470000D03*
D25*
X161290000Y-69850000D03*
X130810000Y-77470000D03*
X158750000Y-69850000D03*
X133350000Y-77470000D03*
X156210000Y-69850000D03*
X135890000Y-77470000D03*
X153670000Y-69850000D03*
X138430000Y-77470000D03*
X151130000Y-69850000D03*
X140970000Y-77470000D03*
X148590000Y-69850000D03*
X143510000Y-77470000D03*
X146050000Y-69850000D03*
X146050000Y-77470000D03*
X143510000Y-69850000D03*
X148590000Y-77470000D03*
X140970000Y-69850000D03*
X151130000Y-77470000D03*
X138430000Y-69850000D03*
X153670000Y-77470000D03*
X135890000Y-69850000D03*
X156210000Y-77470000D03*
X133350000Y-69850000D03*
X158750000Y-77470000D03*
X130810000Y-69850000D03*
X161290000Y-77470000D03*
X128270000Y-69850000D03*
D26*
X120650000Y-93980000D03*
X121920000Y-93980000D03*
D27*
X119380000Y-93980000D03*
D28*
X144780000Y-83820000D03*
X149660000Y-83820000D03*
D19*
X167640000Y-77470000D03*
D20*
X167640000Y-74930000D03*
X170180000Y-77470000D03*
X170180000Y-74930000D03*
X172720000Y-77470000D03*
X172720000Y-74930000D03*
D29*
X111760000Y-39370000D03*
D30*
X111760000Y-39370000D03*
X111760000Y-124460000D03*
D29*
X111760000Y-124460000D03*
X175260000Y-39370000D03*
D30*
X175260000Y-39370000D03*
X175260000Y-124460000D03*
D29*
X175260000Y-124460000D03*
D31*
X164465000Y-101600000D03*
D32*
X126365000Y-72390000D03*
X158750000Y-53340000D03*
X161290000Y-58420000D03*
X156210000Y-60960000D03*
X133985000Y-85090000D03*
X135890000Y-86995000D03*
X139065000Y-86995000D03*
X153670000Y-89535000D03*
X153670000Y-91530000D03*
X137160000Y-90805000D03*
X135255000Y-82550000D03*
D33*
X139700000Y-111760000D02*
X139700000Y-106680000D01*
X139700000Y-111760000D02*
X135890000Y-111760000D01*
X135890000Y-111760000D02*
X133350000Y-109220000D01*
X133350000Y-109220000D02*
X133350000Y-106680000D01*
X133310000Y-106680000D02*
X129500000Y-102870000D01*
X133350000Y-106680000D02*
X133310000Y-106680000D01*
X172680000Y-113030000D02*
X170180000Y-110530000D01*
X170180000Y-110530000D02*
X152440000Y-110530000D01*
X152440000Y-110530000D02*
X149940000Y-113030000D01*
X149940000Y-113030000D02*
X144780000Y-113030000D01*
X144780000Y-113030000D02*
X143510000Y-114300000D01*
X143510000Y-114300000D02*
X140970000Y-114300000D01*
X140970000Y-114300000D02*
X139700000Y-113030000D01*
X139700000Y-113030000D02*
X139700000Y-111760000D01*
D34*
X135850000Y-106680000D02*
X133350000Y-104180000D01*
X133350000Y-104180000D02*
X133350000Y-101600000D01*
D35*
X170815000Y-85725000D02*
X173990000Y-82550000D01*
X170815000Y-87630000D02*
X170815000Y-85725000D01*
X170815000Y-89535000D02*
X173990000Y-92710000D01*
X170815000Y-87630000D02*
X170815000Y-89535000D01*
X161290000Y-87630000D02*
X170815000Y-87630000D01*
X135890000Y-101600000D02*
X135890000Y-102870000D01*
X135890000Y-102870000D02*
X137160000Y-104140000D01*
X137160000Y-104140000D02*
X142240000Y-104140000D01*
X142240000Y-104140000D02*
X146050000Y-107950000D01*
X146050000Y-107950000D02*
X149860000Y-107950000D01*
X149860000Y-107950000D02*
X152400000Y-105410000D01*
X152400000Y-105410000D02*
X163195000Y-105410000D01*
X163195000Y-105410000D02*
X164465000Y-104140000D01*
X164465000Y-104140000D02*
X164465000Y-101600000D01*
D36*
X173990000Y-97790000D02*
X166370000Y-97790000D01*
X164588999Y-99571001D02*
X157991001Y-99571001D01*
X166370000Y-97790000D02*
X164588999Y-99571001D01*
X157991001Y-99571001D02*
X156210000Y-97790000D01*
X138430000Y-101600000D02*
X138430000Y-100330000D01*
X138430000Y-100330000D02*
X140970000Y-97790000D01*
X140970000Y-97790000D02*
X156210000Y-97790000D01*
X138430000Y-100330000D02*
X137160000Y-99060000D01*
X137160000Y-99060000D02*
X128270000Y-99060000D01*
X127000000Y-97790000D02*
X127000000Y-96520000D01*
X128270000Y-99060000D02*
X127000000Y-97790000D01*
X115570000Y-95250000D02*
X118110000Y-95250000D01*
X118110000Y-95250000D02*
X119380000Y-93980000D01*
X161290000Y-102870000D02*
X157480000Y-102870000D01*
X154940000Y-100330000D02*
X147320000Y-100330000D01*
X157480000Y-102870000D02*
X154940000Y-100330000D01*
D33*
X119380000Y-93980000D02*
X119380000Y-92710000D01*
X119380000Y-92710000D02*
X120650000Y-91440000D01*
X133350000Y-91440000D02*
X133350000Y-90170000D01*
X133350000Y-93980000D02*
X133350000Y-91440000D01*
X120650000Y-91440000D02*
X124460000Y-91440000D01*
X143510000Y-77470000D02*
X143510000Y-78740000D01*
X139700000Y-82550000D02*
X138430000Y-82550000D01*
X143510000Y-78740000D02*
X139700000Y-82550000D01*
X148590000Y-69850000D02*
X148590000Y-71120000D01*
X143510000Y-76200000D02*
X143510000Y-77470000D01*
X133350000Y-87630000D02*
X133350000Y-90170000D01*
X138430000Y-82550000D02*
X133350000Y-87630000D01*
X163830000Y-80010000D02*
X161290000Y-82550000D01*
X167640000Y-74930000D02*
X163830000Y-74930000D01*
X163830000Y-74930000D02*
X163830000Y-80010000D01*
X144780000Y-74930000D02*
X143510000Y-76200000D01*
X148590000Y-71120000D02*
X144780000Y-74930000D01*
X163830000Y-74930000D02*
X144780000Y-74930000D01*
X167640000Y-73580000D02*
X167640000Y-74930000D01*
X171370000Y-69850000D02*
X167640000Y-73580000D01*
X124460000Y-91440000D02*
X124460000Y-86360000D01*
X124460000Y-91440000D02*
X133350000Y-91440000D01*
X124460000Y-86360000D02*
X123190000Y-85090000D01*
X123190000Y-73660000D02*
X124460000Y-72390000D01*
X123190000Y-85090000D02*
X123190000Y-73660000D01*
X124460000Y-72390000D02*
X127000000Y-74930000D01*
X127000000Y-74930000D02*
X142240000Y-74930000D01*
X142240000Y-74930000D02*
X143510000Y-76200000D01*
D34*
X166370000Y-66040000D02*
X170180000Y-69850000D01*
X166370000Y-58420000D02*
X166370000Y-66040000D01*
X165100000Y-57150000D02*
X166370000Y-58420000D01*
X170180000Y-69850000D02*
X171370000Y-69850000D01*
X144780000Y-58420000D02*
X146050000Y-57150000D01*
X144780000Y-59690000D02*
X144780000Y-58420000D01*
X154940000Y-63500000D02*
X154940000Y-57150000D01*
X154940000Y-57150000D02*
X156210000Y-57150000D01*
X156210000Y-57150000D02*
X165100000Y-57150000D01*
X146050000Y-57150000D02*
X156210000Y-57150000D01*
X148590000Y-69850000D02*
X148590000Y-66040000D01*
D37*
X144780000Y-83820000D02*
X148590000Y-80010000D01*
X148590000Y-80010000D02*
X148590000Y-77470000D01*
X142240000Y-86360000D02*
X144780000Y-83820000D01*
X142240000Y-88900000D02*
X142240000Y-86360000D01*
X149660000Y-83820000D02*
X150930000Y-82550000D01*
X150930000Y-77670000D02*
X151130000Y-77470000D01*
X150930000Y-82550000D02*
X150930000Y-77670000D01*
X148590000Y-84890000D02*
X149660000Y-83820000D01*
X148590000Y-88900000D02*
X148590000Y-84890000D01*
D36*
X120610000Y-75880000D02*
X120610000Y-81280000D01*
X120610000Y-81280000D02*
X120610000Y-82590000D01*
X116840000Y-86360000D02*
X114300000Y-86360000D01*
X113030000Y-87630000D02*
X113030000Y-88900000D01*
X114300000Y-86360000D02*
X113030000Y-87630000D01*
X119380000Y-87630000D02*
X117475000Y-85725000D01*
X117475000Y-85725000D02*
X116840000Y-86360000D01*
X120610000Y-82590000D02*
X117475000Y-85725000D01*
D34*
X146050000Y-67310000D02*
X144780000Y-66040000D01*
X146050000Y-69850000D02*
X146050000Y-67310000D01*
D33*
X142200000Y-111760000D02*
X142200000Y-106680000D01*
D34*
X142240000Y-59690000D02*
X142240000Y-57150000D01*
X142240000Y-57150000D02*
X143510000Y-55880000D01*
X143510000Y-55880000D02*
X167640000Y-55880000D01*
X168870000Y-57110000D02*
X168870000Y-64850000D01*
X167640000Y-55880000D02*
X168870000Y-57110000D01*
D37*
X153670000Y-69850000D02*
X153670000Y-68580000D01*
X153670000Y-68580000D02*
X152400000Y-67310000D01*
X152400000Y-67310000D02*
X152400000Y-63500000D01*
X152400000Y-63500000D02*
X151130000Y-62230000D01*
X151130000Y-62230000D02*
X140970000Y-62230000D01*
X139700000Y-60960000D02*
X139700000Y-59690000D01*
X140970000Y-62230000D02*
X139700000Y-60960000D01*
X137160000Y-62230000D02*
X137160000Y-59690000D01*
D34*
X140970000Y-68580000D02*
X140970000Y-69850000D01*
X137160000Y-64770000D02*
X140970000Y-68580000D01*
X137160000Y-59690000D02*
X137160000Y-64770000D01*
D37*
X134620000Y-58420000D02*
X134620000Y-59690000D01*
X135890000Y-57150000D02*
X134620000Y-58420000D01*
X151130000Y-68580000D02*
X149860000Y-67310000D01*
X151130000Y-69850000D02*
X151130000Y-68580000D01*
X137160000Y-57150000D02*
X138430000Y-58420000D01*
X137160000Y-57150000D02*
X135890000Y-57150000D01*
X139700000Y-63500000D02*
X138430000Y-62230000D01*
X138430000Y-62230000D02*
X138430000Y-58420000D01*
X149860000Y-64770000D02*
X148590000Y-63500000D01*
X148590000Y-63500000D02*
X139700000Y-63500000D01*
X149860000Y-67310000D02*
X149860000Y-64770000D01*
X121920000Y-64135000D02*
X121920000Y-59690000D01*
X122555000Y-64770000D02*
X121920000Y-64135000D01*
X125095000Y-64770000D02*
X122555000Y-64770000D01*
X126365000Y-66040000D02*
X125095000Y-64770000D01*
X126365000Y-72390000D02*
X126365000Y-66040000D01*
X161290000Y-69850000D02*
X161290000Y-58420000D01*
X119380000Y-54610000D02*
X119380000Y-59690000D01*
X120650000Y-53340000D02*
X119380000Y-54610000D01*
X158750000Y-53340000D02*
X120650000Y-53340000D01*
X158750000Y-69850000D02*
X158750000Y-66040000D01*
X158750000Y-66040000D02*
X160020000Y-64770000D01*
X160020000Y-64770000D02*
X160020000Y-62230000D01*
X160020000Y-62230000D02*
X158750000Y-60960000D01*
X158750000Y-60960000D02*
X156210000Y-60960000D01*
D36*
X114300000Y-67310000D02*
X115570000Y-67310000D01*
X118110000Y-69850000D02*
X118110000Y-75880000D01*
X115570000Y-67310000D02*
X118110000Y-69850000D01*
X118110000Y-75880000D02*
X118110000Y-81280000D01*
D33*
X165140000Y-115570000D02*
X167680000Y-113030000D01*
X125730000Y-111760000D02*
X129540000Y-115570000D01*
X156250000Y-115530000D02*
X156210000Y-115570000D01*
X156250000Y-113030000D02*
X156250000Y-115530000D01*
X156210000Y-115570000D02*
X165140000Y-115570000D01*
X129540000Y-115570000D02*
X156210000Y-115570000D01*
D34*
X138430000Y-77470000D02*
X138430000Y-78105000D01*
X138430000Y-78105000D02*
X133985000Y-82550000D01*
X133985000Y-82550000D02*
X133985000Y-85090000D01*
X135890000Y-86995000D02*
X139065000Y-86995000D01*
D37*
X153670000Y-77470000D02*
X153670000Y-89535000D01*
X123190000Y-103780000D02*
X119340000Y-107630000D01*
X123190000Y-97155000D02*
X123190000Y-103780000D01*
X142875000Y-96520000D02*
X132080000Y-96520000D01*
X147865000Y-91530000D02*
X142875000Y-96520000D01*
X153670000Y-91530000D02*
X147865000Y-91530000D01*
X114340000Y-112630000D02*
X114340000Y-113030000D01*
X119340000Y-107630000D02*
X114340000Y-112630000D01*
X125730000Y-94615000D02*
X130175000Y-94615000D01*
X132080000Y-96520000D02*
X130175000Y-94615000D01*
X125730000Y-94615000D02*
X123190000Y-97155000D01*
X177800000Y-105410000D02*
X178435000Y-104775000D01*
X178435000Y-104775000D02*
X178435000Y-82550000D01*
X178435000Y-82550000D02*
X175895000Y-80010000D01*
X175895000Y-80010000D02*
X170815000Y-80010000D01*
X170815000Y-80010000D02*
X165735000Y-85090000D01*
X165735000Y-85090000D02*
X158750000Y-85090000D01*
X156210000Y-82550000D02*
X156210000Y-77470000D01*
X158750000Y-85090000D02*
X156210000Y-82550000D01*
X161250000Y-107630000D02*
X164785000Y-107630000D01*
X164785000Y-107630000D02*
X167005000Y-105410000D01*
X167005000Y-105410000D02*
X177800000Y-105410000D01*
X158750000Y-77470000D02*
X158750000Y-83185000D01*
X158750000Y-83185000D02*
X160020000Y-84455000D01*
X160020000Y-84455000D02*
X165100000Y-84455000D01*
X165100000Y-84455000D02*
X170180000Y-79375000D01*
X170180000Y-79375000D02*
X176530000Y-79375000D01*
X176530000Y-79375000D02*
X179070000Y-81915000D01*
X179070000Y-81915000D02*
X179070000Y-105410000D01*
X176850000Y-107630000D02*
X172680000Y-107630000D01*
X179070000Y-105410000D02*
X176850000Y-107630000D01*
D33*
X138430000Y-93980000D02*
X140970000Y-93980000D01*
D37*
X125730000Y-80010000D02*
X128270000Y-77470000D01*
X125730000Y-82550000D02*
X125730000Y-80010000D01*
D36*
X173990000Y-102870000D02*
X176530000Y-100330000D01*
X176530000Y-100330000D02*
X176530000Y-96520000D01*
X163071001Y-96008999D02*
X161290000Y-97790000D01*
X163071001Y-94491001D02*
X163071001Y-96008999D01*
X161290000Y-92710000D02*
X163071001Y-94491001D01*
X176530000Y-96520000D02*
X175260000Y-95250000D01*
X175260000Y-95250000D02*
X163071001Y-95250000D01*
D37*
X135890000Y-92075000D02*
X135890000Y-93980000D01*
X159385000Y-90805000D02*
X137160000Y-90805000D01*
X161290000Y-92710000D02*
X159385000Y-90805000D01*
X137160000Y-90805000D02*
X135890000Y-92075000D01*
X140970000Y-79375000D02*
X140970000Y-77470000D01*
X140335000Y-80010000D02*
X140970000Y-79375000D01*
X137795000Y-80010000D02*
X140335000Y-80010000D01*
X135255000Y-82550000D02*
X137795000Y-80010000D01*
M02*
