G04 #@! TF.GenerationSoftware,KiCad,Pcbnew,5.1.9+dfsg1-1+deb11u1*
G04 #@! TF.CreationDate,2023-04-03T20:06:42-05:00*
G04 #@! TF.ProjectId,lcbdk,6c636264-6b2e-46b6-9963-61645f706362,rev?*
G04 #@! TF.SameCoordinates,Original*
G04 #@! TF.FileFunction,Legend,Bot*
G04 #@! TF.FilePolarity,Positive*
%FSLAX46Y46*%
G04 Gerber Fmt 4.6, Leading zero omitted, Abs format (unit mm)*
G04 Created by KiCad (PCBNEW 5.1.9+dfsg1-1+deb11u1) date 2023-04-03 20:06:42*
%MOMM*%
%LPD*%
G01*
G04 APERTURE LIST*
%ADD10C,0.150000*%
%ADD11R,1.600000X1.600000*%
%ADD12C,1.600000*%
%ADD13C,1.400000*%
%ADD14R,2.000000X2.000000*%
%ADD15C,2.000000*%
%ADD16R,1.778000X2.286000*%
%ADD17O,1.778000X2.286000*%
%ADD18C,6.000000*%
%ADD19C,9.000000*%
%ADD20R,1.700000X1.700000*%
%ADD21O,1.700000X1.700000*%
%ADD22O,1.600000X1.600000*%
%ADD23C,2.400000*%
%ADD24O,2.400000X2.400000*%
%ADD25R,1.600000X2.400000*%
%ADD26O,1.600000X2.400000*%
%ADD27O,1.050000X1.500000*%
%ADD28R,1.050000X1.500000*%
%ADD29C,1.500000*%
%ADD30C,7.400000*%
%ADD31C,4.100000*%
G04 APERTURE END LIST*
D10*
X150811904Y-42617380D02*
X151288095Y-42617380D01*
X151288095Y-41617380D01*
X149907142Y-42522142D02*
X149954761Y-42569761D01*
X150097619Y-42617380D01*
X150192857Y-42617380D01*
X150335714Y-42569761D01*
X150430952Y-42474523D01*
X150478571Y-42379285D01*
X150526190Y-42188809D01*
X150526190Y-42045952D01*
X150478571Y-41855476D01*
X150430952Y-41760238D01*
X150335714Y-41665000D01*
X150192857Y-41617380D01*
X150097619Y-41617380D01*
X149954761Y-41665000D01*
X149907142Y-41712619D01*
X149145238Y-42093571D02*
X149002380Y-42141190D01*
X148954761Y-42188809D01*
X148907142Y-42284047D01*
X148907142Y-42426904D01*
X148954761Y-42522142D01*
X149002380Y-42569761D01*
X149097619Y-42617380D01*
X149478571Y-42617380D01*
X149478571Y-41617380D01*
X149145238Y-41617380D01*
X149050000Y-41665000D01*
X149002380Y-41712619D01*
X148954761Y-41807857D01*
X148954761Y-41903095D01*
X149002380Y-41998333D01*
X149050000Y-42045952D01*
X149145238Y-42093571D01*
X149478571Y-42093571D01*
X148478571Y-42617380D02*
X148478571Y-41617380D01*
X148240476Y-41617380D01*
X148097619Y-41665000D01*
X148002380Y-41760238D01*
X147954761Y-41855476D01*
X147907142Y-42045952D01*
X147907142Y-42188809D01*
X147954761Y-42379285D01*
X148002380Y-42474523D01*
X148097619Y-42569761D01*
X148240476Y-42617380D01*
X148478571Y-42617380D01*
X147478571Y-42617380D02*
X147478571Y-41617380D01*
X146907142Y-42617380D02*
X147335714Y-42045952D01*
X146907142Y-41617380D02*
X147478571Y-42188809D01*
X145811904Y-41950714D02*
X145573809Y-42617380D01*
X145335714Y-41950714D01*
X144573809Y-42569761D02*
X144669047Y-42617380D01*
X144859523Y-42617380D01*
X144954761Y-42569761D01*
X145002380Y-42474523D01*
X145002380Y-42093571D01*
X144954761Y-41998333D01*
X144859523Y-41950714D01*
X144669047Y-41950714D01*
X144573809Y-41998333D01*
X144526190Y-42093571D01*
X144526190Y-42188809D01*
X145002380Y-42284047D01*
X144097619Y-42617380D02*
X144097619Y-41950714D01*
X144097619Y-42141190D02*
X144050000Y-42045952D01*
X144002380Y-41998333D01*
X143907142Y-41950714D01*
X143811904Y-41950714D01*
X142192857Y-42617380D02*
X142764285Y-42617380D01*
X142478571Y-42617380D02*
X142478571Y-41617380D01*
X142573809Y-41760238D01*
X142669047Y-41855476D01*
X142764285Y-41903095D01*
X141764285Y-42522142D02*
X141716666Y-42569761D01*
X141764285Y-42617380D01*
X141811904Y-42569761D01*
X141764285Y-42522142D01*
X141764285Y-42617380D01*
X141097619Y-41617380D02*
X141002380Y-41617380D01*
X140907142Y-41665000D01*
X140859523Y-41712619D01*
X140811904Y-41807857D01*
X140764285Y-41998333D01*
X140764285Y-42236428D01*
X140811904Y-42426904D01*
X140859523Y-42522142D01*
X140907142Y-42569761D01*
X141002380Y-42617380D01*
X141097619Y-42617380D01*
X141192857Y-42569761D01*
X141240476Y-42522142D01*
X141288095Y-42426904D01*
X141335714Y-42236428D01*
X141335714Y-41998333D01*
X141288095Y-41807857D01*
X141240476Y-41712619D01*
X141192857Y-41665000D01*
X141097619Y-41617380D01*
X167026190Y-44267380D02*
X167502380Y-44267380D01*
X167502380Y-43267380D01*
X166121428Y-44172142D02*
X166169047Y-44219761D01*
X166311904Y-44267380D01*
X166407142Y-44267380D01*
X166550000Y-44219761D01*
X166645238Y-44124523D01*
X166692857Y-44029285D01*
X166740476Y-43838809D01*
X166740476Y-43695952D01*
X166692857Y-43505476D01*
X166645238Y-43410238D01*
X166550000Y-43315000D01*
X166407142Y-43267380D01*
X166311904Y-43267380D01*
X166169047Y-43315000D01*
X166121428Y-43362619D01*
X164930952Y-44267380D02*
X164930952Y-43267380D01*
X164597619Y-43981666D01*
X164264285Y-43267380D01*
X164264285Y-44267380D01*
X163407142Y-44219761D02*
X163502380Y-44267380D01*
X163692857Y-44267380D01*
X163788095Y-44219761D01*
X163835714Y-44124523D01*
X163835714Y-43743571D01*
X163788095Y-43648333D01*
X163692857Y-43600714D01*
X163502380Y-43600714D01*
X163407142Y-43648333D01*
X163359523Y-43743571D01*
X163359523Y-43838809D01*
X163835714Y-43934047D01*
X163073809Y-43600714D02*
X162692857Y-43600714D01*
X162930952Y-43267380D02*
X162930952Y-44124523D01*
X162883333Y-44219761D01*
X162788095Y-44267380D01*
X162692857Y-44267380D01*
X161978571Y-44219761D02*
X162073809Y-44267380D01*
X162264285Y-44267380D01*
X162359523Y-44219761D01*
X162407142Y-44124523D01*
X162407142Y-43743571D01*
X162359523Y-43648333D01*
X162264285Y-43600714D01*
X162073809Y-43600714D01*
X161978571Y-43648333D01*
X161930952Y-43743571D01*
X161930952Y-43838809D01*
X162407142Y-43934047D01*
X161502380Y-44267380D02*
X161502380Y-43600714D01*
X161502380Y-43791190D02*
X161454761Y-43695952D01*
X161407142Y-43648333D01*
X161311904Y-43600714D01*
X161216666Y-43600714D01*
X160121428Y-44267380D02*
X160121428Y-43267380D01*
X160121428Y-43648333D02*
X160026190Y-43600714D01*
X159835714Y-43600714D01*
X159740476Y-43648333D01*
X159692857Y-43695952D01*
X159645238Y-43791190D01*
X159645238Y-44076904D01*
X159692857Y-44172142D01*
X159740476Y-44219761D01*
X159835714Y-44267380D01*
X160026190Y-44267380D01*
X160121428Y-44219761D01*
X158788095Y-44267380D02*
X158788095Y-43743571D01*
X158835714Y-43648333D01*
X158930952Y-43600714D01*
X159121428Y-43600714D01*
X159216666Y-43648333D01*
X158788095Y-44219761D02*
X158883333Y-44267380D01*
X159121428Y-44267380D01*
X159216666Y-44219761D01*
X159264285Y-44124523D01*
X159264285Y-44029285D01*
X159216666Y-43934047D01*
X159121428Y-43886428D01*
X158883333Y-43886428D01*
X158788095Y-43838809D01*
X158359523Y-44219761D02*
X158264285Y-44267380D01*
X158073809Y-44267380D01*
X157978571Y-44219761D01*
X157930952Y-44124523D01*
X157930952Y-44076904D01*
X157978571Y-43981666D01*
X158073809Y-43934047D01*
X158216666Y-43934047D01*
X158311904Y-43886428D01*
X158359523Y-43791190D01*
X158359523Y-43743571D01*
X158311904Y-43648333D01*
X158216666Y-43600714D01*
X158073809Y-43600714D01*
X157978571Y-43648333D01*
X157121428Y-44219761D02*
X157216666Y-44267380D01*
X157407142Y-44267380D01*
X157502380Y-44219761D01*
X157550000Y-44124523D01*
X157550000Y-43743571D01*
X157502380Y-43648333D01*
X157407142Y-43600714D01*
X157216666Y-43600714D01*
X157121428Y-43648333D01*
X157073809Y-43743571D01*
X157073809Y-43838809D01*
X157550000Y-43934047D01*
X156216666Y-44267380D02*
X156216666Y-43267380D01*
X156216666Y-44219761D02*
X156311904Y-44267380D01*
X156502380Y-44267380D01*
X156597619Y-44219761D01*
X156645238Y-44172142D01*
X156692857Y-44076904D01*
X156692857Y-43791190D01*
X156645238Y-43695952D01*
X156597619Y-43648333D01*
X156502380Y-43600714D01*
X156311904Y-43600714D01*
X156216666Y-43648333D01*
X154835714Y-44267380D02*
X154930952Y-44219761D01*
X154978571Y-44172142D01*
X155026190Y-44076904D01*
X155026190Y-43791190D01*
X154978571Y-43695952D01*
X154930952Y-43648333D01*
X154835714Y-43600714D01*
X154692857Y-43600714D01*
X154597619Y-43648333D01*
X154550000Y-43695952D01*
X154502380Y-43791190D01*
X154502380Y-44076904D01*
X154550000Y-44172142D01*
X154597619Y-44219761D01*
X154692857Y-44267380D01*
X154835714Y-44267380D01*
X154073809Y-43600714D02*
X154073809Y-44267380D01*
X154073809Y-43695952D02*
X154026190Y-43648333D01*
X153930952Y-43600714D01*
X153788095Y-43600714D01*
X153692857Y-43648333D01*
X153645238Y-43743571D01*
X153645238Y-44267380D01*
X151930952Y-44267380D02*
X152407142Y-44267380D01*
X152407142Y-43267380D01*
X151026190Y-44172142D02*
X151073809Y-44219761D01*
X151216666Y-44267380D01*
X151311904Y-44267380D01*
X151454761Y-44219761D01*
X151550000Y-44124523D01*
X151597619Y-44029285D01*
X151645238Y-43838809D01*
X151645238Y-43695952D01*
X151597619Y-43505476D01*
X151550000Y-43410238D01*
X151454761Y-43315000D01*
X151311904Y-43267380D01*
X151216666Y-43267380D01*
X151073809Y-43315000D01*
X151026190Y-43362619D01*
X149835714Y-44267380D02*
X149835714Y-43267380D01*
X149502380Y-43981666D01*
X149169047Y-43267380D01*
X149169047Y-44267380D01*
X148311904Y-44219761D02*
X148407142Y-44267380D01*
X148597619Y-44267380D01*
X148692857Y-44219761D01*
X148740476Y-44124523D01*
X148740476Y-43743571D01*
X148692857Y-43648333D01*
X148597619Y-43600714D01*
X148407142Y-43600714D01*
X148311904Y-43648333D01*
X148264285Y-43743571D01*
X148264285Y-43838809D01*
X148740476Y-43934047D01*
X147978571Y-43600714D02*
X147597619Y-43600714D01*
X147835714Y-43267380D02*
X147835714Y-44124523D01*
X147788095Y-44219761D01*
X147692857Y-44267380D01*
X147597619Y-44267380D01*
X146883333Y-44219761D02*
X146978571Y-44267380D01*
X147169047Y-44267380D01*
X147264285Y-44219761D01*
X147311904Y-44124523D01*
X147311904Y-43743571D01*
X147264285Y-43648333D01*
X147169047Y-43600714D01*
X146978571Y-43600714D01*
X146883333Y-43648333D01*
X146835714Y-43743571D01*
X146835714Y-43838809D01*
X147311904Y-43934047D01*
X146407142Y-44267380D02*
X146407142Y-43600714D01*
X146407142Y-43791190D02*
X146359523Y-43695952D01*
X146311904Y-43648333D01*
X146216666Y-43600714D01*
X146121428Y-43600714D01*
X145026190Y-44267380D02*
X145026190Y-43267380D01*
X144550000Y-44267380D02*
X144550000Y-43267380D01*
X144073809Y-44267380D02*
X144073809Y-43267380D01*
X144073809Y-43648333D02*
X143978571Y-43600714D01*
X143788095Y-43600714D01*
X143692857Y-43648333D01*
X143645238Y-43695952D01*
X143597619Y-43791190D01*
X143597619Y-44076904D01*
X143645238Y-44172142D01*
X143692857Y-44219761D01*
X143788095Y-44267380D01*
X143978571Y-44267380D01*
X144073809Y-44219761D01*
X142550000Y-43600714D02*
X142169047Y-43600714D01*
X142407142Y-44267380D02*
X142407142Y-43410238D01*
X142359523Y-43315000D01*
X142264285Y-43267380D01*
X142169047Y-43267380D01*
X141835714Y-44267380D02*
X141835714Y-43600714D01*
X141835714Y-43791190D02*
X141788095Y-43695952D01*
X141740476Y-43648333D01*
X141645238Y-43600714D01*
X141550000Y-43600714D01*
X141073809Y-44267380D02*
X141169047Y-44219761D01*
X141216666Y-44172142D01*
X141264285Y-44076904D01*
X141264285Y-43791190D01*
X141216666Y-43695952D01*
X141169047Y-43648333D01*
X141073809Y-43600714D01*
X140930952Y-43600714D01*
X140835714Y-43648333D01*
X140788095Y-43695952D01*
X140740476Y-43791190D01*
X140740476Y-44076904D01*
X140788095Y-44172142D01*
X140835714Y-44219761D01*
X140930952Y-44267380D01*
X141073809Y-44267380D01*
X140311904Y-44267380D02*
X140311904Y-43600714D01*
X140311904Y-43695952D02*
X140264285Y-43648333D01*
X140169047Y-43600714D01*
X140026190Y-43600714D01*
X139930952Y-43648333D01*
X139883333Y-43743571D01*
X139883333Y-44267380D01*
X139883333Y-43743571D02*
X139835714Y-43648333D01*
X139740476Y-43600714D01*
X139597619Y-43600714D01*
X139502380Y-43648333D01*
X139454761Y-43743571D01*
X139454761Y-44267380D01*
X138216666Y-44267380D02*
X138216666Y-43267380D01*
X137645238Y-44267380D01*
X137645238Y-43267380D01*
X136788095Y-44219761D02*
X136883333Y-44267380D01*
X137073809Y-44267380D01*
X137169047Y-44219761D01*
X137216666Y-44124523D01*
X137216666Y-43743571D01*
X137169047Y-43648333D01*
X137073809Y-43600714D01*
X136883333Y-43600714D01*
X136788095Y-43648333D01*
X136740476Y-43743571D01*
X136740476Y-43838809D01*
X137216666Y-43934047D01*
X136311904Y-44267380D02*
X136311904Y-43600714D01*
X136311904Y-43267380D02*
X136359523Y-43315000D01*
X136311904Y-43362619D01*
X136264285Y-43315000D01*
X136311904Y-43267380D01*
X136311904Y-43362619D01*
X135692857Y-44267380D02*
X135788095Y-44219761D01*
X135835714Y-44124523D01*
X135835714Y-43267380D01*
X134550000Y-44267380D02*
X134550000Y-43267380D01*
X134550000Y-43743571D02*
X133978571Y-43743571D01*
X133978571Y-44267380D02*
X133978571Y-43267380D01*
X133121428Y-44219761D02*
X133216666Y-44267380D01*
X133407142Y-44267380D01*
X133502380Y-44219761D01*
X133550000Y-44124523D01*
X133550000Y-43743571D01*
X133502380Y-43648333D01*
X133407142Y-43600714D01*
X133216666Y-43600714D01*
X133121428Y-43648333D01*
X133073809Y-43743571D01*
X133073809Y-43838809D01*
X133550000Y-43934047D01*
X132216666Y-44219761D02*
X132311904Y-44267380D01*
X132502380Y-44267380D01*
X132597619Y-44219761D01*
X132645238Y-44172142D01*
X132692857Y-44076904D01*
X132692857Y-43791190D01*
X132645238Y-43695952D01*
X132597619Y-43648333D01*
X132502380Y-43600714D01*
X132311904Y-43600714D01*
X132216666Y-43648333D01*
X131788095Y-44267380D02*
X131788095Y-43267380D01*
X131359523Y-44267380D02*
X131359523Y-43743571D01*
X131407142Y-43648333D01*
X131502380Y-43600714D01*
X131645238Y-43600714D01*
X131740476Y-43648333D01*
X131788095Y-43695952D01*
X131026190Y-43600714D02*
X130645238Y-43600714D01*
X130883333Y-43267380D02*
X130883333Y-44124523D01*
X130835714Y-44219761D01*
X130740476Y-44267380D01*
X130645238Y-44267380D01*
X128835714Y-43219761D02*
X129692857Y-44505476D01*
X127788095Y-43981666D02*
X127311904Y-43981666D01*
X127883333Y-44267380D02*
X127550000Y-43267380D01*
X127216666Y-44267380D01*
X126930952Y-43981666D02*
X126454761Y-43981666D01*
X127026190Y-44267380D02*
X126692857Y-43267380D01*
X126359523Y-44267380D01*
X126026190Y-44267380D02*
X126026190Y-43267380D01*
X125788095Y-43267380D01*
X125645238Y-43315000D01*
X125550000Y-43410238D01*
X125502380Y-43505476D01*
X125454761Y-43695952D01*
X125454761Y-43838809D01*
X125502380Y-44029285D01*
X125550000Y-44124523D01*
X125645238Y-44219761D01*
X125788095Y-44267380D01*
X126026190Y-44267380D01*
X125026190Y-43743571D02*
X124692857Y-43743571D01*
X124550000Y-44267380D02*
X125026190Y-44267380D01*
X125026190Y-43267380D01*
X124550000Y-43267380D01*
X165502380Y-46298333D02*
X165550000Y-46250714D01*
X165645238Y-46107857D01*
X165692857Y-46012619D01*
X165740476Y-45869761D01*
X165788095Y-45631666D01*
X165788095Y-45441190D01*
X165740476Y-45203095D01*
X165692857Y-45060238D01*
X165645238Y-44965000D01*
X165550000Y-44822142D01*
X165502380Y-44774523D01*
X164692857Y-45869761D02*
X164788095Y-45917380D01*
X164978571Y-45917380D01*
X165073809Y-45869761D01*
X165121428Y-45822142D01*
X165169047Y-45726904D01*
X165169047Y-45441190D01*
X165121428Y-45345952D01*
X165073809Y-45298333D01*
X164978571Y-45250714D01*
X164788095Y-45250714D01*
X164692857Y-45298333D01*
X164359523Y-46298333D02*
X164311904Y-46250714D01*
X164216666Y-46107857D01*
X164169047Y-46012619D01*
X164121428Y-45869761D01*
X164073809Y-45631666D01*
X164073809Y-45441190D01*
X164121428Y-45203095D01*
X164169047Y-45060238D01*
X164216666Y-44965000D01*
X164311904Y-44822142D01*
X164359523Y-44774523D01*
X162883333Y-45012619D02*
X162835714Y-44965000D01*
X162740476Y-44917380D01*
X162502380Y-44917380D01*
X162407142Y-44965000D01*
X162359523Y-45012619D01*
X162311904Y-45107857D01*
X162311904Y-45203095D01*
X162359523Y-45345952D01*
X162930952Y-45917380D01*
X162311904Y-45917380D01*
X161692857Y-44917380D02*
X161597619Y-44917380D01*
X161502380Y-44965000D01*
X161454761Y-45012619D01*
X161407142Y-45107857D01*
X161359523Y-45298333D01*
X161359523Y-45536428D01*
X161407142Y-45726904D01*
X161454761Y-45822142D01*
X161502380Y-45869761D01*
X161597619Y-45917380D01*
X161692857Y-45917380D01*
X161788095Y-45869761D01*
X161835714Y-45822142D01*
X161883333Y-45726904D01*
X161930952Y-45536428D01*
X161930952Y-45298333D01*
X161883333Y-45107857D01*
X161835714Y-45012619D01*
X161788095Y-44965000D01*
X161692857Y-44917380D01*
X160978571Y-45012619D02*
X160930952Y-44965000D01*
X160835714Y-44917380D01*
X160597619Y-44917380D01*
X160502380Y-44965000D01*
X160454761Y-45012619D01*
X160407142Y-45107857D01*
X160407142Y-45203095D01*
X160454761Y-45345952D01*
X161026190Y-45917380D01*
X160407142Y-45917380D01*
X160073809Y-44917380D02*
X159454761Y-44917380D01*
X159788095Y-45298333D01*
X159645238Y-45298333D01*
X159550000Y-45345952D01*
X159502380Y-45393571D01*
X159454761Y-45488809D01*
X159454761Y-45726904D01*
X159502380Y-45822142D01*
X159550000Y-45869761D01*
X159645238Y-45917380D01*
X159930952Y-45917380D01*
X160026190Y-45869761D01*
X160073809Y-45822142D01*
X158359523Y-44917380D02*
X158121428Y-45917380D01*
X157930952Y-45203095D01*
X157740476Y-45917380D01*
X157502380Y-44917380D01*
X157121428Y-45917380D02*
X157121428Y-45250714D01*
X157121428Y-44917380D02*
X157169047Y-44965000D01*
X157121428Y-45012619D01*
X157073809Y-44965000D01*
X157121428Y-44917380D01*
X157121428Y-45012619D01*
X156502380Y-45917380D02*
X156597619Y-45869761D01*
X156645238Y-45774523D01*
X156645238Y-44917380D01*
X155978571Y-45917380D02*
X156073809Y-45869761D01*
X156121428Y-45774523D01*
X156121428Y-44917380D01*
X155597619Y-45917380D02*
X155597619Y-45250714D01*
X155597619Y-44917380D02*
X155645238Y-44965000D01*
X155597619Y-45012619D01*
X155550000Y-44965000D01*
X155597619Y-44917380D01*
X155597619Y-45012619D01*
X154692857Y-45917380D02*
X154692857Y-45393571D01*
X154740476Y-45298333D01*
X154835714Y-45250714D01*
X155026190Y-45250714D01*
X155121428Y-45298333D01*
X154692857Y-45869761D02*
X154788095Y-45917380D01*
X155026190Y-45917380D01*
X155121428Y-45869761D01*
X155169047Y-45774523D01*
X155169047Y-45679285D01*
X155121428Y-45584047D01*
X155026190Y-45536428D01*
X154788095Y-45536428D01*
X154692857Y-45488809D01*
X154216666Y-45917380D02*
X154216666Y-45250714D01*
X154216666Y-45345952D02*
X154169047Y-45298333D01*
X154073809Y-45250714D01*
X153930952Y-45250714D01*
X153835714Y-45298333D01*
X153788095Y-45393571D01*
X153788095Y-45917380D01*
X153788095Y-45393571D02*
X153740476Y-45298333D01*
X153645238Y-45250714D01*
X153502380Y-45250714D01*
X153407142Y-45298333D01*
X153359523Y-45393571D01*
X153359523Y-45917380D01*
X151550000Y-45917380D02*
X151883333Y-45441190D01*
X152121428Y-45917380D02*
X152121428Y-44917380D01*
X151740476Y-44917380D01*
X151645238Y-44965000D01*
X151597619Y-45012619D01*
X151550000Y-45107857D01*
X151550000Y-45250714D01*
X151597619Y-45345952D01*
X151645238Y-45393571D01*
X151740476Y-45441190D01*
X152121428Y-45441190D01*
X149788095Y-45822142D02*
X149835714Y-45869761D01*
X149978571Y-45917380D01*
X150073809Y-45917380D01*
X150216666Y-45869761D01*
X150311904Y-45774523D01*
X150359523Y-45679285D01*
X150407142Y-45488809D01*
X150407142Y-45345952D01*
X150359523Y-45155476D01*
X150311904Y-45060238D01*
X150216666Y-44965000D01*
X150073809Y-44917380D01*
X149978571Y-44917380D01*
X149835714Y-44965000D01*
X149788095Y-45012619D01*
X149216666Y-45917380D02*
X149311904Y-45869761D01*
X149359523Y-45822142D01*
X149407142Y-45726904D01*
X149407142Y-45441190D01*
X149359523Y-45345952D01*
X149311904Y-45298333D01*
X149216666Y-45250714D01*
X149073809Y-45250714D01*
X148978571Y-45298333D01*
X148930952Y-45345952D01*
X148883333Y-45441190D01*
X148883333Y-45726904D01*
X148930952Y-45822142D01*
X148978571Y-45869761D01*
X149073809Y-45917380D01*
X149216666Y-45917380D01*
X148311904Y-45917380D02*
X148407142Y-45869761D01*
X148454761Y-45822142D01*
X148502380Y-45726904D01*
X148502380Y-45441190D01*
X148454761Y-45345952D01*
X148407142Y-45298333D01*
X148311904Y-45250714D01*
X148169047Y-45250714D01*
X148073809Y-45298333D01*
X148026190Y-45345952D01*
X147978571Y-45441190D01*
X147978571Y-45726904D01*
X148026190Y-45822142D01*
X148073809Y-45869761D01*
X148169047Y-45917380D01*
X148311904Y-45917380D01*
X147550000Y-45917380D02*
X147550000Y-44917380D01*
X147454761Y-45536428D02*
X147169047Y-45917380D01*
X147169047Y-45250714D02*
X147550000Y-45631666D01*
X146359523Y-45869761D02*
X146454761Y-45917380D01*
X146645238Y-45917380D01*
X146740476Y-45869761D01*
X146788095Y-45774523D01*
X146788095Y-45393571D01*
X146740476Y-45298333D01*
X146645238Y-45250714D01*
X146454761Y-45250714D01*
X146359523Y-45298333D01*
X146311904Y-45393571D01*
X146311904Y-45488809D01*
X146788095Y-45584047D01*
X144407142Y-44869761D02*
X145264285Y-46155476D01*
X143359523Y-45869761D02*
X143216666Y-45917380D01*
X142978571Y-45917380D01*
X142883333Y-45869761D01*
X142835714Y-45822142D01*
X142788095Y-45726904D01*
X142788095Y-45631666D01*
X142835714Y-45536428D01*
X142883333Y-45488809D01*
X142978571Y-45441190D01*
X143169047Y-45393571D01*
X143264285Y-45345952D01*
X143311904Y-45298333D01*
X143359523Y-45203095D01*
X143359523Y-45107857D01*
X143311904Y-45012619D01*
X143264285Y-44965000D01*
X143169047Y-44917380D01*
X142930952Y-44917380D01*
X142788095Y-44965000D01*
X142359523Y-45917380D02*
X142359523Y-45250714D01*
X142359523Y-45345952D02*
X142311904Y-45298333D01*
X142216666Y-45250714D01*
X142073809Y-45250714D01*
X141978571Y-45298333D01*
X141930952Y-45393571D01*
X141930952Y-45917380D01*
X141930952Y-45393571D02*
X141883333Y-45298333D01*
X141788095Y-45250714D01*
X141645238Y-45250714D01*
X141550000Y-45298333D01*
X141502380Y-45393571D01*
X141502380Y-45917380D01*
X140597619Y-45917380D02*
X140597619Y-45393571D01*
X140645238Y-45298333D01*
X140740476Y-45250714D01*
X140930952Y-45250714D01*
X141026190Y-45298333D01*
X140597619Y-45869761D02*
X140692857Y-45917380D01*
X140930952Y-45917380D01*
X141026190Y-45869761D01*
X141073809Y-45774523D01*
X141073809Y-45679285D01*
X141026190Y-45584047D01*
X140930952Y-45536428D01*
X140692857Y-45536428D01*
X140597619Y-45488809D01*
X139978571Y-45917380D02*
X140073809Y-45869761D01*
X140121428Y-45774523D01*
X140121428Y-44917380D01*
X139454761Y-45917380D02*
X139550000Y-45869761D01*
X139597619Y-45774523D01*
X139597619Y-44917380D01*
X138454761Y-44917380D02*
X137883333Y-44917380D01*
X138169047Y-45917380D02*
X138169047Y-44917380D01*
X137550000Y-45917380D02*
X137550000Y-45250714D01*
X137550000Y-44917380D02*
X137597619Y-44965000D01*
X137550000Y-45012619D01*
X137502380Y-44965000D01*
X137550000Y-44917380D01*
X137550000Y-45012619D01*
X137073809Y-45917380D02*
X137073809Y-45250714D01*
X137073809Y-45345952D02*
X137026190Y-45298333D01*
X136930952Y-45250714D01*
X136788095Y-45250714D01*
X136692857Y-45298333D01*
X136645238Y-45393571D01*
X136645238Y-45917380D01*
X136645238Y-45393571D02*
X136597619Y-45298333D01*
X136502380Y-45250714D01*
X136359523Y-45250714D01*
X136264285Y-45298333D01*
X136216666Y-45393571D01*
X136216666Y-45917380D01*
X135359523Y-45869761D02*
X135454761Y-45917380D01*
X135645238Y-45917380D01*
X135740476Y-45869761D01*
X135788095Y-45774523D01*
X135788095Y-45393571D01*
X135740476Y-45298333D01*
X135645238Y-45250714D01*
X135454761Y-45250714D01*
X135359523Y-45298333D01*
X135311904Y-45393571D01*
X135311904Y-45488809D01*
X135788095Y-45584047D01*
X134121428Y-45393571D02*
X133788095Y-45393571D01*
X133645238Y-45917380D02*
X134121428Y-45917380D01*
X134121428Y-44917380D01*
X133645238Y-44917380D01*
X133073809Y-45917380D02*
X133169047Y-45869761D01*
X133216666Y-45774523D01*
X133216666Y-44917380D01*
X132311904Y-45869761D02*
X132407142Y-45917380D01*
X132597619Y-45917380D01*
X132692857Y-45869761D01*
X132740476Y-45774523D01*
X132740476Y-45393571D01*
X132692857Y-45298333D01*
X132597619Y-45250714D01*
X132407142Y-45250714D01*
X132311904Y-45298333D01*
X132264285Y-45393571D01*
X132264285Y-45488809D01*
X132740476Y-45584047D01*
X131407142Y-45869761D02*
X131502380Y-45917380D01*
X131692857Y-45917380D01*
X131788095Y-45869761D01*
X131835714Y-45822142D01*
X131883333Y-45726904D01*
X131883333Y-45441190D01*
X131835714Y-45345952D01*
X131788095Y-45298333D01*
X131692857Y-45250714D01*
X131502380Y-45250714D01*
X131407142Y-45298333D01*
X131121428Y-45250714D02*
X130740476Y-45250714D01*
X130978571Y-44917380D02*
X130978571Y-45774523D01*
X130930952Y-45869761D01*
X130835714Y-45917380D01*
X130740476Y-45917380D01*
X130407142Y-45917380D02*
X130407142Y-45250714D01*
X130407142Y-45441190D02*
X130359523Y-45345952D01*
X130311904Y-45298333D01*
X130216666Y-45250714D01*
X130121428Y-45250714D01*
X129645238Y-45917380D02*
X129740476Y-45869761D01*
X129788095Y-45822142D01*
X129835714Y-45726904D01*
X129835714Y-45441190D01*
X129788095Y-45345952D01*
X129740476Y-45298333D01*
X129645238Y-45250714D01*
X129502380Y-45250714D01*
X129407142Y-45298333D01*
X129359523Y-45345952D01*
X129311904Y-45441190D01*
X129311904Y-45726904D01*
X129359523Y-45822142D01*
X129407142Y-45869761D01*
X129502380Y-45917380D01*
X129645238Y-45917380D01*
X128883333Y-45250714D02*
X128883333Y-45917380D01*
X128883333Y-45345952D02*
X128835714Y-45298333D01*
X128740476Y-45250714D01*
X128597619Y-45250714D01*
X128502380Y-45298333D01*
X128454761Y-45393571D01*
X128454761Y-45917380D01*
X127978571Y-45917380D02*
X127978571Y-45250714D01*
X127978571Y-44917380D02*
X128026190Y-44965000D01*
X127978571Y-45012619D01*
X127930952Y-44965000D01*
X127978571Y-44917380D01*
X127978571Y-45012619D01*
X127073809Y-45869761D02*
X127169047Y-45917380D01*
X127359523Y-45917380D01*
X127454761Y-45869761D01*
X127502380Y-45822142D01*
X127550000Y-45726904D01*
X127550000Y-45441190D01*
X127502380Y-45345952D01*
X127454761Y-45298333D01*
X127359523Y-45250714D01*
X127169047Y-45250714D01*
X127073809Y-45298333D01*
X126692857Y-45869761D02*
X126597619Y-45917380D01*
X126407142Y-45917380D01*
X126311904Y-45869761D01*
X126264285Y-45774523D01*
X126264285Y-45726904D01*
X126311904Y-45631666D01*
X126407142Y-45584047D01*
X126550000Y-45584047D01*
X126645238Y-45536428D01*
X126692857Y-45441190D01*
X126692857Y-45393571D01*
X126645238Y-45298333D01*
X126550000Y-45250714D01*
X126407142Y-45250714D01*
X126311904Y-45298333D01*
%LPC*%
D11*
X167680000Y-113030000D03*
D12*
X170180000Y-113030000D03*
X172680000Y-113030000D03*
X167680000Y-107630000D03*
X170180000Y-107630000D03*
X172680000Y-107630000D03*
D13*
X142280000Y-66040000D03*
X144780000Y-66040000D03*
D14*
X147320000Y-95250000D03*
D15*
X147320000Y-100330000D03*
X147320000Y-105410000D03*
X147320000Y-110490000D03*
D13*
X133350000Y-106680000D03*
X135850000Y-106680000D03*
D11*
X127000000Y-102870000D03*
D12*
X129500000Y-102870000D03*
X129500000Y-96520000D03*
D11*
X127000000Y-96520000D03*
D13*
X130850000Y-90170000D03*
X133350000Y-90170000D03*
X121960000Y-72390000D03*
X124460000Y-72390000D03*
X148590000Y-66040000D03*
X151090000Y-66040000D03*
X154940000Y-63500000D03*
X157440000Y-63500000D03*
X144740000Y-88900000D03*
X142240000Y-88900000D03*
X148590000Y-88900000D03*
X151090000Y-88900000D03*
D11*
X113030000Y-88900000D03*
D12*
X115530000Y-88900000D03*
D13*
X121880000Y-87630000D03*
X119380000Y-87630000D03*
X115570000Y-95250000D03*
X113070000Y-95250000D03*
X142200000Y-111760000D03*
X139700000Y-111760000D03*
X139700000Y-106680000D03*
X142200000Y-106680000D03*
D16*
X147320000Y-59690000D03*
D17*
X144780000Y-59690000D03*
X142240000Y-59690000D03*
X139700000Y-59690000D03*
X137160000Y-59690000D03*
X134620000Y-59690000D03*
X132080000Y-59690000D03*
X129540000Y-59690000D03*
X127000000Y-59690000D03*
X124460000Y-59690000D03*
X121920000Y-59690000D03*
X119380000Y-59690000D03*
X116840000Y-59690000D03*
X114300000Y-59690000D03*
X152400000Y-59690000D03*
X149860000Y-59690000D03*
D18*
X112010000Y-49150000D03*
X176010000Y-49150000D03*
D19*
X146050000Y-121920000D03*
X127000000Y-121920000D03*
D20*
X114300000Y-67310000D03*
D21*
X114300000Y-69850000D03*
D12*
X125730000Y-111760000D03*
D22*
X135890000Y-111760000D03*
D23*
X161290000Y-82550000D03*
D24*
X173990000Y-82550000D03*
X173990000Y-87630000D03*
D23*
X161290000Y-87630000D03*
D24*
X173990000Y-92710000D03*
D23*
X161290000Y-92710000D03*
D24*
X173990000Y-97790000D03*
D23*
X161290000Y-97790000D03*
X161290000Y-102870000D03*
D24*
X173990000Y-102870000D03*
D23*
X138430000Y-82550000D03*
D24*
X125730000Y-82550000D03*
D14*
X166370000Y-69850000D03*
D15*
X168870000Y-64850000D03*
X171370000Y-69850000D03*
D12*
X119340000Y-107630000D03*
X116840000Y-107630000D03*
X114340000Y-107630000D03*
X119340000Y-113030000D03*
X116840000Y-113030000D03*
D11*
X114340000Y-113030000D03*
D12*
X161250000Y-107630000D03*
X158750000Y-107630000D03*
X156250000Y-107630000D03*
X161250000Y-113030000D03*
X158750000Y-113030000D03*
D11*
X156250000Y-113030000D03*
X115610000Y-81280000D03*
D12*
X118110000Y-81280000D03*
X120610000Y-81280000D03*
X115610000Y-75880000D03*
X118110000Y-75880000D03*
X120610000Y-75880000D03*
D25*
X133350000Y-101600000D03*
D26*
X140970000Y-93980000D03*
X135890000Y-101600000D03*
X138430000Y-93980000D03*
X138430000Y-101600000D03*
X135890000Y-93980000D03*
X140970000Y-101600000D03*
X133350000Y-93980000D03*
D25*
X128270000Y-77470000D03*
D26*
X161290000Y-69850000D03*
X130810000Y-77470000D03*
X158750000Y-69850000D03*
X133350000Y-77470000D03*
X156210000Y-69850000D03*
X135890000Y-77470000D03*
X153670000Y-69850000D03*
X138430000Y-77470000D03*
X151130000Y-69850000D03*
X140970000Y-77470000D03*
X148590000Y-69850000D03*
X143510000Y-77470000D03*
X146050000Y-69850000D03*
X146050000Y-77470000D03*
X143510000Y-69850000D03*
X148590000Y-77470000D03*
X140970000Y-69850000D03*
X151130000Y-77470000D03*
X138430000Y-69850000D03*
X153670000Y-77470000D03*
X135890000Y-69850000D03*
X156210000Y-77470000D03*
X133350000Y-69850000D03*
X158750000Y-77470000D03*
X130810000Y-69850000D03*
X161290000Y-77470000D03*
X128270000Y-69850000D03*
D27*
X120650000Y-93980000D03*
X121920000Y-93980000D03*
D28*
X119380000Y-93980000D03*
D29*
X144780000Y-83820000D03*
X149660000Y-83820000D03*
D20*
X167640000Y-77470000D03*
D21*
X167640000Y-74930000D03*
X170180000Y-77470000D03*
X170180000Y-74930000D03*
X172720000Y-77470000D03*
X172720000Y-74930000D03*
D30*
X111760000Y-39370000D03*
D31*
X111760000Y-39370000D03*
X111760000Y-124460000D03*
D30*
X111760000Y-124460000D03*
X175260000Y-39370000D03*
D31*
X175260000Y-39370000D03*
X175260000Y-124460000D03*
D30*
X175260000Y-124460000D03*
M02*
