%FSLAX45Y45*%
G04 Gerber Fmt 4.5, Leading zero omitted, Abs format (unit mm)*
G04 Created by KiCad (PCBNEW 5.1.9+dfsg1-1+deb11u1) date 2023-04-03 20:16:07*
%MOMM*%
%LPD*%
G01*
G04 APERTURE LIST*
%TA.AperFunction,Profile*%
%ADD10C,0.050000*%
%TD*%
%ADD11C,0.200000*%
%ADD12C,0.300000*%
G04 APERTURE END LIST*
D10*
X10668000Y-3429000D02*
X10795000Y-3429000D01*
X10668000Y-12954000D02*
X10668000Y-3429000D01*
X10922000Y-12954000D02*
X10668000Y-12954000D01*
X18034000Y-12954000D02*
X10922000Y-12954000D01*
X18034000Y-12700000D02*
X18034000Y-12954000D01*
X18034000Y-3429000D02*
X18034000Y-12700000D01*
X10795000Y-3429000D02*
X18034000Y-3429000D01*
D11*
X12616500Y-7219000D02*
X12656500Y-7259000D01*
X12656500Y-7219000D02*
X12616500Y-7259000D01*
X13378500Y-8489000D02*
X13418500Y-8529000D01*
X13418500Y-8489000D02*
X13378500Y-8529000D01*
X13505500Y-8235000D02*
X13545500Y-8275000D01*
X13545500Y-8235000D02*
X13505500Y-8275000D01*
X13569000Y-8679500D02*
X13609000Y-8719500D01*
X13609000Y-8679500D02*
X13569000Y-8719500D01*
X13696000Y-9060500D02*
X13736000Y-9100500D01*
X13736000Y-9060500D02*
X13696000Y-9100500D01*
X13886500Y-8679500D02*
X13926500Y-8719500D01*
X13926500Y-8679500D02*
X13886500Y-8719500D01*
X15347000Y-8933500D02*
X15387000Y-8973500D01*
X15387000Y-8933500D02*
X15347000Y-8973500D01*
X15347000Y-9133000D02*
X15387000Y-9173000D01*
X15387000Y-9133000D02*
X15347000Y-9173000D01*
X15601000Y-6076000D02*
X15641000Y-6116000D01*
X15641000Y-6076000D02*
X15601000Y-6116000D01*
X15855000Y-5314000D02*
X15895000Y-5354000D01*
X15895000Y-5314000D02*
X15855000Y-5354000D01*
X16109000Y-5822000D02*
X16149000Y-5862000D01*
X16149000Y-5822000D02*
X16109000Y-5862000D01*
X14762000Y-9525000D02*
G75*
G03*
X14762000Y-9525000I-30000J0D01*
G01*
X14762000Y-10033000D02*
G75*
G03*
X14762000Y-10033000I-30000J0D01*
G01*
X14762000Y-10541000D02*
G75*
G03*
X14762000Y-10541000I-30000J0D01*
G01*
X14762000Y-11049000D02*
G75*
G03*
X14762000Y-11049000I-30000J0D01*
G01*
X16446500Y-10128250D02*
X16446500Y-10191750D01*
X16414750Y-10160000D02*
X16478250Y-10160000D01*
X11331749Y-9549749D02*
X11331749Y-9500251D01*
X11282251Y-9500251D01*
X11282251Y-9549749D01*
X11331749Y-9549749D01*
X11581749Y-9549749D02*
X11581749Y-9500251D01*
X11532251Y-9500251D01*
X11532251Y-9549749D01*
X11581749Y-9549749D01*
X11962749Y-8787749D02*
X11962749Y-8738251D01*
X11913251Y-8738251D01*
X11913251Y-8787749D01*
X11962749Y-8787749D01*
X12212749Y-8787749D02*
X12212749Y-8738251D01*
X12163251Y-8738251D01*
X12163251Y-8787749D01*
X12212749Y-8787749D01*
X12220749Y-7263749D02*
X12220749Y-7214251D01*
X12171251Y-7214251D01*
X12171251Y-7263749D01*
X12220749Y-7263749D01*
X12470749Y-7263749D02*
X12470749Y-7214251D01*
X12421251Y-7214251D01*
X12421251Y-7263749D01*
X12470749Y-7263749D01*
X13109749Y-9041749D02*
X13109749Y-8992251D01*
X13060251Y-8992251D01*
X13060251Y-9041749D01*
X13109749Y-9041749D01*
X13359749Y-9041749D02*
X13359749Y-8992251D01*
X13310251Y-8992251D01*
X13310251Y-9041749D01*
X13359749Y-9041749D01*
X13359749Y-10692749D02*
X13359749Y-10643251D01*
X13310251Y-10643251D01*
X13310251Y-10692749D01*
X13359749Y-10692749D01*
X13609749Y-10692749D02*
X13609749Y-10643251D01*
X13560251Y-10643251D01*
X13560251Y-10692749D01*
X13609749Y-10692749D01*
X13994749Y-10692749D02*
X13994749Y-10643251D01*
X13945251Y-10643251D01*
X13945251Y-10692749D01*
X13994749Y-10692749D01*
X13994749Y-11200749D02*
X13994749Y-11151251D01*
X13945251Y-11151251D01*
X13945251Y-11200749D01*
X13994749Y-11200749D01*
X14244749Y-10692749D02*
X14244749Y-10643251D01*
X14195251Y-10643251D01*
X14195251Y-10692749D01*
X14244749Y-10692749D01*
X14244749Y-11200749D02*
X14244749Y-11151251D01*
X14195251Y-11151251D01*
X14195251Y-11200749D01*
X14244749Y-11200749D01*
X14248749Y-8914749D02*
X14248749Y-8865251D01*
X14199251Y-8865251D01*
X14199251Y-8914749D01*
X14248749Y-8914749D01*
X14252749Y-6628749D02*
X14252749Y-6579251D01*
X14203251Y-6579251D01*
X14203251Y-6628749D01*
X14252749Y-6628749D01*
X14498749Y-8914749D02*
X14498749Y-8865251D01*
X14449251Y-8865251D01*
X14449251Y-8914749D01*
X14498749Y-8914749D01*
X14502749Y-6628749D02*
X14502749Y-6579251D01*
X14453251Y-6579251D01*
X14453251Y-6628749D01*
X14502749Y-6628749D01*
X14883749Y-6628749D02*
X14883749Y-6579251D01*
X14834251Y-6579251D01*
X14834251Y-6628749D01*
X14883749Y-6628749D01*
X14883749Y-8914749D02*
X14883749Y-8865251D01*
X14834251Y-8865251D01*
X14834251Y-8914749D01*
X14883749Y-8914749D01*
X15133749Y-6628749D02*
X15133749Y-6579251D01*
X15084251Y-6579251D01*
X15084251Y-6628749D01*
X15133749Y-6628749D01*
X15133749Y-8914749D02*
X15133749Y-8865251D01*
X15084251Y-8865251D01*
X15084251Y-8914749D01*
X15133749Y-8914749D01*
X15518749Y-6374749D02*
X15518749Y-6325251D01*
X15469251Y-6325251D01*
X15469251Y-6374749D01*
X15518749Y-6374749D01*
X15768749Y-6374749D02*
X15768749Y-6325251D01*
X15719251Y-6325251D01*
X15719251Y-6374749D01*
X15768749Y-6374749D01*
X11938000Y-9435500D02*
X11975500Y-9398000D01*
X11938000Y-9360500D01*
X11900500Y-9398000D01*
X11938000Y-9435500D01*
X12065000Y-9435500D02*
X12102500Y-9398000D01*
X12065000Y-9360500D01*
X12027500Y-9398000D01*
X12065000Y-9435500D01*
X12192000Y-9435500D02*
X12229500Y-9398000D01*
X12192000Y-9360500D01*
X12154500Y-9398000D01*
X12192000Y-9435500D01*
X11263000Y-8850000D02*
X11343000Y-8930000D01*
X11343000Y-8850000D02*
X11263000Y-8930000D01*
X11343000Y-8890000D02*
G75*
G03*
X11343000Y-8890000I-40000J0D01*
G01*
X11394000Y-10723000D02*
X11474000Y-10803000D01*
X11474000Y-10723000D02*
X11394000Y-10803000D01*
X11474000Y-10763000D02*
G75*
G03*
X11474000Y-10763000I-40000J0D01*
G01*
X11394000Y-11263000D02*
X11474000Y-11343000D01*
X11474000Y-11263000D02*
X11394000Y-11343000D01*
X11474000Y-11303000D02*
G75*
G03*
X11474000Y-11303000I-40000J0D01*
G01*
X11513000Y-8850000D02*
X11593000Y-8930000D01*
X11593000Y-8850000D02*
X11513000Y-8930000D01*
X11593000Y-8890000D02*
G75*
G03*
X11593000Y-8890000I-40000J0D01*
G01*
X11521000Y-7548000D02*
X11601000Y-7628000D01*
X11601000Y-7548000D02*
X11521000Y-7628000D01*
X11601000Y-7588000D02*
G75*
G03*
X11601000Y-7588000I-40000J0D01*
G01*
X11521000Y-8088000D02*
X11601000Y-8168000D01*
X11601000Y-8088000D02*
X11521000Y-8168000D01*
X11601000Y-8128000D02*
G75*
G03*
X11601000Y-8128000I-40000J0D01*
G01*
X11644000Y-10723000D02*
X11724000Y-10803000D01*
X11724000Y-10723000D02*
X11644000Y-10803000D01*
X11724000Y-10763000D02*
G75*
G03*
X11724000Y-10763000I-40000J0D01*
G01*
X11644000Y-11263000D02*
X11724000Y-11343000D01*
X11724000Y-11263000D02*
X11644000Y-11343000D01*
X11724000Y-11303000D02*
G75*
G03*
X11724000Y-11303000I-40000J0D01*
G01*
X11771000Y-7548000D02*
X11851000Y-7628000D01*
X11851000Y-7548000D02*
X11771000Y-7628000D01*
X11851000Y-7588000D02*
G75*
G03*
X11851000Y-7588000I-40000J0D01*
G01*
X11771000Y-8088000D02*
X11851000Y-8168000D01*
X11851000Y-8088000D02*
X11771000Y-8168000D01*
X11851000Y-8128000D02*
G75*
G03*
X11851000Y-8128000I-40000J0D01*
G01*
X11894000Y-10723000D02*
X11974000Y-10803000D01*
X11974000Y-10723000D02*
X11894000Y-10803000D01*
X11974000Y-10763000D02*
G75*
G03*
X11974000Y-10763000I-40000J0D01*
G01*
X11894000Y-11263000D02*
X11974000Y-11343000D01*
X11974000Y-11263000D02*
X11894000Y-11343000D01*
X11974000Y-11303000D02*
G75*
G03*
X11974000Y-11303000I-40000J0D01*
G01*
X12021000Y-7548000D02*
X12101000Y-7628000D01*
X12101000Y-7548000D02*
X12021000Y-7628000D01*
X12101000Y-7588000D02*
G75*
G03*
X12101000Y-7588000I-40000J0D01*
G01*
X12021000Y-8088000D02*
X12101000Y-8168000D01*
X12101000Y-8088000D02*
X12021000Y-8168000D01*
X12101000Y-8128000D02*
G75*
G03*
X12101000Y-8128000I-40000J0D01*
G01*
X12533000Y-11136000D02*
X12613000Y-11216000D01*
X12613000Y-11136000D02*
X12533000Y-11216000D01*
X12613000Y-11176000D02*
G75*
G03*
X12613000Y-11176000I-40000J0D01*
G01*
X12660000Y-9612000D02*
X12740000Y-9692000D01*
X12740000Y-9612000D02*
X12660000Y-9692000D01*
X12740000Y-9652000D02*
G75*
G03*
X12740000Y-9652000I-40000J0D01*
G01*
X12660000Y-10247000D02*
X12740000Y-10327000D01*
X12740000Y-10247000D02*
X12660000Y-10327000D01*
X12740000Y-10287000D02*
G75*
G03*
X12740000Y-10287000I-40000J0D01*
G01*
X12787000Y-6945000D02*
X12867000Y-7025000D01*
X12867000Y-6945000D02*
X12787000Y-7025000D01*
X12867000Y-6985000D02*
G75*
G03*
X12867000Y-6985000I-40000J0D01*
G01*
X12787000Y-7707000D02*
X12867000Y-7787000D01*
X12867000Y-7707000D02*
X12787000Y-7787000D01*
X12867000Y-7747000D02*
G75*
G03*
X12867000Y-7747000I-40000J0D01*
G01*
X12910000Y-9612000D02*
X12990000Y-9692000D01*
X12990000Y-9612000D02*
X12910000Y-9692000D01*
X12990000Y-9652000D02*
G75*
G03*
X12990000Y-9652000I-40000J0D01*
G01*
X12910000Y-10247000D02*
X12990000Y-10327000D01*
X12990000Y-10247000D02*
X12910000Y-10327000D01*
X12990000Y-10287000D02*
G75*
G03*
X12990000Y-10287000I-40000J0D01*
G01*
X13041000Y-6945000D02*
X13121000Y-7025000D01*
X13121000Y-6945000D02*
X13041000Y-7025000D01*
X13121000Y-6985000D02*
G75*
G03*
X13121000Y-6985000I-40000J0D01*
G01*
X13041000Y-7707000D02*
X13121000Y-7787000D01*
X13121000Y-7707000D02*
X13041000Y-7787000D01*
X13121000Y-7747000D02*
G75*
G03*
X13121000Y-7747000I-40000J0D01*
G01*
X13295000Y-6945000D02*
X13375000Y-7025000D01*
X13375000Y-6945000D02*
X13295000Y-7025000D01*
X13375000Y-6985000D02*
G75*
G03*
X13375000Y-6985000I-40000J0D01*
G01*
X13295000Y-7707000D02*
X13375000Y-7787000D01*
X13375000Y-7707000D02*
X13295000Y-7787000D01*
X13375000Y-7747000D02*
G75*
G03*
X13375000Y-7747000I-40000J0D01*
G01*
X13295000Y-9358000D02*
X13375000Y-9438000D01*
X13375000Y-9358000D02*
X13295000Y-9438000D01*
X13375000Y-9398000D02*
G75*
G03*
X13375000Y-9398000I-40000J0D01*
G01*
X13295000Y-10120000D02*
X13375000Y-10200000D01*
X13375000Y-10120000D02*
X13295000Y-10200000D01*
X13375000Y-10160000D02*
G75*
G03*
X13375000Y-10160000I-40000J0D01*
G01*
X13549000Y-6945000D02*
X13629000Y-7025000D01*
X13629000Y-6945000D02*
X13549000Y-7025000D01*
X13629000Y-6985000D02*
G75*
G03*
X13629000Y-6985000I-40000J0D01*
G01*
X13549000Y-7707000D02*
X13629000Y-7787000D01*
X13629000Y-7707000D02*
X13549000Y-7787000D01*
X13629000Y-7747000D02*
G75*
G03*
X13629000Y-7747000I-40000J0D01*
G01*
X13549000Y-9358000D02*
X13629000Y-9438000D01*
X13629000Y-9358000D02*
X13549000Y-9438000D01*
X13629000Y-9398000D02*
G75*
G03*
X13629000Y-9398000I-40000J0D01*
G01*
X13549000Y-10120000D02*
X13629000Y-10200000D01*
X13629000Y-10120000D02*
X13549000Y-10200000D01*
X13629000Y-10160000D02*
G75*
G03*
X13629000Y-10160000I-40000J0D01*
G01*
X13549000Y-11136000D02*
X13629000Y-11216000D01*
X13629000Y-11136000D02*
X13549000Y-11216000D01*
X13629000Y-11176000D02*
G75*
G03*
X13629000Y-11176000I-40000J0D01*
G01*
X13803000Y-6945000D02*
X13883000Y-7025000D01*
X13883000Y-6945000D02*
X13803000Y-7025000D01*
X13883000Y-6985000D02*
G75*
G03*
X13883000Y-6985000I-40000J0D01*
G01*
X13803000Y-7707000D02*
X13883000Y-7787000D01*
X13883000Y-7707000D02*
X13803000Y-7787000D01*
X13883000Y-7747000D02*
G75*
G03*
X13883000Y-7747000I-40000J0D01*
G01*
X13803000Y-9358000D02*
X13883000Y-9438000D01*
X13883000Y-9358000D02*
X13803000Y-9438000D01*
X13883000Y-9398000D02*
G75*
G03*
X13883000Y-9398000I-40000J0D01*
G01*
X13803000Y-10120000D02*
X13883000Y-10200000D01*
X13883000Y-10120000D02*
X13803000Y-10200000D01*
X13883000Y-10160000D02*
G75*
G03*
X13883000Y-10160000I-40000J0D01*
G01*
X14057000Y-6945000D02*
X14137000Y-7025000D01*
X14137000Y-6945000D02*
X14057000Y-7025000D01*
X14137000Y-6985000D02*
G75*
G03*
X14137000Y-6985000I-40000J0D01*
G01*
X14057000Y-7707000D02*
X14137000Y-7787000D01*
X14137000Y-7707000D02*
X14057000Y-7787000D01*
X14137000Y-7747000D02*
G75*
G03*
X14137000Y-7747000I-40000J0D01*
G01*
X14057000Y-9358000D02*
X14137000Y-9438000D01*
X14137000Y-9358000D02*
X14057000Y-9438000D01*
X14137000Y-9398000D02*
G75*
G03*
X14137000Y-9398000I-40000J0D01*
G01*
X14057000Y-10120000D02*
X14137000Y-10200000D01*
X14137000Y-10120000D02*
X14057000Y-10200000D01*
X14137000Y-10160000D02*
G75*
G03*
X14137000Y-10160000I-40000J0D01*
G01*
X14311000Y-6945000D02*
X14391000Y-7025000D01*
X14391000Y-6945000D02*
X14311000Y-7025000D01*
X14391000Y-6985000D02*
G75*
G03*
X14391000Y-6985000I-40000J0D01*
G01*
X14311000Y-7707000D02*
X14391000Y-7787000D01*
X14391000Y-7707000D02*
X14311000Y-7787000D01*
X14391000Y-7747000D02*
G75*
G03*
X14391000Y-7747000I-40000J0D01*
G01*
X14438000Y-8342000D02*
X14518000Y-8422000D01*
X14518000Y-8342000D02*
X14438000Y-8422000D01*
X14518000Y-8382000D02*
G75*
G03*
X14518000Y-8382000I-40000J0D01*
G01*
X14565000Y-6945000D02*
X14645000Y-7025000D01*
X14645000Y-6945000D02*
X14565000Y-7025000D01*
X14645000Y-6985000D02*
G75*
G03*
X14645000Y-6985000I-40000J0D01*
G01*
X14565000Y-7707000D02*
X14645000Y-7787000D01*
X14645000Y-7707000D02*
X14565000Y-7787000D01*
X14645000Y-7747000D02*
G75*
G03*
X14645000Y-7747000I-40000J0D01*
G01*
X14819000Y-6945000D02*
X14899000Y-7025000D01*
X14899000Y-6945000D02*
X14819000Y-7025000D01*
X14899000Y-6985000D02*
G75*
G03*
X14899000Y-6985000I-40000J0D01*
G01*
X14819000Y-7707000D02*
X14899000Y-7787000D01*
X14899000Y-7707000D02*
X14819000Y-7787000D01*
X14899000Y-7747000D02*
G75*
G03*
X14899000Y-7747000I-40000J0D01*
G01*
X14926000Y-8342000D02*
X15006000Y-8422000D01*
X15006000Y-8342000D02*
X14926000Y-8422000D01*
X15006000Y-8382000D02*
G75*
G03*
X15006000Y-8382000I-40000J0D01*
G01*
X15073000Y-6945000D02*
X15153000Y-7025000D01*
X15153000Y-6945000D02*
X15073000Y-7025000D01*
X15153000Y-6985000D02*
G75*
G03*
X15153000Y-6985000I-40000J0D01*
G01*
X15073000Y-7707000D02*
X15153000Y-7787000D01*
X15153000Y-7707000D02*
X15073000Y-7787000D01*
X15153000Y-7747000D02*
G75*
G03*
X15153000Y-7747000I-40000J0D01*
G01*
X15327000Y-6945000D02*
X15407000Y-7025000D01*
X15407000Y-6945000D02*
X15327000Y-7025000D01*
X15407000Y-6985000D02*
G75*
G03*
X15407000Y-6985000I-40000J0D01*
G01*
X15327000Y-7707000D02*
X15407000Y-7787000D01*
X15407000Y-7707000D02*
X15327000Y-7787000D01*
X15407000Y-7747000D02*
G75*
G03*
X15407000Y-7747000I-40000J0D01*
G01*
X15581000Y-6945000D02*
X15661000Y-7025000D01*
X15661000Y-6945000D02*
X15581000Y-7025000D01*
X15661000Y-6985000D02*
G75*
G03*
X15661000Y-6985000I-40000J0D01*
G01*
X15581000Y-7707000D02*
X15661000Y-7787000D01*
X15661000Y-7707000D02*
X15581000Y-7787000D01*
X15661000Y-7747000D02*
G75*
G03*
X15661000Y-7747000I-40000J0D01*
G01*
X15585000Y-10723000D02*
X15665000Y-10803000D01*
X15665000Y-10723000D02*
X15585000Y-10803000D01*
X15665000Y-10763000D02*
G75*
G03*
X15665000Y-10763000I-40000J0D01*
G01*
X15585000Y-11263000D02*
X15665000Y-11343000D01*
X15665000Y-11263000D02*
X15585000Y-11343000D01*
X15665000Y-11303000D02*
G75*
G03*
X15665000Y-11303000I-40000J0D01*
G01*
X15835000Y-6945000D02*
X15915000Y-7025000D01*
X15915000Y-6945000D02*
X15835000Y-7025000D01*
X15915000Y-6985000D02*
G75*
G03*
X15915000Y-6985000I-40000J0D01*
G01*
X15835000Y-7707000D02*
X15915000Y-7787000D01*
X15915000Y-7707000D02*
X15835000Y-7787000D01*
X15915000Y-7747000D02*
G75*
G03*
X15915000Y-7747000I-40000J0D01*
G01*
X15835000Y-10723000D02*
X15915000Y-10803000D01*
X15915000Y-10723000D02*
X15835000Y-10803000D01*
X15915000Y-10763000D02*
G75*
G03*
X15915000Y-10763000I-40000J0D01*
G01*
X15835000Y-11263000D02*
X15915000Y-11343000D01*
X15915000Y-11263000D02*
X15835000Y-11343000D01*
X15915000Y-11303000D02*
G75*
G03*
X15915000Y-11303000I-40000J0D01*
G01*
X16085000Y-10723000D02*
X16165000Y-10803000D01*
X16165000Y-10723000D02*
X16085000Y-10803000D01*
X16165000Y-10763000D02*
G75*
G03*
X16165000Y-10763000I-40000J0D01*
G01*
X16085000Y-11263000D02*
X16165000Y-11343000D01*
X16165000Y-11263000D02*
X16085000Y-11343000D01*
X16165000Y-11303000D02*
G75*
G03*
X16165000Y-11303000I-40000J0D01*
G01*
X16089000Y-6945000D02*
X16169000Y-7025000D01*
X16169000Y-6945000D02*
X16089000Y-7025000D01*
X16169000Y-6985000D02*
G75*
G03*
X16169000Y-6985000I-40000J0D01*
G01*
X16089000Y-7707000D02*
X16169000Y-7787000D01*
X16169000Y-7707000D02*
X16089000Y-7787000D01*
X16169000Y-7747000D02*
G75*
G03*
X16169000Y-7747000I-40000J0D01*
G01*
X16728000Y-10723000D02*
X16808000Y-10803000D01*
X16808000Y-10723000D02*
X16728000Y-10803000D01*
X16808000Y-10763000D02*
G75*
G03*
X16808000Y-10763000I-40000J0D01*
G01*
X16728000Y-11263000D02*
X16808000Y-11343000D01*
X16808000Y-11263000D02*
X16728000Y-11343000D01*
X16808000Y-11303000D02*
G75*
G03*
X16808000Y-11303000I-40000J0D01*
G01*
X16978000Y-10723000D02*
X17058000Y-10803000D01*
X17058000Y-10723000D02*
X16978000Y-10803000D01*
X17058000Y-10763000D02*
G75*
G03*
X17058000Y-10763000I-40000J0D01*
G01*
X16978000Y-11263000D02*
X17058000Y-11343000D01*
X17058000Y-11263000D02*
X16978000Y-11343000D01*
X17058000Y-11303000D02*
G75*
G03*
X17058000Y-11303000I-40000J0D01*
G01*
X17228000Y-10723000D02*
X17308000Y-10803000D01*
X17308000Y-10723000D02*
X17228000Y-10803000D01*
X17308000Y-10763000D02*
G75*
G03*
X17308000Y-10763000I-40000J0D01*
G01*
X17228000Y-11263000D02*
X17308000Y-11343000D01*
X17308000Y-11263000D02*
X17228000Y-11343000D01*
X17308000Y-11303000D02*
G75*
G03*
X17308000Y-11303000I-40000J0D01*
G01*
X16592000Y-6940000D02*
X16682000Y-7030000D01*
X16682000Y-6940000D02*
X16592000Y-7030000D01*
X16637000Y-6940000D02*
X16637000Y-7030000D01*
X16592000Y-6985000D02*
X16682000Y-6985000D01*
X16842000Y-6440000D02*
X16932000Y-6530000D01*
X16932000Y-6440000D02*
X16842000Y-6530000D01*
X16887000Y-6440000D02*
X16887000Y-6530000D01*
X16842000Y-6485000D02*
X16932000Y-6485000D01*
X17092000Y-6940000D02*
X17182000Y-7030000D01*
X17182000Y-6940000D02*
X17092000Y-7030000D01*
X17137000Y-6940000D02*
X17137000Y-7030000D01*
X17092000Y-6985000D02*
X17182000Y-6985000D01*
X11383010Y-5922010D02*
X11476990Y-6015990D01*
X11476990Y-5922010D02*
X11383010Y-6015990D01*
X11463227Y-6002227D02*
X11463227Y-5935773D01*
X11396773Y-5935773D01*
X11396773Y-6002227D01*
X11463227Y-6002227D01*
X11637010Y-5922010D02*
X11730990Y-6015990D01*
X11730990Y-5922010D02*
X11637010Y-6015990D01*
X11717227Y-6002227D02*
X11717227Y-5935773D01*
X11650773Y-5935773D01*
X11650773Y-6002227D01*
X11717227Y-6002227D01*
X11891010Y-5922010D02*
X11984990Y-6015990D01*
X11984990Y-5922010D02*
X11891010Y-6015990D01*
X11971227Y-6002227D02*
X11971227Y-5935773D01*
X11904773Y-5935773D01*
X11904773Y-6002227D01*
X11971227Y-6002227D01*
X12145010Y-5922010D02*
X12238990Y-6015990D01*
X12238990Y-5922010D02*
X12145010Y-6015990D01*
X12225227Y-6002227D02*
X12225227Y-5935773D01*
X12158773Y-5935773D01*
X12158773Y-6002227D01*
X12225227Y-6002227D01*
X12399010Y-5922010D02*
X12492990Y-6015990D01*
X12492990Y-5922010D02*
X12399010Y-6015990D01*
X12479227Y-6002227D02*
X12479227Y-5935773D01*
X12412773Y-5935773D01*
X12412773Y-6002227D01*
X12479227Y-6002227D01*
X12653010Y-5922010D02*
X12746990Y-6015990D01*
X12746990Y-5922010D02*
X12653010Y-6015990D01*
X12733227Y-6002227D02*
X12733227Y-5935773D01*
X12666773Y-5935773D01*
X12666773Y-6002227D01*
X12733227Y-6002227D01*
X12907010Y-5922010D02*
X13000990Y-6015990D01*
X13000990Y-5922010D02*
X12907010Y-6015990D01*
X12987227Y-6002227D02*
X12987227Y-5935773D01*
X12920773Y-5935773D01*
X12920773Y-6002227D01*
X12987227Y-6002227D01*
X13161010Y-5922010D02*
X13254990Y-6015990D01*
X13254990Y-5922010D02*
X13161010Y-6015990D01*
X13241227Y-6002227D02*
X13241227Y-5935773D01*
X13174773Y-5935773D01*
X13174773Y-6002227D01*
X13241227Y-6002227D01*
X13415010Y-5922010D02*
X13508990Y-6015990D01*
X13508990Y-5922010D02*
X13415010Y-6015990D01*
X13495227Y-6002227D02*
X13495227Y-5935773D01*
X13428773Y-5935773D01*
X13428773Y-6002227D01*
X13495227Y-6002227D01*
X13669010Y-5922010D02*
X13762990Y-6015990D01*
X13762990Y-5922010D02*
X13669010Y-6015990D01*
X13749227Y-6002227D02*
X13749227Y-5935773D01*
X13682773Y-5935773D01*
X13682773Y-6002227D01*
X13749227Y-6002227D01*
X13923010Y-5922010D02*
X14016990Y-6015990D01*
X14016990Y-5922010D02*
X13923010Y-6015990D01*
X14003227Y-6002227D02*
X14003227Y-5935773D01*
X13936773Y-5935773D01*
X13936773Y-6002227D01*
X14003227Y-6002227D01*
X14177010Y-5922010D02*
X14270990Y-6015990D01*
X14270990Y-5922010D02*
X14177010Y-6015990D01*
X14257227Y-6002227D02*
X14257227Y-5935773D01*
X14190773Y-5935773D01*
X14190773Y-6002227D01*
X14257227Y-6002227D01*
X14431010Y-5922010D02*
X14524990Y-6015990D01*
X14524990Y-5922010D02*
X14431010Y-6015990D01*
X14511227Y-6002227D02*
X14511227Y-5935773D01*
X14444773Y-5935773D01*
X14444773Y-6002227D01*
X14511227Y-6002227D01*
X14685010Y-5922010D02*
X14778990Y-6015990D01*
X14778990Y-5922010D02*
X14685010Y-6015990D01*
X14765227Y-6002227D02*
X14765227Y-5935773D01*
X14698773Y-5935773D01*
X14698773Y-6002227D01*
X14765227Y-6002227D01*
X14939010Y-5922010D02*
X15032990Y-6015990D01*
X15032990Y-5922010D02*
X14939010Y-6015990D01*
X15019227Y-6002227D02*
X15019227Y-5935773D01*
X14952773Y-5935773D01*
X14952773Y-6002227D01*
X15019227Y-6002227D01*
X15193010Y-5922010D02*
X15286990Y-6015990D01*
X15286990Y-5922010D02*
X15193010Y-6015990D01*
X15273227Y-6002227D02*
X15273227Y-5935773D01*
X15206773Y-5935773D01*
X15206773Y-6002227D01*
X15273227Y-6002227D01*
X11380000Y-6681000D02*
X11480000Y-6781000D01*
X11480000Y-6681000D02*
X11380000Y-6781000D01*
X11430000Y-6781000D02*
X11480000Y-6731000D01*
X11430000Y-6681000D01*
X11380000Y-6731000D01*
X11430000Y-6781000D01*
X11380000Y-6935000D02*
X11480000Y-7035000D01*
X11480000Y-6935000D02*
X11380000Y-7035000D01*
X11430000Y-7035000D02*
X11480000Y-6985000D01*
X11430000Y-6935000D01*
X11380000Y-6985000D01*
X11430000Y-7035000D01*
X16714000Y-7443000D02*
X16814000Y-7543000D01*
X16814000Y-7443000D02*
X16714000Y-7543000D01*
X16764000Y-7543000D02*
X16814000Y-7493000D01*
X16764000Y-7443000D01*
X16714000Y-7493000D01*
X16764000Y-7543000D01*
X16714000Y-7697000D02*
X16814000Y-7797000D01*
X16814000Y-7697000D02*
X16714000Y-7797000D01*
X16764000Y-7797000D02*
X16814000Y-7747000D01*
X16764000Y-7697000D01*
X16714000Y-7747000D01*
X16764000Y-7797000D01*
X16968000Y-7443000D02*
X17068000Y-7543000D01*
X17068000Y-7443000D02*
X16968000Y-7543000D01*
X17018000Y-7543000D02*
X17068000Y-7493000D01*
X17018000Y-7443000D01*
X16968000Y-7493000D01*
X17018000Y-7543000D01*
X16968000Y-7697000D02*
X17068000Y-7797000D01*
X17068000Y-7697000D02*
X16968000Y-7797000D01*
X17018000Y-7797000D02*
X17068000Y-7747000D01*
X17018000Y-7697000D01*
X16968000Y-7747000D01*
X17018000Y-7797000D01*
X17222000Y-7443000D02*
X17322000Y-7543000D01*
X17322000Y-7443000D02*
X17222000Y-7543000D01*
X17272000Y-7543000D02*
X17322000Y-7493000D01*
X17272000Y-7443000D01*
X17222000Y-7493000D01*
X17272000Y-7543000D01*
X17222000Y-7697000D02*
X17322000Y-7797000D01*
X17322000Y-7697000D02*
X17222000Y-7797000D01*
X17272000Y-7797000D02*
X17322000Y-7747000D01*
X17272000Y-7697000D01*
X17222000Y-7747000D01*
X17272000Y-7797000D01*
X12573000Y-8195000D02*
X12573000Y-8315000D01*
X12513000Y-8255000D02*
X12633000Y-8255000D01*
X12633000Y-8255000D02*
G75*
G03*
X12633000Y-8255000I-60000J0D01*
G01*
X13843000Y-8195000D02*
X13843000Y-8315000D01*
X13783000Y-8255000D02*
X13903000Y-8255000D01*
X13903000Y-8255000D02*
G75*
G03*
X13903000Y-8255000I-60000J0D01*
G01*
X16129000Y-8195000D02*
X16129000Y-8315000D01*
X16069000Y-8255000D02*
X16189000Y-8255000D01*
X16189000Y-8255000D02*
G75*
G03*
X16189000Y-8255000I-60000J0D01*
G01*
X16129000Y-8703000D02*
X16129000Y-8823000D01*
X16069000Y-8763000D02*
X16189000Y-8763000D01*
X16189000Y-8763000D02*
G75*
G03*
X16189000Y-8763000I-60000J0D01*
G01*
X16129000Y-9211000D02*
X16129000Y-9331000D01*
X16069000Y-9271000D02*
X16189000Y-9271000D01*
X16189000Y-9271000D02*
G75*
G03*
X16189000Y-9271000I-60000J0D01*
G01*
X16129000Y-9719000D02*
X16129000Y-9839000D01*
X16069000Y-9779000D02*
X16189000Y-9779000D01*
X16189000Y-9779000D02*
G75*
G03*
X16189000Y-9779000I-60000J0D01*
G01*
X16129000Y-10227000D02*
X16129000Y-10347000D01*
X16069000Y-10287000D02*
X16189000Y-10287000D01*
X16189000Y-10287000D02*
G75*
G03*
X16189000Y-10287000I-60000J0D01*
G01*
X17399000Y-8195000D02*
X17399000Y-8315000D01*
X17339000Y-8255000D02*
X17459000Y-8255000D01*
X17459000Y-8255000D02*
G75*
G03*
X17459000Y-8255000I-60000J0D01*
G01*
X17399000Y-8703000D02*
X17399000Y-8823000D01*
X17339000Y-8763000D02*
X17459000Y-8763000D01*
X17459000Y-8763000D02*
G75*
G03*
X17459000Y-8763000I-60000J0D01*
G01*
X17399000Y-9211000D02*
X17399000Y-9331000D01*
X17339000Y-9271000D02*
X17459000Y-9271000D01*
X17459000Y-9271000D02*
G75*
G03*
X17459000Y-9271000I-60000J0D01*
G01*
X17399000Y-9719000D02*
X17399000Y-9839000D01*
X17339000Y-9779000D02*
X17459000Y-9779000D01*
X17459000Y-9779000D02*
G75*
G03*
X17459000Y-9779000I-60000J0D01*
G01*
X17399000Y-10227000D02*
X17399000Y-10347000D01*
X17339000Y-10287000D02*
X17459000Y-10287000D01*
X17459000Y-10287000D02*
G75*
G03*
X17459000Y-10287000I-60000J0D01*
G01*
X11324745Y-5038745D02*
X11324745Y-4791255D01*
X11077255Y-4791255D01*
X11077255Y-5038745D01*
X11324745Y-5038745D01*
X11376000Y-4915000D02*
G75*
G03*
X11376000Y-4915000I-175000J0D01*
G01*
X17724745Y-5038745D02*
X17724745Y-4791255D01*
X17477255Y-4791255D01*
X17477255Y-5038745D01*
X17724745Y-5038745D01*
X17776000Y-4915000D02*
G75*
G03*
X17776000Y-4915000I-175000J0D01*
G01*
X11176000Y-4122000D02*
X11361000Y-3937000D01*
X11176000Y-3752000D01*
X10991000Y-3937000D01*
X11176000Y-4122000D01*
X11361000Y-3937000D02*
G75*
G03*
X11361000Y-3937000I-185000J0D01*
G01*
X11176000Y-12631000D02*
X11361000Y-12446000D01*
X11176000Y-12261000D01*
X10991000Y-12446000D01*
X11176000Y-12631000D01*
X11361000Y-12446000D02*
G75*
G03*
X11361000Y-12446000I-185000J0D01*
G01*
X17526000Y-4122000D02*
X17711000Y-3937000D01*
X17526000Y-3752000D01*
X17341000Y-3937000D01*
X17526000Y-4122000D01*
X17711000Y-3937000D02*
G75*
G03*
X17711000Y-3937000I-185000J0D01*
G01*
X17526000Y-12631000D02*
X17711000Y-12446000D01*
X17526000Y-12261000D01*
X17341000Y-12446000D01*
X17526000Y-12631000D01*
X17711000Y-12446000D02*
G75*
G03*
X17711000Y-12446000I-185000J0D01*
G01*
X12700000Y-11992000D02*
X12700000Y-12392000D01*
X12500000Y-12192000D02*
X12900000Y-12192000D01*
X12841423Y-12333423D02*
X12841423Y-12050577D01*
X12558577Y-12050577D01*
X12558577Y-12333423D01*
X12841423Y-12333423D01*
X14605000Y-11992000D02*
X14605000Y-12392000D01*
X14405000Y-12192000D02*
X14805000Y-12192000D01*
X14746423Y-12333423D02*
X14746423Y-12050577D01*
X14463577Y-12050577D01*
X14463577Y-12333423D01*
X14746423Y-12333423D01*
D12*
X10951928Y-13422214D02*
X10951928Y-13122214D01*
X11023357Y-13122214D01*
X11066214Y-13136500D01*
X11094786Y-13165071D01*
X11109071Y-13193643D01*
X11123357Y-13250786D01*
X11123357Y-13293643D01*
X11109071Y-13350786D01*
X11094786Y-13379357D01*
X11066214Y-13407929D01*
X11023357Y-13422214D01*
X10951928Y-13422214D01*
X11251928Y-13422214D02*
X11251928Y-13222214D01*
X11251928Y-13279357D02*
X11266214Y-13250786D01*
X11280500Y-13236500D01*
X11309071Y-13222214D01*
X11337643Y-13222214D01*
X11437643Y-13422214D02*
X11437643Y-13222214D01*
X11437643Y-13122214D02*
X11423357Y-13136500D01*
X11437643Y-13150786D01*
X11451928Y-13136500D01*
X11437643Y-13122214D01*
X11437643Y-13150786D01*
X11623357Y-13422214D02*
X11594786Y-13407929D01*
X11580500Y-13379357D01*
X11580500Y-13122214D01*
X11780500Y-13422214D02*
X11751928Y-13407929D01*
X11737643Y-13379357D01*
X11737643Y-13122214D01*
X12123357Y-13422214D02*
X12123357Y-13122214D01*
X12223357Y-13336500D01*
X12323357Y-13122214D01*
X12323357Y-13422214D01*
X12594786Y-13422214D02*
X12594786Y-13265071D01*
X12580500Y-13236500D01*
X12551928Y-13222214D01*
X12494786Y-13222214D01*
X12466214Y-13236500D01*
X12594786Y-13407929D02*
X12566214Y-13422214D01*
X12494786Y-13422214D01*
X12466214Y-13407929D01*
X12451928Y-13379357D01*
X12451928Y-13350786D01*
X12466214Y-13322214D01*
X12494786Y-13307929D01*
X12566214Y-13307929D01*
X12594786Y-13293643D01*
X12737643Y-13222214D02*
X12737643Y-13522214D01*
X12737643Y-13236500D02*
X12766214Y-13222214D01*
X12823357Y-13222214D01*
X12851928Y-13236500D01*
X12866214Y-13250786D01*
X12880500Y-13279357D01*
X12880500Y-13365071D01*
X12866214Y-13393643D01*
X12851928Y-13407929D01*
X12823357Y-13422214D01*
X12766214Y-13422214D01*
X12737643Y-13407929D01*
X13009071Y-13393643D02*
X13023357Y-13407929D01*
X13009071Y-13422214D01*
X12994786Y-13407929D01*
X13009071Y-13393643D01*
X13009071Y-13422214D01*
X13009071Y-13236500D02*
X13023357Y-13250786D01*
X13009071Y-13265071D01*
X12994786Y-13250786D01*
X13009071Y-13236500D01*
X13009071Y-13265071D01*
X10625500Y-13896500D02*
X10665500Y-13936500D01*
X10665500Y-13896500D02*
X10625500Y-13936500D01*
X11009071Y-13752214D02*
X11037643Y-13752214D01*
X11066214Y-13766500D01*
X11080500Y-13780786D01*
X11094786Y-13809357D01*
X11109071Y-13866500D01*
X11109071Y-13937929D01*
X11094786Y-13995071D01*
X11080500Y-14023643D01*
X11066214Y-14037929D01*
X11037643Y-14052214D01*
X11009071Y-14052214D01*
X10980500Y-14037929D01*
X10966214Y-14023643D01*
X10951928Y-13995071D01*
X10937643Y-13937929D01*
X10937643Y-13866500D01*
X10951928Y-13809357D01*
X10966214Y-13780786D01*
X10980500Y-13766500D01*
X11009071Y-13752214D01*
X11237643Y-14023643D02*
X11251928Y-14037929D01*
X11237643Y-14052214D01*
X11223357Y-14037929D01*
X11237643Y-14023643D01*
X11237643Y-14052214D01*
X11509071Y-13852214D02*
X11509071Y-14052214D01*
X11437643Y-13737929D02*
X11366214Y-13952214D01*
X11551928Y-13952214D01*
X11723357Y-13752214D02*
X11751928Y-13752214D01*
X11780500Y-13766500D01*
X11794786Y-13780786D01*
X11809071Y-13809357D01*
X11823357Y-13866500D01*
X11823357Y-13937929D01*
X11809071Y-13995071D01*
X11794786Y-14023643D01*
X11780500Y-14037929D01*
X11751928Y-14052214D01*
X11723357Y-14052214D01*
X11694786Y-14037929D01*
X11680500Y-14023643D01*
X11666214Y-13995071D01*
X11651928Y-13937929D01*
X11651928Y-13866500D01*
X11666214Y-13809357D01*
X11680500Y-13780786D01*
X11694786Y-13766500D01*
X11723357Y-13752214D01*
X11951928Y-14052214D02*
X11951928Y-13852214D01*
X11951928Y-13880786D02*
X11966214Y-13866500D01*
X11994786Y-13852214D01*
X12037643Y-13852214D01*
X12066214Y-13866500D01*
X12080500Y-13895071D01*
X12080500Y-14052214D01*
X12080500Y-13895071D02*
X12094786Y-13866500D01*
X12123357Y-13852214D01*
X12166214Y-13852214D01*
X12194786Y-13866500D01*
X12209071Y-13895071D01*
X12209071Y-14052214D01*
X12351928Y-14052214D02*
X12351928Y-13852214D01*
X12351928Y-13880786D02*
X12366214Y-13866500D01*
X12394786Y-13852214D01*
X12437643Y-13852214D01*
X12466214Y-13866500D01*
X12480500Y-13895071D01*
X12480500Y-14052214D01*
X12480500Y-13895071D02*
X12494786Y-13866500D01*
X12523357Y-13852214D01*
X12566214Y-13852214D01*
X12594786Y-13866500D01*
X12609071Y-13895071D01*
X12609071Y-14052214D01*
X13194786Y-13737929D02*
X12937643Y-14123643D01*
X13580500Y-13752214D02*
X13609071Y-13752214D01*
X13637643Y-13766500D01*
X13651928Y-13780786D01*
X13666214Y-13809357D01*
X13680500Y-13866500D01*
X13680500Y-13937929D01*
X13666214Y-13995071D01*
X13651928Y-14023643D01*
X13637643Y-14037929D01*
X13609071Y-14052214D01*
X13580500Y-14052214D01*
X13551928Y-14037929D01*
X13537643Y-14023643D01*
X13523357Y-13995071D01*
X13509071Y-13937929D01*
X13509071Y-13866500D01*
X13523357Y-13809357D01*
X13537643Y-13780786D01*
X13551928Y-13766500D01*
X13580500Y-13752214D01*
X13809071Y-14023643D02*
X13823357Y-14037929D01*
X13809071Y-14052214D01*
X13794786Y-14037929D01*
X13809071Y-14023643D01*
X13809071Y-14052214D01*
X14009071Y-13752214D02*
X14037643Y-13752214D01*
X14066214Y-13766500D01*
X14080500Y-13780786D01*
X14094786Y-13809357D01*
X14109071Y-13866500D01*
X14109071Y-13937929D01*
X14094786Y-13995071D01*
X14080500Y-14023643D01*
X14066214Y-14037929D01*
X14037643Y-14052214D01*
X14009071Y-14052214D01*
X13980500Y-14037929D01*
X13966214Y-14023643D01*
X13951928Y-13995071D01*
X13937643Y-13937929D01*
X13937643Y-13866500D01*
X13951928Y-13809357D01*
X13966214Y-13780786D01*
X13980500Y-13766500D01*
X14009071Y-13752214D01*
X14394786Y-14052214D02*
X14223357Y-14052214D01*
X14309071Y-14052214D02*
X14309071Y-13752214D01*
X14280500Y-13795071D01*
X14251928Y-13823643D01*
X14223357Y-13837929D01*
X14651928Y-13752214D02*
X14594786Y-13752214D01*
X14566214Y-13766500D01*
X14551928Y-13780786D01*
X14523357Y-13823643D01*
X14509071Y-13880786D01*
X14509071Y-13995071D01*
X14523357Y-14023643D01*
X14537643Y-14037929D01*
X14566214Y-14052214D01*
X14623357Y-14052214D01*
X14651928Y-14037929D01*
X14666214Y-14023643D01*
X14680500Y-13995071D01*
X14680500Y-13923643D01*
X14666214Y-13895071D01*
X14651928Y-13880786D01*
X14623357Y-13866500D01*
X14566214Y-13866500D01*
X14537643Y-13880786D01*
X14523357Y-13895071D01*
X14509071Y-13923643D01*
X14794786Y-13752214D02*
X14794786Y-13809357D01*
X14909071Y-13752214D02*
X14909071Y-13809357D01*
X15351928Y-14166500D02*
X15337643Y-14152214D01*
X15309071Y-14109357D01*
X15294786Y-14080786D01*
X15280500Y-14037929D01*
X15266214Y-13966500D01*
X15266214Y-13909357D01*
X15280500Y-13837929D01*
X15294786Y-13795071D01*
X15309071Y-13766500D01*
X15337643Y-13723643D01*
X15351928Y-13709357D01*
X15623357Y-14052214D02*
X15451928Y-14052214D01*
X15537643Y-14052214D02*
X15537643Y-13752214D01*
X15509071Y-13795071D01*
X15480500Y-13823643D01*
X15451928Y-13837929D01*
X15909071Y-14052214D02*
X15737643Y-14052214D01*
X15823357Y-14052214D02*
X15823357Y-13752214D01*
X15794786Y-13795071D01*
X15766214Y-13823643D01*
X15737643Y-13837929D01*
X16266214Y-14052214D02*
X16266214Y-13752214D01*
X16394786Y-14052214D02*
X16394786Y-13895071D01*
X16380500Y-13866500D01*
X16351928Y-13852214D01*
X16309071Y-13852214D01*
X16280500Y-13866500D01*
X16266214Y-13880786D01*
X16580500Y-14052214D02*
X16551928Y-14037929D01*
X16537643Y-14023643D01*
X16523357Y-13995071D01*
X16523357Y-13909357D01*
X16537643Y-13880786D01*
X16551928Y-13866500D01*
X16580500Y-13852214D01*
X16623357Y-13852214D01*
X16651928Y-13866500D01*
X16666214Y-13880786D01*
X16680500Y-13909357D01*
X16680500Y-13995071D01*
X16666214Y-14023643D01*
X16651928Y-14037929D01*
X16623357Y-14052214D01*
X16580500Y-14052214D01*
X16851928Y-14052214D02*
X16823357Y-14037929D01*
X16809071Y-14009357D01*
X16809071Y-13752214D01*
X17080500Y-14037929D02*
X17051928Y-14052214D01*
X16994786Y-14052214D01*
X16966214Y-14037929D01*
X16951928Y-14009357D01*
X16951928Y-13895071D01*
X16966214Y-13866500D01*
X16994786Y-13852214D01*
X17051928Y-13852214D01*
X17080500Y-13866500D01*
X17094786Y-13895071D01*
X17094786Y-13923643D01*
X16951928Y-13952214D01*
X17209071Y-14037929D02*
X17237643Y-14052214D01*
X17294786Y-14052214D01*
X17323357Y-14037929D01*
X17337643Y-14009357D01*
X17337643Y-13995071D01*
X17323357Y-13966500D01*
X17294786Y-13952214D01*
X17251928Y-13952214D01*
X17223357Y-13937929D01*
X17209071Y-13909357D01*
X17209071Y-13895071D01*
X17223357Y-13866500D01*
X17251928Y-13852214D01*
X17294786Y-13852214D01*
X17323357Y-13866500D01*
X17437643Y-14166500D02*
X17451928Y-14152214D01*
X17480500Y-14109357D01*
X17494786Y-14080786D01*
X17509071Y-14037929D01*
X17523357Y-13966500D01*
X17523357Y-13909357D01*
X17509071Y-13837929D01*
X17494786Y-13795071D01*
X17480500Y-13766500D01*
X17451928Y-13723643D01*
X17437643Y-13709357D01*
X10665500Y-14312500D02*
G75*
G03*
X10665500Y-14312500I-30000J0D01*
G01*
X11009071Y-14148214D02*
X11037643Y-14148214D01*
X11066214Y-14162500D01*
X11080500Y-14176786D01*
X11094786Y-14205357D01*
X11109071Y-14262500D01*
X11109071Y-14333929D01*
X11094786Y-14391071D01*
X11080500Y-14419643D01*
X11066214Y-14433929D01*
X11037643Y-14448214D01*
X11009071Y-14448214D01*
X10980500Y-14433929D01*
X10966214Y-14419643D01*
X10951928Y-14391071D01*
X10937643Y-14333929D01*
X10937643Y-14262500D01*
X10951928Y-14205357D01*
X10966214Y-14176786D01*
X10980500Y-14162500D01*
X11009071Y-14148214D01*
X11237643Y-14419643D02*
X11251928Y-14433929D01*
X11237643Y-14448214D01*
X11223357Y-14433929D01*
X11237643Y-14419643D01*
X11237643Y-14448214D01*
X11509071Y-14148214D02*
X11451928Y-14148214D01*
X11423357Y-14162500D01*
X11409071Y-14176786D01*
X11380500Y-14219643D01*
X11366214Y-14276786D01*
X11366214Y-14391071D01*
X11380500Y-14419643D01*
X11394786Y-14433929D01*
X11423357Y-14448214D01*
X11480500Y-14448214D01*
X11509071Y-14433929D01*
X11523357Y-14419643D01*
X11537643Y-14391071D01*
X11537643Y-14319643D01*
X11523357Y-14291071D01*
X11509071Y-14276786D01*
X11480500Y-14262500D01*
X11423357Y-14262500D01*
X11394786Y-14276786D01*
X11380500Y-14291071D01*
X11366214Y-14319643D01*
X11723357Y-14148214D02*
X11751928Y-14148214D01*
X11780500Y-14162500D01*
X11794786Y-14176786D01*
X11809071Y-14205357D01*
X11823357Y-14262500D01*
X11823357Y-14333929D01*
X11809071Y-14391071D01*
X11794786Y-14419643D01*
X11780500Y-14433929D01*
X11751928Y-14448214D01*
X11723357Y-14448214D01*
X11694786Y-14433929D01*
X11680500Y-14419643D01*
X11666214Y-14391071D01*
X11651928Y-14333929D01*
X11651928Y-14262500D01*
X11666214Y-14205357D01*
X11680500Y-14176786D01*
X11694786Y-14162500D01*
X11723357Y-14148214D01*
X11951928Y-14448214D02*
X11951928Y-14248214D01*
X11951928Y-14276786D02*
X11966214Y-14262500D01*
X11994786Y-14248214D01*
X12037643Y-14248214D01*
X12066214Y-14262500D01*
X12080500Y-14291071D01*
X12080500Y-14448214D01*
X12080500Y-14291071D02*
X12094786Y-14262500D01*
X12123357Y-14248214D01*
X12166214Y-14248214D01*
X12194786Y-14262500D01*
X12209071Y-14291071D01*
X12209071Y-14448214D01*
X12351928Y-14448214D02*
X12351928Y-14248214D01*
X12351928Y-14276786D02*
X12366214Y-14262500D01*
X12394786Y-14248214D01*
X12437643Y-14248214D01*
X12466214Y-14262500D01*
X12480500Y-14291071D01*
X12480500Y-14448214D01*
X12480500Y-14291071D02*
X12494786Y-14262500D01*
X12523357Y-14248214D01*
X12566214Y-14248214D01*
X12594786Y-14262500D01*
X12609071Y-14291071D01*
X12609071Y-14448214D01*
X13194786Y-14133929D02*
X12937643Y-14519643D01*
X13580500Y-14148214D02*
X13609071Y-14148214D01*
X13637643Y-14162500D01*
X13651928Y-14176786D01*
X13666214Y-14205357D01*
X13680500Y-14262500D01*
X13680500Y-14333929D01*
X13666214Y-14391071D01*
X13651928Y-14419643D01*
X13637643Y-14433929D01*
X13609071Y-14448214D01*
X13580500Y-14448214D01*
X13551928Y-14433929D01*
X13537643Y-14419643D01*
X13523357Y-14391071D01*
X13509071Y-14333929D01*
X13509071Y-14262500D01*
X13523357Y-14205357D01*
X13537643Y-14176786D01*
X13551928Y-14162500D01*
X13580500Y-14148214D01*
X13809071Y-14419643D02*
X13823357Y-14433929D01*
X13809071Y-14448214D01*
X13794786Y-14433929D01*
X13809071Y-14419643D01*
X13809071Y-14448214D01*
X14009071Y-14148214D02*
X14037643Y-14148214D01*
X14066214Y-14162500D01*
X14080500Y-14176786D01*
X14094786Y-14205357D01*
X14109071Y-14262500D01*
X14109071Y-14333929D01*
X14094786Y-14391071D01*
X14080500Y-14419643D01*
X14066214Y-14433929D01*
X14037643Y-14448214D01*
X14009071Y-14448214D01*
X13980500Y-14433929D01*
X13966214Y-14419643D01*
X13951928Y-14391071D01*
X13937643Y-14333929D01*
X13937643Y-14262500D01*
X13951928Y-14205357D01*
X13966214Y-14176786D01*
X13980500Y-14162500D01*
X14009071Y-14148214D01*
X14223357Y-14176786D02*
X14237643Y-14162500D01*
X14266214Y-14148214D01*
X14337643Y-14148214D01*
X14366214Y-14162500D01*
X14380500Y-14176786D01*
X14394786Y-14205357D01*
X14394786Y-14233929D01*
X14380500Y-14276786D01*
X14209071Y-14448214D01*
X14394786Y-14448214D01*
X14651928Y-14248214D02*
X14651928Y-14448214D01*
X14580500Y-14133929D02*
X14509071Y-14348214D01*
X14694786Y-14348214D01*
X14794786Y-14148214D02*
X14794786Y-14205357D01*
X14909071Y-14148214D02*
X14909071Y-14205357D01*
X15351928Y-14562500D02*
X15337643Y-14548214D01*
X15309071Y-14505357D01*
X15294786Y-14476786D01*
X15280500Y-14433929D01*
X15266214Y-14362500D01*
X15266214Y-14305357D01*
X15280500Y-14233929D01*
X15294786Y-14191071D01*
X15309071Y-14162500D01*
X15337643Y-14119643D01*
X15351928Y-14105357D01*
X15594786Y-14248214D02*
X15594786Y-14448214D01*
X15523357Y-14133929D02*
X15451928Y-14348214D01*
X15637643Y-14348214D01*
X15980500Y-14448214D02*
X15980500Y-14148214D01*
X16109071Y-14448214D02*
X16109071Y-14291071D01*
X16094786Y-14262500D01*
X16066214Y-14248214D01*
X16023357Y-14248214D01*
X15994786Y-14262500D01*
X15980500Y-14276786D01*
X16294786Y-14448214D02*
X16266214Y-14433929D01*
X16251928Y-14419643D01*
X16237643Y-14391071D01*
X16237643Y-14305357D01*
X16251928Y-14276786D01*
X16266214Y-14262500D01*
X16294786Y-14248214D01*
X16337643Y-14248214D01*
X16366214Y-14262500D01*
X16380500Y-14276786D01*
X16394786Y-14305357D01*
X16394786Y-14391071D01*
X16380500Y-14419643D01*
X16366214Y-14433929D01*
X16337643Y-14448214D01*
X16294786Y-14448214D01*
X16566214Y-14448214D02*
X16537643Y-14433929D01*
X16523357Y-14405357D01*
X16523357Y-14148214D01*
X16794786Y-14433929D02*
X16766214Y-14448214D01*
X16709071Y-14448214D01*
X16680500Y-14433929D01*
X16666214Y-14405357D01*
X16666214Y-14291071D01*
X16680500Y-14262500D01*
X16709071Y-14248214D01*
X16766214Y-14248214D01*
X16794786Y-14262500D01*
X16809071Y-14291071D01*
X16809071Y-14319643D01*
X16666214Y-14348214D01*
X16923357Y-14433929D02*
X16951928Y-14448214D01*
X17009071Y-14448214D01*
X17037643Y-14433929D01*
X17051928Y-14405357D01*
X17051928Y-14391071D01*
X17037643Y-14362500D01*
X17009071Y-14348214D01*
X16966214Y-14348214D01*
X16937643Y-14333929D01*
X16923357Y-14305357D01*
X16923357Y-14291071D01*
X16937643Y-14262500D01*
X16966214Y-14248214D01*
X17009071Y-14248214D01*
X17037643Y-14262500D01*
X17151928Y-14562500D02*
X17166214Y-14548214D01*
X17194786Y-14505357D01*
X17209071Y-14476786D01*
X17223357Y-14433929D01*
X17237643Y-14362500D01*
X17237643Y-14305357D01*
X17223357Y-14233929D01*
X17209071Y-14191071D01*
X17194786Y-14162500D01*
X17166214Y-14119643D01*
X17151928Y-14105357D01*
X10633750Y-14676750D02*
X10633750Y-14740250D01*
X10602000Y-14708500D02*
X10665500Y-14708500D01*
X11009071Y-14544214D02*
X11037643Y-14544214D01*
X11066214Y-14558500D01*
X11080500Y-14572786D01*
X11094786Y-14601357D01*
X11109071Y-14658500D01*
X11109071Y-14729929D01*
X11094786Y-14787071D01*
X11080500Y-14815643D01*
X11066214Y-14829929D01*
X11037643Y-14844214D01*
X11009071Y-14844214D01*
X10980500Y-14829929D01*
X10966214Y-14815643D01*
X10951928Y-14787071D01*
X10937643Y-14729929D01*
X10937643Y-14658500D01*
X10951928Y-14601357D01*
X10966214Y-14572786D01*
X10980500Y-14558500D01*
X11009071Y-14544214D01*
X11237643Y-14815643D02*
X11251928Y-14829929D01*
X11237643Y-14844214D01*
X11223357Y-14829929D01*
X11237643Y-14815643D01*
X11237643Y-14844214D01*
X11509071Y-14544214D02*
X11451928Y-14544214D01*
X11423357Y-14558500D01*
X11409071Y-14572786D01*
X11380500Y-14615643D01*
X11366214Y-14672786D01*
X11366214Y-14787071D01*
X11380500Y-14815643D01*
X11394786Y-14829929D01*
X11423357Y-14844214D01*
X11480500Y-14844214D01*
X11509071Y-14829929D01*
X11523357Y-14815643D01*
X11537643Y-14787071D01*
X11537643Y-14715643D01*
X11523357Y-14687071D01*
X11509071Y-14672786D01*
X11480500Y-14658500D01*
X11423357Y-14658500D01*
X11394786Y-14672786D01*
X11380500Y-14687071D01*
X11366214Y-14715643D01*
X11794786Y-14644214D02*
X11794786Y-14844214D01*
X11723357Y-14529929D02*
X11651928Y-14744214D01*
X11837643Y-14744214D01*
X11951928Y-14844214D02*
X11951928Y-14644214D01*
X11951928Y-14672786D02*
X11966214Y-14658500D01*
X11994786Y-14644214D01*
X12037643Y-14644214D01*
X12066214Y-14658500D01*
X12080500Y-14687071D01*
X12080500Y-14844214D01*
X12080500Y-14687071D02*
X12094786Y-14658500D01*
X12123357Y-14644214D01*
X12166214Y-14644214D01*
X12194786Y-14658500D01*
X12209071Y-14687071D01*
X12209071Y-14844214D01*
X12351928Y-14844214D02*
X12351928Y-14644214D01*
X12351928Y-14672786D02*
X12366214Y-14658500D01*
X12394786Y-14644214D01*
X12437643Y-14644214D01*
X12466214Y-14658500D01*
X12480500Y-14687071D01*
X12480500Y-14844214D01*
X12480500Y-14687071D02*
X12494786Y-14658500D01*
X12523357Y-14644214D01*
X12566214Y-14644214D01*
X12594786Y-14658500D01*
X12609071Y-14687071D01*
X12609071Y-14844214D01*
X13194786Y-14529929D02*
X12937643Y-14915643D01*
X13580500Y-14544214D02*
X13609071Y-14544214D01*
X13637643Y-14558500D01*
X13651928Y-14572786D01*
X13666214Y-14601357D01*
X13680500Y-14658500D01*
X13680500Y-14729929D01*
X13666214Y-14787071D01*
X13651928Y-14815643D01*
X13637643Y-14829929D01*
X13609071Y-14844214D01*
X13580500Y-14844214D01*
X13551928Y-14829929D01*
X13537643Y-14815643D01*
X13523357Y-14787071D01*
X13509071Y-14729929D01*
X13509071Y-14658500D01*
X13523357Y-14601357D01*
X13537643Y-14572786D01*
X13551928Y-14558500D01*
X13580500Y-14544214D01*
X13809071Y-14815643D02*
X13823357Y-14829929D01*
X13809071Y-14844214D01*
X13794786Y-14829929D01*
X13809071Y-14815643D01*
X13809071Y-14844214D01*
X14009071Y-14544214D02*
X14037643Y-14544214D01*
X14066214Y-14558500D01*
X14080500Y-14572786D01*
X14094786Y-14601357D01*
X14109071Y-14658500D01*
X14109071Y-14729929D01*
X14094786Y-14787071D01*
X14080500Y-14815643D01*
X14066214Y-14829929D01*
X14037643Y-14844214D01*
X14009071Y-14844214D01*
X13980500Y-14829929D01*
X13966214Y-14815643D01*
X13951928Y-14787071D01*
X13937643Y-14729929D01*
X13937643Y-14658500D01*
X13951928Y-14601357D01*
X13966214Y-14572786D01*
X13980500Y-14558500D01*
X14009071Y-14544214D01*
X14223357Y-14572786D02*
X14237643Y-14558500D01*
X14266214Y-14544214D01*
X14337643Y-14544214D01*
X14366214Y-14558500D01*
X14380500Y-14572786D01*
X14394786Y-14601357D01*
X14394786Y-14629929D01*
X14380500Y-14672786D01*
X14209071Y-14844214D01*
X14394786Y-14844214D01*
X14666214Y-14544214D02*
X14523357Y-14544214D01*
X14509071Y-14687071D01*
X14523357Y-14672786D01*
X14551928Y-14658500D01*
X14623357Y-14658500D01*
X14651928Y-14672786D01*
X14666214Y-14687071D01*
X14680500Y-14715643D01*
X14680500Y-14787071D01*
X14666214Y-14815643D01*
X14651928Y-14829929D01*
X14623357Y-14844214D01*
X14551928Y-14844214D01*
X14523357Y-14829929D01*
X14509071Y-14815643D01*
X14794786Y-14544214D02*
X14794786Y-14601357D01*
X14909071Y-14544214D02*
X14909071Y-14601357D01*
X15351928Y-14958500D02*
X15337643Y-14944214D01*
X15309071Y-14901357D01*
X15294786Y-14872786D01*
X15280500Y-14829929D01*
X15266214Y-14758500D01*
X15266214Y-14701357D01*
X15280500Y-14629929D01*
X15294786Y-14587071D01*
X15309071Y-14558500D01*
X15337643Y-14515643D01*
X15351928Y-14501357D01*
X15623357Y-14844214D02*
X15451928Y-14844214D01*
X15537643Y-14844214D02*
X15537643Y-14544214D01*
X15509071Y-14587071D01*
X15480500Y-14615643D01*
X15451928Y-14629929D01*
X15980500Y-14844214D02*
X15980500Y-14544214D01*
X16109071Y-14844214D02*
X16109071Y-14687071D01*
X16094786Y-14658500D01*
X16066214Y-14644214D01*
X16023357Y-14644214D01*
X15994786Y-14658500D01*
X15980500Y-14672786D01*
X16294786Y-14844214D02*
X16266214Y-14829929D01*
X16251928Y-14815643D01*
X16237643Y-14787071D01*
X16237643Y-14701357D01*
X16251928Y-14672786D01*
X16266214Y-14658500D01*
X16294786Y-14644214D01*
X16337643Y-14644214D01*
X16366214Y-14658500D01*
X16380500Y-14672786D01*
X16394786Y-14701357D01*
X16394786Y-14787071D01*
X16380500Y-14815643D01*
X16366214Y-14829929D01*
X16337643Y-14844214D01*
X16294786Y-14844214D01*
X16566214Y-14844214D02*
X16537643Y-14829929D01*
X16523357Y-14801357D01*
X16523357Y-14544214D01*
X16794786Y-14829929D02*
X16766214Y-14844214D01*
X16709071Y-14844214D01*
X16680500Y-14829929D01*
X16666214Y-14801357D01*
X16666214Y-14687071D01*
X16680500Y-14658500D01*
X16709071Y-14644214D01*
X16766214Y-14644214D01*
X16794786Y-14658500D01*
X16809071Y-14687071D01*
X16809071Y-14715643D01*
X16666214Y-14744214D01*
X16909071Y-14958500D02*
X16923357Y-14944214D01*
X16951928Y-14901357D01*
X16966214Y-14872786D01*
X16980500Y-14829929D01*
X16994786Y-14758500D01*
X16994786Y-14701357D01*
X16980500Y-14629929D01*
X16966214Y-14587071D01*
X16951928Y-14558500D01*
X16923357Y-14515643D01*
X16909071Y-14501357D01*
X10655249Y-15129249D02*
X10655249Y-15079751D01*
X10605751Y-15079751D01*
X10605751Y-15129249D01*
X10655249Y-15129249D01*
X11009071Y-14940214D02*
X11037643Y-14940214D01*
X11066214Y-14954500D01*
X11080500Y-14968786D01*
X11094786Y-14997357D01*
X11109071Y-15054500D01*
X11109071Y-15125929D01*
X11094786Y-15183071D01*
X11080500Y-15211643D01*
X11066214Y-15225929D01*
X11037643Y-15240214D01*
X11009071Y-15240214D01*
X10980500Y-15225929D01*
X10966214Y-15211643D01*
X10951928Y-15183071D01*
X10937643Y-15125929D01*
X10937643Y-15054500D01*
X10951928Y-14997357D01*
X10966214Y-14968786D01*
X10980500Y-14954500D01*
X11009071Y-14940214D01*
X11237643Y-15211643D02*
X11251928Y-15225929D01*
X11237643Y-15240214D01*
X11223357Y-15225929D01*
X11237643Y-15211643D01*
X11237643Y-15240214D01*
X11351928Y-14940214D02*
X11551928Y-14940214D01*
X11423357Y-15240214D01*
X11723357Y-14940214D02*
X11751928Y-14940214D01*
X11780500Y-14954500D01*
X11794786Y-14968786D01*
X11809071Y-14997357D01*
X11823357Y-15054500D01*
X11823357Y-15125929D01*
X11809071Y-15183071D01*
X11794786Y-15211643D01*
X11780500Y-15225929D01*
X11751928Y-15240214D01*
X11723357Y-15240214D01*
X11694786Y-15225929D01*
X11680500Y-15211643D01*
X11666214Y-15183071D01*
X11651928Y-15125929D01*
X11651928Y-15054500D01*
X11666214Y-14997357D01*
X11680500Y-14968786D01*
X11694786Y-14954500D01*
X11723357Y-14940214D01*
X11951928Y-15240214D02*
X11951928Y-15040214D01*
X11951928Y-15068786D02*
X11966214Y-15054500D01*
X11994786Y-15040214D01*
X12037643Y-15040214D01*
X12066214Y-15054500D01*
X12080500Y-15083071D01*
X12080500Y-15240214D01*
X12080500Y-15083071D02*
X12094786Y-15054500D01*
X12123357Y-15040214D01*
X12166214Y-15040214D01*
X12194786Y-15054500D01*
X12209071Y-15083071D01*
X12209071Y-15240214D01*
X12351928Y-15240214D02*
X12351928Y-15040214D01*
X12351928Y-15068786D02*
X12366214Y-15054500D01*
X12394786Y-15040214D01*
X12437643Y-15040214D01*
X12466214Y-15054500D01*
X12480500Y-15083071D01*
X12480500Y-15240214D01*
X12480500Y-15083071D02*
X12494786Y-15054500D01*
X12523357Y-15040214D01*
X12566214Y-15040214D01*
X12594786Y-15054500D01*
X12609071Y-15083071D01*
X12609071Y-15240214D01*
X13194786Y-14925929D02*
X12937643Y-15311643D01*
X13580500Y-14940214D02*
X13609071Y-14940214D01*
X13637643Y-14954500D01*
X13651928Y-14968786D01*
X13666214Y-14997357D01*
X13680500Y-15054500D01*
X13680500Y-15125929D01*
X13666214Y-15183071D01*
X13651928Y-15211643D01*
X13637643Y-15225929D01*
X13609071Y-15240214D01*
X13580500Y-15240214D01*
X13551928Y-15225929D01*
X13537643Y-15211643D01*
X13523357Y-15183071D01*
X13509071Y-15125929D01*
X13509071Y-15054500D01*
X13523357Y-14997357D01*
X13537643Y-14968786D01*
X13551928Y-14954500D01*
X13580500Y-14940214D01*
X13809071Y-15211643D02*
X13823357Y-15225929D01*
X13809071Y-15240214D01*
X13794786Y-15225929D01*
X13809071Y-15211643D01*
X13809071Y-15240214D01*
X14009071Y-14940214D02*
X14037643Y-14940214D01*
X14066214Y-14954500D01*
X14080500Y-14968786D01*
X14094786Y-14997357D01*
X14109071Y-15054500D01*
X14109071Y-15125929D01*
X14094786Y-15183071D01*
X14080500Y-15211643D01*
X14066214Y-15225929D01*
X14037643Y-15240214D01*
X14009071Y-15240214D01*
X13980500Y-15225929D01*
X13966214Y-15211643D01*
X13951928Y-15183071D01*
X13937643Y-15125929D01*
X13937643Y-15054500D01*
X13951928Y-14997357D01*
X13966214Y-14968786D01*
X13980500Y-14954500D01*
X14009071Y-14940214D01*
X14223357Y-14968786D02*
X14237643Y-14954500D01*
X14266214Y-14940214D01*
X14337643Y-14940214D01*
X14366214Y-14954500D01*
X14380500Y-14968786D01*
X14394786Y-14997357D01*
X14394786Y-15025929D01*
X14380500Y-15068786D01*
X14209071Y-15240214D01*
X14394786Y-15240214D01*
X14566214Y-15068786D02*
X14537643Y-15054500D01*
X14523357Y-15040214D01*
X14509071Y-15011643D01*
X14509071Y-14997357D01*
X14523357Y-14968786D01*
X14537643Y-14954500D01*
X14566214Y-14940214D01*
X14623357Y-14940214D01*
X14651928Y-14954500D01*
X14666214Y-14968786D01*
X14680500Y-14997357D01*
X14680500Y-15011643D01*
X14666214Y-15040214D01*
X14651928Y-15054500D01*
X14623357Y-15068786D01*
X14566214Y-15068786D01*
X14537643Y-15083071D01*
X14523357Y-15097357D01*
X14509071Y-15125929D01*
X14509071Y-15183071D01*
X14523357Y-15211643D01*
X14537643Y-15225929D01*
X14566214Y-15240214D01*
X14623357Y-15240214D01*
X14651928Y-15225929D01*
X14666214Y-15211643D01*
X14680500Y-15183071D01*
X14680500Y-15125929D01*
X14666214Y-15097357D01*
X14651928Y-15083071D01*
X14623357Y-15068786D01*
X14794786Y-14940214D02*
X14794786Y-14997357D01*
X14909071Y-14940214D02*
X14909071Y-14997357D01*
X15351928Y-15354500D02*
X15337643Y-15340214D01*
X15309071Y-15297357D01*
X15294786Y-15268786D01*
X15280500Y-15225929D01*
X15266214Y-15154500D01*
X15266214Y-15097357D01*
X15280500Y-15025929D01*
X15294786Y-14983071D01*
X15309071Y-14954500D01*
X15337643Y-14911643D01*
X15351928Y-14897357D01*
X15451928Y-14968786D02*
X15466214Y-14954500D01*
X15494786Y-14940214D01*
X15566214Y-14940214D01*
X15594786Y-14954500D01*
X15609071Y-14968786D01*
X15623357Y-14997357D01*
X15623357Y-15025929D01*
X15609071Y-15068786D01*
X15437643Y-15240214D01*
X15623357Y-15240214D01*
X15880500Y-15040214D02*
X15880500Y-15240214D01*
X15809071Y-14925929D02*
X15737643Y-15140214D01*
X15923357Y-15140214D01*
X16266214Y-15240214D02*
X16266214Y-14940214D01*
X16394786Y-15240214D02*
X16394786Y-15083071D01*
X16380500Y-15054500D01*
X16351928Y-15040214D01*
X16309071Y-15040214D01*
X16280500Y-15054500D01*
X16266214Y-15068786D01*
X16580500Y-15240214D02*
X16551928Y-15225929D01*
X16537643Y-15211643D01*
X16523357Y-15183071D01*
X16523357Y-15097357D01*
X16537643Y-15068786D01*
X16551928Y-15054500D01*
X16580500Y-15040214D01*
X16623357Y-15040214D01*
X16651928Y-15054500D01*
X16666214Y-15068786D01*
X16680500Y-15097357D01*
X16680500Y-15183071D01*
X16666214Y-15211643D01*
X16651928Y-15225929D01*
X16623357Y-15240214D01*
X16580500Y-15240214D01*
X16851928Y-15240214D02*
X16823357Y-15225929D01*
X16809071Y-15197357D01*
X16809071Y-14940214D01*
X17080500Y-15225929D02*
X17051928Y-15240214D01*
X16994786Y-15240214D01*
X16966214Y-15225929D01*
X16951928Y-15197357D01*
X16951928Y-15083071D01*
X16966214Y-15054500D01*
X16994786Y-15040214D01*
X17051928Y-15040214D01*
X17080500Y-15054500D01*
X17094786Y-15083071D01*
X17094786Y-15111643D01*
X16951928Y-15140214D01*
X17209071Y-15225929D02*
X17237643Y-15240214D01*
X17294786Y-15240214D01*
X17323357Y-15225929D01*
X17337643Y-15197357D01*
X17337643Y-15183071D01*
X17323357Y-15154500D01*
X17294786Y-15140214D01*
X17251928Y-15140214D01*
X17223357Y-15125929D01*
X17209071Y-15097357D01*
X17209071Y-15083071D01*
X17223357Y-15054500D01*
X17251928Y-15040214D01*
X17294786Y-15040214D01*
X17323357Y-15054500D01*
X17437643Y-15354500D02*
X17451928Y-15340214D01*
X17480500Y-15297357D01*
X17494786Y-15268786D01*
X17509071Y-15225929D01*
X17523357Y-15154500D01*
X17523357Y-15097357D01*
X17509071Y-15025929D01*
X17494786Y-14983071D01*
X17480500Y-14954500D01*
X17451928Y-14911643D01*
X17437643Y-14897357D01*
X10628000Y-15538000D02*
X10665500Y-15500500D01*
X10628000Y-15463000D01*
X10590500Y-15500500D01*
X10628000Y-15538000D01*
X11009071Y-15336214D02*
X11037643Y-15336214D01*
X11066214Y-15350500D01*
X11080500Y-15364786D01*
X11094786Y-15393357D01*
X11109071Y-15450500D01*
X11109071Y-15521929D01*
X11094786Y-15579071D01*
X11080500Y-15607643D01*
X11066214Y-15621929D01*
X11037643Y-15636214D01*
X11009071Y-15636214D01*
X10980500Y-15621929D01*
X10966214Y-15607643D01*
X10951928Y-15579071D01*
X10937643Y-15521929D01*
X10937643Y-15450500D01*
X10951928Y-15393357D01*
X10966214Y-15364786D01*
X10980500Y-15350500D01*
X11009071Y-15336214D01*
X11237643Y-15607643D02*
X11251928Y-15621929D01*
X11237643Y-15636214D01*
X11223357Y-15621929D01*
X11237643Y-15607643D01*
X11237643Y-15636214D01*
X11351928Y-15336214D02*
X11551928Y-15336214D01*
X11423357Y-15636214D01*
X11809071Y-15336214D02*
X11666214Y-15336214D01*
X11651928Y-15479071D01*
X11666214Y-15464786D01*
X11694786Y-15450500D01*
X11766214Y-15450500D01*
X11794786Y-15464786D01*
X11809071Y-15479071D01*
X11823357Y-15507643D01*
X11823357Y-15579071D01*
X11809071Y-15607643D01*
X11794786Y-15621929D01*
X11766214Y-15636214D01*
X11694786Y-15636214D01*
X11666214Y-15621929D01*
X11651928Y-15607643D01*
X11951928Y-15636214D02*
X11951928Y-15436214D01*
X11951928Y-15464786D02*
X11966214Y-15450500D01*
X11994786Y-15436214D01*
X12037643Y-15436214D01*
X12066214Y-15450500D01*
X12080500Y-15479071D01*
X12080500Y-15636214D01*
X12080500Y-15479071D02*
X12094786Y-15450500D01*
X12123357Y-15436214D01*
X12166214Y-15436214D01*
X12194786Y-15450500D01*
X12209071Y-15479071D01*
X12209071Y-15636214D01*
X12351928Y-15636214D02*
X12351928Y-15436214D01*
X12351928Y-15464786D02*
X12366214Y-15450500D01*
X12394786Y-15436214D01*
X12437643Y-15436214D01*
X12466214Y-15450500D01*
X12480500Y-15479071D01*
X12480500Y-15636214D01*
X12480500Y-15479071D02*
X12494786Y-15450500D01*
X12523357Y-15436214D01*
X12566214Y-15436214D01*
X12594786Y-15450500D01*
X12609071Y-15479071D01*
X12609071Y-15636214D01*
X13194786Y-15321929D02*
X12937643Y-15707643D01*
X13580500Y-15336214D02*
X13609071Y-15336214D01*
X13637643Y-15350500D01*
X13651928Y-15364786D01*
X13666214Y-15393357D01*
X13680500Y-15450500D01*
X13680500Y-15521929D01*
X13666214Y-15579071D01*
X13651928Y-15607643D01*
X13637643Y-15621929D01*
X13609071Y-15636214D01*
X13580500Y-15636214D01*
X13551928Y-15621929D01*
X13537643Y-15607643D01*
X13523357Y-15579071D01*
X13509071Y-15521929D01*
X13509071Y-15450500D01*
X13523357Y-15393357D01*
X13537643Y-15364786D01*
X13551928Y-15350500D01*
X13580500Y-15336214D01*
X13809071Y-15607643D02*
X13823357Y-15621929D01*
X13809071Y-15636214D01*
X13794786Y-15621929D01*
X13809071Y-15607643D01*
X13809071Y-15636214D01*
X14009071Y-15336214D02*
X14037643Y-15336214D01*
X14066214Y-15350500D01*
X14080500Y-15364786D01*
X14094786Y-15393357D01*
X14109071Y-15450500D01*
X14109071Y-15521929D01*
X14094786Y-15579071D01*
X14080500Y-15607643D01*
X14066214Y-15621929D01*
X14037643Y-15636214D01*
X14009071Y-15636214D01*
X13980500Y-15621929D01*
X13966214Y-15607643D01*
X13951928Y-15579071D01*
X13937643Y-15521929D01*
X13937643Y-15450500D01*
X13951928Y-15393357D01*
X13966214Y-15364786D01*
X13980500Y-15350500D01*
X14009071Y-15336214D01*
X14209071Y-15336214D02*
X14394786Y-15336214D01*
X14294786Y-15450500D01*
X14337643Y-15450500D01*
X14366214Y-15464786D01*
X14380500Y-15479071D01*
X14394786Y-15507643D01*
X14394786Y-15579071D01*
X14380500Y-15607643D01*
X14366214Y-15621929D01*
X14337643Y-15636214D01*
X14251928Y-15636214D01*
X14223357Y-15621929D01*
X14209071Y-15607643D01*
X14580500Y-15336214D02*
X14609071Y-15336214D01*
X14637643Y-15350500D01*
X14651928Y-15364786D01*
X14666214Y-15393357D01*
X14680500Y-15450500D01*
X14680500Y-15521929D01*
X14666214Y-15579071D01*
X14651928Y-15607643D01*
X14637643Y-15621929D01*
X14609071Y-15636214D01*
X14580500Y-15636214D01*
X14551928Y-15621929D01*
X14537643Y-15607643D01*
X14523357Y-15579071D01*
X14509071Y-15521929D01*
X14509071Y-15450500D01*
X14523357Y-15393357D01*
X14537643Y-15364786D01*
X14551928Y-15350500D01*
X14580500Y-15336214D01*
X14794786Y-15336214D02*
X14794786Y-15393357D01*
X14909071Y-15336214D02*
X14909071Y-15393357D01*
X15351928Y-15750500D02*
X15337643Y-15736214D01*
X15309071Y-15693357D01*
X15294786Y-15664786D01*
X15280500Y-15621929D01*
X15266214Y-15550500D01*
X15266214Y-15493357D01*
X15280500Y-15421929D01*
X15294786Y-15379071D01*
X15309071Y-15350500D01*
X15337643Y-15307643D01*
X15351928Y-15293357D01*
X15437643Y-15336214D02*
X15623357Y-15336214D01*
X15523357Y-15450500D01*
X15566214Y-15450500D01*
X15594786Y-15464786D01*
X15609071Y-15479071D01*
X15623357Y-15507643D01*
X15623357Y-15579071D01*
X15609071Y-15607643D01*
X15594786Y-15621929D01*
X15566214Y-15636214D01*
X15480500Y-15636214D01*
X15451928Y-15621929D01*
X15437643Y-15607643D01*
X15980500Y-15636214D02*
X15980500Y-15336214D01*
X16109071Y-15636214D02*
X16109071Y-15479071D01*
X16094786Y-15450500D01*
X16066214Y-15436214D01*
X16023357Y-15436214D01*
X15994786Y-15450500D01*
X15980500Y-15464786D01*
X16294786Y-15636214D02*
X16266214Y-15621929D01*
X16251928Y-15607643D01*
X16237643Y-15579071D01*
X16237643Y-15493357D01*
X16251928Y-15464786D01*
X16266214Y-15450500D01*
X16294786Y-15436214D01*
X16337643Y-15436214D01*
X16366214Y-15450500D01*
X16380500Y-15464786D01*
X16394786Y-15493357D01*
X16394786Y-15579071D01*
X16380500Y-15607643D01*
X16366214Y-15621929D01*
X16337643Y-15636214D01*
X16294786Y-15636214D01*
X16566214Y-15636214D02*
X16537643Y-15621929D01*
X16523357Y-15593357D01*
X16523357Y-15336214D01*
X16794786Y-15621929D02*
X16766214Y-15636214D01*
X16709071Y-15636214D01*
X16680500Y-15621929D01*
X16666214Y-15593357D01*
X16666214Y-15479071D01*
X16680500Y-15450500D01*
X16709071Y-15436214D01*
X16766214Y-15436214D01*
X16794786Y-15450500D01*
X16809071Y-15479071D01*
X16809071Y-15507643D01*
X16666214Y-15536214D01*
X16923357Y-15621929D02*
X16951928Y-15636214D01*
X17009071Y-15636214D01*
X17037643Y-15621929D01*
X17051928Y-15593357D01*
X17051928Y-15579071D01*
X17037643Y-15550500D01*
X17009071Y-15536214D01*
X16966214Y-15536214D01*
X16937643Y-15521929D01*
X16923357Y-15493357D01*
X16923357Y-15479071D01*
X16937643Y-15450500D01*
X16966214Y-15436214D01*
X17009071Y-15436214D01*
X17037643Y-15450500D01*
X17151928Y-15750500D02*
X17166214Y-15736214D01*
X17194786Y-15693357D01*
X17209071Y-15664786D01*
X17223357Y-15621929D01*
X17237643Y-15550500D01*
X17237643Y-15493357D01*
X17223357Y-15421929D01*
X17209071Y-15379071D01*
X17194786Y-15350500D01*
X17166214Y-15307643D01*
X17151928Y-15293357D01*
X10585500Y-15856500D02*
X10665500Y-15936500D01*
X10665500Y-15856500D02*
X10585500Y-15936500D01*
X10665500Y-15896500D02*
G75*
G03*
X10665500Y-15896500I-40000J0D01*
G01*
X11009071Y-15732214D02*
X11037643Y-15732214D01*
X11066214Y-15746500D01*
X11080500Y-15760786D01*
X11094786Y-15789357D01*
X11109071Y-15846500D01*
X11109071Y-15917929D01*
X11094786Y-15975071D01*
X11080500Y-16003643D01*
X11066214Y-16017929D01*
X11037643Y-16032214D01*
X11009071Y-16032214D01*
X10980500Y-16017929D01*
X10966214Y-16003643D01*
X10951928Y-15975071D01*
X10937643Y-15917929D01*
X10937643Y-15846500D01*
X10951928Y-15789357D01*
X10966214Y-15760786D01*
X10980500Y-15746500D01*
X11009071Y-15732214D01*
X11237643Y-16003643D02*
X11251928Y-16017929D01*
X11237643Y-16032214D01*
X11223357Y-16017929D01*
X11237643Y-16003643D01*
X11237643Y-16032214D01*
X11423357Y-15860786D02*
X11394786Y-15846500D01*
X11380500Y-15832214D01*
X11366214Y-15803643D01*
X11366214Y-15789357D01*
X11380500Y-15760786D01*
X11394786Y-15746500D01*
X11423357Y-15732214D01*
X11480500Y-15732214D01*
X11509071Y-15746500D01*
X11523357Y-15760786D01*
X11537643Y-15789357D01*
X11537643Y-15803643D01*
X11523357Y-15832214D01*
X11509071Y-15846500D01*
X11480500Y-15860786D01*
X11423357Y-15860786D01*
X11394786Y-15875071D01*
X11380500Y-15889357D01*
X11366214Y-15917929D01*
X11366214Y-15975071D01*
X11380500Y-16003643D01*
X11394786Y-16017929D01*
X11423357Y-16032214D01*
X11480500Y-16032214D01*
X11509071Y-16017929D01*
X11523357Y-16003643D01*
X11537643Y-15975071D01*
X11537643Y-15917929D01*
X11523357Y-15889357D01*
X11509071Y-15875071D01*
X11480500Y-15860786D01*
X11723357Y-15732214D02*
X11751928Y-15732214D01*
X11780500Y-15746500D01*
X11794786Y-15760786D01*
X11809071Y-15789357D01*
X11823357Y-15846500D01*
X11823357Y-15917929D01*
X11809071Y-15975071D01*
X11794786Y-16003643D01*
X11780500Y-16017929D01*
X11751928Y-16032214D01*
X11723357Y-16032214D01*
X11694786Y-16017929D01*
X11680500Y-16003643D01*
X11666214Y-15975071D01*
X11651928Y-15917929D01*
X11651928Y-15846500D01*
X11666214Y-15789357D01*
X11680500Y-15760786D01*
X11694786Y-15746500D01*
X11723357Y-15732214D01*
X11951928Y-16032214D02*
X11951928Y-15832214D01*
X11951928Y-15860786D02*
X11966214Y-15846500D01*
X11994786Y-15832214D01*
X12037643Y-15832214D01*
X12066214Y-15846500D01*
X12080500Y-15875071D01*
X12080500Y-16032214D01*
X12080500Y-15875071D02*
X12094786Y-15846500D01*
X12123357Y-15832214D01*
X12166214Y-15832214D01*
X12194786Y-15846500D01*
X12209071Y-15875071D01*
X12209071Y-16032214D01*
X12351928Y-16032214D02*
X12351928Y-15832214D01*
X12351928Y-15860786D02*
X12366214Y-15846500D01*
X12394786Y-15832214D01*
X12437643Y-15832214D01*
X12466214Y-15846500D01*
X12480500Y-15875071D01*
X12480500Y-16032214D01*
X12480500Y-15875071D02*
X12494786Y-15846500D01*
X12523357Y-15832214D01*
X12566214Y-15832214D01*
X12594786Y-15846500D01*
X12609071Y-15875071D01*
X12609071Y-16032214D01*
X13194786Y-15717929D02*
X12937643Y-16103643D01*
X13580500Y-15732214D02*
X13609071Y-15732214D01*
X13637643Y-15746500D01*
X13651928Y-15760786D01*
X13666214Y-15789357D01*
X13680500Y-15846500D01*
X13680500Y-15917929D01*
X13666214Y-15975071D01*
X13651928Y-16003643D01*
X13637643Y-16017929D01*
X13609071Y-16032214D01*
X13580500Y-16032214D01*
X13551928Y-16017929D01*
X13537643Y-16003643D01*
X13523357Y-15975071D01*
X13509071Y-15917929D01*
X13509071Y-15846500D01*
X13523357Y-15789357D01*
X13537643Y-15760786D01*
X13551928Y-15746500D01*
X13580500Y-15732214D01*
X13809071Y-16003643D02*
X13823357Y-16017929D01*
X13809071Y-16032214D01*
X13794786Y-16017929D01*
X13809071Y-16003643D01*
X13809071Y-16032214D01*
X14009071Y-15732214D02*
X14037643Y-15732214D01*
X14066214Y-15746500D01*
X14080500Y-15760786D01*
X14094786Y-15789357D01*
X14109071Y-15846500D01*
X14109071Y-15917929D01*
X14094786Y-15975071D01*
X14080500Y-16003643D01*
X14066214Y-16017929D01*
X14037643Y-16032214D01*
X14009071Y-16032214D01*
X13980500Y-16017929D01*
X13966214Y-16003643D01*
X13951928Y-15975071D01*
X13937643Y-15917929D01*
X13937643Y-15846500D01*
X13951928Y-15789357D01*
X13966214Y-15760786D01*
X13980500Y-15746500D01*
X14009071Y-15732214D01*
X14209071Y-15732214D02*
X14394786Y-15732214D01*
X14294786Y-15846500D01*
X14337643Y-15846500D01*
X14366214Y-15860786D01*
X14380500Y-15875071D01*
X14394786Y-15903643D01*
X14394786Y-15975071D01*
X14380500Y-16003643D01*
X14366214Y-16017929D01*
X14337643Y-16032214D01*
X14251928Y-16032214D01*
X14223357Y-16017929D01*
X14209071Y-16003643D01*
X14680500Y-16032214D02*
X14509071Y-16032214D01*
X14594786Y-16032214D02*
X14594786Y-15732214D01*
X14566214Y-15775071D01*
X14537643Y-15803643D01*
X14509071Y-15817929D01*
X14794786Y-15732214D02*
X14794786Y-15789357D01*
X14909071Y-15732214D02*
X14909071Y-15789357D01*
X15351928Y-16146500D02*
X15337643Y-16132214D01*
X15309071Y-16089357D01*
X15294786Y-16060786D01*
X15280500Y-16017929D01*
X15266214Y-15946500D01*
X15266214Y-15889357D01*
X15280500Y-15817929D01*
X15294786Y-15775071D01*
X15309071Y-15746500D01*
X15337643Y-15703643D01*
X15351928Y-15689357D01*
X15437643Y-15732214D02*
X15637643Y-15732214D01*
X15509071Y-16032214D01*
X15809071Y-15732214D02*
X15837643Y-15732214D01*
X15866214Y-15746500D01*
X15880500Y-15760786D01*
X15894786Y-15789357D01*
X15909071Y-15846500D01*
X15909071Y-15917929D01*
X15894786Y-15975071D01*
X15880500Y-16003643D01*
X15866214Y-16017929D01*
X15837643Y-16032214D01*
X15809071Y-16032214D01*
X15780500Y-16017929D01*
X15766214Y-16003643D01*
X15751928Y-15975071D01*
X15737643Y-15917929D01*
X15737643Y-15846500D01*
X15751928Y-15789357D01*
X15766214Y-15760786D01*
X15780500Y-15746500D01*
X15809071Y-15732214D01*
X16266214Y-16032214D02*
X16266214Y-15732214D01*
X16394786Y-16032214D02*
X16394786Y-15875071D01*
X16380500Y-15846500D01*
X16351928Y-15832214D01*
X16309071Y-15832214D01*
X16280500Y-15846500D01*
X16266214Y-15860786D01*
X16580500Y-16032214D02*
X16551928Y-16017929D01*
X16537643Y-16003643D01*
X16523357Y-15975071D01*
X16523357Y-15889357D01*
X16537643Y-15860786D01*
X16551928Y-15846500D01*
X16580500Y-15832214D01*
X16623357Y-15832214D01*
X16651928Y-15846500D01*
X16666214Y-15860786D01*
X16680500Y-15889357D01*
X16680500Y-15975071D01*
X16666214Y-16003643D01*
X16651928Y-16017929D01*
X16623357Y-16032214D01*
X16580500Y-16032214D01*
X16851928Y-16032214D02*
X16823357Y-16017929D01*
X16809071Y-15989357D01*
X16809071Y-15732214D01*
X17080500Y-16017929D02*
X17051928Y-16032214D01*
X16994786Y-16032214D01*
X16966214Y-16017929D01*
X16951928Y-15989357D01*
X16951928Y-15875071D01*
X16966214Y-15846500D01*
X16994786Y-15832214D01*
X17051928Y-15832214D01*
X17080500Y-15846500D01*
X17094786Y-15875071D01*
X17094786Y-15903643D01*
X16951928Y-15932214D01*
X17209071Y-16017929D02*
X17237643Y-16032214D01*
X17294786Y-16032214D01*
X17323357Y-16017929D01*
X17337643Y-15989357D01*
X17337643Y-15975071D01*
X17323357Y-15946500D01*
X17294786Y-15932214D01*
X17251928Y-15932214D01*
X17223357Y-15917929D01*
X17209071Y-15889357D01*
X17209071Y-15875071D01*
X17223357Y-15846500D01*
X17251928Y-15832214D01*
X17294786Y-15832214D01*
X17323357Y-15846500D01*
X17437643Y-16146500D02*
X17451928Y-16132214D01*
X17480500Y-16089357D01*
X17494786Y-16060786D01*
X17509071Y-16017929D01*
X17523357Y-15946500D01*
X17523357Y-15889357D01*
X17509071Y-15817929D01*
X17494786Y-15775071D01*
X17480500Y-15746500D01*
X17451928Y-15703643D01*
X17437643Y-15689357D01*
X10575500Y-16247500D02*
X10665500Y-16337500D01*
X10665500Y-16247500D02*
X10575500Y-16337500D01*
X10620500Y-16247500D02*
X10620500Y-16337500D01*
X10575500Y-16292500D02*
X10665500Y-16292500D01*
X11009071Y-16128214D02*
X11037643Y-16128214D01*
X11066214Y-16142500D01*
X11080500Y-16156786D01*
X11094786Y-16185357D01*
X11109071Y-16242500D01*
X11109071Y-16313929D01*
X11094786Y-16371071D01*
X11080500Y-16399643D01*
X11066214Y-16413929D01*
X11037643Y-16428214D01*
X11009071Y-16428214D01*
X10980500Y-16413929D01*
X10966214Y-16399643D01*
X10951928Y-16371071D01*
X10937643Y-16313929D01*
X10937643Y-16242500D01*
X10951928Y-16185357D01*
X10966214Y-16156786D01*
X10980500Y-16142500D01*
X11009071Y-16128214D01*
X11237643Y-16399643D02*
X11251928Y-16413929D01*
X11237643Y-16428214D01*
X11223357Y-16413929D01*
X11237643Y-16399643D01*
X11237643Y-16428214D01*
X11394786Y-16428214D02*
X11451928Y-16428214D01*
X11480500Y-16413929D01*
X11494786Y-16399643D01*
X11523357Y-16356786D01*
X11537643Y-16299643D01*
X11537643Y-16185357D01*
X11523357Y-16156786D01*
X11509071Y-16142500D01*
X11480500Y-16128214D01*
X11423357Y-16128214D01*
X11394786Y-16142500D01*
X11380500Y-16156786D01*
X11366214Y-16185357D01*
X11366214Y-16256786D01*
X11380500Y-16285357D01*
X11394786Y-16299643D01*
X11423357Y-16313929D01*
X11480500Y-16313929D01*
X11509071Y-16299643D01*
X11523357Y-16285357D01*
X11537643Y-16256786D01*
X11723357Y-16128214D02*
X11751928Y-16128214D01*
X11780500Y-16142500D01*
X11794786Y-16156786D01*
X11809071Y-16185357D01*
X11823357Y-16242500D01*
X11823357Y-16313929D01*
X11809071Y-16371071D01*
X11794786Y-16399643D01*
X11780500Y-16413929D01*
X11751928Y-16428214D01*
X11723357Y-16428214D01*
X11694786Y-16413929D01*
X11680500Y-16399643D01*
X11666214Y-16371071D01*
X11651928Y-16313929D01*
X11651928Y-16242500D01*
X11666214Y-16185357D01*
X11680500Y-16156786D01*
X11694786Y-16142500D01*
X11723357Y-16128214D01*
X11951928Y-16428214D02*
X11951928Y-16228214D01*
X11951928Y-16256786D02*
X11966214Y-16242500D01*
X11994786Y-16228214D01*
X12037643Y-16228214D01*
X12066214Y-16242500D01*
X12080500Y-16271071D01*
X12080500Y-16428214D01*
X12080500Y-16271071D02*
X12094786Y-16242500D01*
X12123357Y-16228214D01*
X12166214Y-16228214D01*
X12194786Y-16242500D01*
X12209071Y-16271071D01*
X12209071Y-16428214D01*
X12351928Y-16428214D02*
X12351928Y-16228214D01*
X12351928Y-16256786D02*
X12366214Y-16242500D01*
X12394786Y-16228214D01*
X12437643Y-16228214D01*
X12466214Y-16242500D01*
X12480500Y-16271071D01*
X12480500Y-16428214D01*
X12480500Y-16271071D02*
X12494786Y-16242500D01*
X12523357Y-16228214D01*
X12566214Y-16228214D01*
X12594786Y-16242500D01*
X12609071Y-16271071D01*
X12609071Y-16428214D01*
X13194786Y-16113929D02*
X12937643Y-16499643D01*
X13580500Y-16128214D02*
X13609071Y-16128214D01*
X13637643Y-16142500D01*
X13651928Y-16156786D01*
X13666214Y-16185357D01*
X13680500Y-16242500D01*
X13680500Y-16313929D01*
X13666214Y-16371071D01*
X13651928Y-16399643D01*
X13637643Y-16413929D01*
X13609071Y-16428214D01*
X13580500Y-16428214D01*
X13551928Y-16413929D01*
X13537643Y-16399643D01*
X13523357Y-16371071D01*
X13509071Y-16313929D01*
X13509071Y-16242500D01*
X13523357Y-16185357D01*
X13537643Y-16156786D01*
X13551928Y-16142500D01*
X13580500Y-16128214D01*
X13809071Y-16399643D02*
X13823357Y-16413929D01*
X13809071Y-16428214D01*
X13794786Y-16413929D01*
X13809071Y-16399643D01*
X13809071Y-16428214D01*
X14009071Y-16128214D02*
X14037643Y-16128214D01*
X14066214Y-16142500D01*
X14080500Y-16156786D01*
X14094786Y-16185357D01*
X14109071Y-16242500D01*
X14109071Y-16313929D01*
X14094786Y-16371071D01*
X14080500Y-16399643D01*
X14066214Y-16413929D01*
X14037643Y-16428214D01*
X14009071Y-16428214D01*
X13980500Y-16413929D01*
X13966214Y-16399643D01*
X13951928Y-16371071D01*
X13937643Y-16313929D01*
X13937643Y-16242500D01*
X13951928Y-16185357D01*
X13966214Y-16156786D01*
X13980500Y-16142500D01*
X14009071Y-16128214D01*
X14209071Y-16128214D02*
X14394786Y-16128214D01*
X14294786Y-16242500D01*
X14337643Y-16242500D01*
X14366214Y-16256786D01*
X14380500Y-16271071D01*
X14394786Y-16299643D01*
X14394786Y-16371071D01*
X14380500Y-16399643D01*
X14366214Y-16413929D01*
X14337643Y-16428214D01*
X14251928Y-16428214D01*
X14223357Y-16413929D01*
X14209071Y-16399643D01*
X14666214Y-16128214D02*
X14523357Y-16128214D01*
X14509071Y-16271071D01*
X14523357Y-16256786D01*
X14551928Y-16242500D01*
X14623357Y-16242500D01*
X14651928Y-16256786D01*
X14666214Y-16271071D01*
X14680500Y-16299643D01*
X14680500Y-16371071D01*
X14666214Y-16399643D01*
X14651928Y-16413929D01*
X14623357Y-16428214D01*
X14551928Y-16428214D01*
X14523357Y-16413929D01*
X14509071Y-16399643D01*
X14794786Y-16128214D02*
X14794786Y-16185357D01*
X14909071Y-16128214D02*
X14909071Y-16185357D01*
X15351928Y-16542500D02*
X15337643Y-16528214D01*
X15309071Y-16485357D01*
X15294786Y-16456786D01*
X15280500Y-16413929D01*
X15266214Y-16342500D01*
X15266214Y-16285357D01*
X15280500Y-16213929D01*
X15294786Y-16171071D01*
X15309071Y-16142500D01*
X15337643Y-16099643D01*
X15351928Y-16085357D01*
X15437643Y-16128214D02*
X15623357Y-16128214D01*
X15523357Y-16242500D01*
X15566214Y-16242500D01*
X15594786Y-16256786D01*
X15609071Y-16271071D01*
X15623357Y-16299643D01*
X15623357Y-16371071D01*
X15609071Y-16399643D01*
X15594786Y-16413929D01*
X15566214Y-16428214D01*
X15480500Y-16428214D01*
X15451928Y-16413929D01*
X15437643Y-16399643D01*
X15980500Y-16428214D02*
X15980500Y-16128214D01*
X16109071Y-16428214D02*
X16109071Y-16271071D01*
X16094786Y-16242500D01*
X16066214Y-16228214D01*
X16023357Y-16228214D01*
X15994786Y-16242500D01*
X15980500Y-16256786D01*
X16294786Y-16428214D02*
X16266214Y-16413929D01*
X16251928Y-16399643D01*
X16237643Y-16371071D01*
X16237643Y-16285357D01*
X16251928Y-16256786D01*
X16266214Y-16242500D01*
X16294786Y-16228214D01*
X16337643Y-16228214D01*
X16366214Y-16242500D01*
X16380500Y-16256786D01*
X16394786Y-16285357D01*
X16394786Y-16371071D01*
X16380500Y-16399643D01*
X16366214Y-16413929D01*
X16337643Y-16428214D01*
X16294786Y-16428214D01*
X16566214Y-16428214D02*
X16537643Y-16413929D01*
X16523357Y-16385357D01*
X16523357Y-16128214D01*
X16794786Y-16413929D02*
X16766214Y-16428214D01*
X16709071Y-16428214D01*
X16680500Y-16413929D01*
X16666214Y-16385357D01*
X16666214Y-16271071D01*
X16680500Y-16242500D01*
X16709071Y-16228214D01*
X16766214Y-16228214D01*
X16794786Y-16242500D01*
X16809071Y-16271071D01*
X16809071Y-16299643D01*
X16666214Y-16328214D01*
X16923357Y-16413929D02*
X16951928Y-16428214D01*
X17009071Y-16428214D01*
X17037643Y-16413929D01*
X17051928Y-16385357D01*
X17051928Y-16371071D01*
X17037643Y-16342500D01*
X17009071Y-16328214D01*
X16966214Y-16328214D01*
X16937643Y-16313929D01*
X16923357Y-16285357D01*
X16923357Y-16271071D01*
X16937643Y-16242500D01*
X16966214Y-16228214D01*
X17009071Y-16228214D01*
X17037643Y-16242500D01*
X17151928Y-16542500D02*
X17166214Y-16528214D01*
X17194786Y-16485357D01*
X17209071Y-16456786D01*
X17223357Y-16413929D01*
X17237643Y-16342500D01*
X17237643Y-16285357D01*
X17223357Y-16213929D01*
X17209071Y-16171071D01*
X17194786Y-16142500D01*
X17166214Y-16099643D01*
X17151928Y-16085357D01*
X10571520Y-16641510D02*
X10665500Y-16735490D01*
X10665500Y-16641510D02*
X10571520Y-16735490D01*
X10651737Y-16721727D02*
X10651737Y-16655273D01*
X10585283Y-16655273D01*
X10585283Y-16721727D01*
X10651737Y-16721727D01*
X11009071Y-16524214D02*
X11037643Y-16524214D01*
X11066214Y-16538500D01*
X11080500Y-16552786D01*
X11094786Y-16581357D01*
X11109071Y-16638500D01*
X11109071Y-16709929D01*
X11094786Y-16767071D01*
X11080500Y-16795643D01*
X11066214Y-16809929D01*
X11037643Y-16824214D01*
X11009071Y-16824214D01*
X10980500Y-16809929D01*
X10966214Y-16795643D01*
X10951928Y-16767071D01*
X10937643Y-16709929D01*
X10937643Y-16638500D01*
X10951928Y-16581357D01*
X10966214Y-16552786D01*
X10980500Y-16538500D01*
X11009071Y-16524214D01*
X11237643Y-16795643D02*
X11251928Y-16809929D01*
X11237643Y-16824214D01*
X11223357Y-16809929D01*
X11237643Y-16795643D01*
X11237643Y-16824214D01*
X11394786Y-16824214D02*
X11451928Y-16824214D01*
X11480500Y-16809929D01*
X11494786Y-16795643D01*
X11523357Y-16752786D01*
X11537643Y-16695643D01*
X11537643Y-16581357D01*
X11523357Y-16552786D01*
X11509071Y-16538500D01*
X11480500Y-16524214D01*
X11423357Y-16524214D01*
X11394786Y-16538500D01*
X11380500Y-16552786D01*
X11366214Y-16581357D01*
X11366214Y-16652786D01*
X11380500Y-16681357D01*
X11394786Y-16695643D01*
X11423357Y-16709929D01*
X11480500Y-16709929D01*
X11509071Y-16695643D01*
X11523357Y-16681357D01*
X11537643Y-16652786D01*
X11794786Y-16624214D02*
X11794786Y-16824214D01*
X11723357Y-16509929D02*
X11651928Y-16724214D01*
X11837643Y-16724214D01*
X11951928Y-16824214D02*
X11951928Y-16624214D01*
X11951928Y-16652786D02*
X11966214Y-16638500D01*
X11994786Y-16624214D01*
X12037643Y-16624214D01*
X12066214Y-16638500D01*
X12080500Y-16667071D01*
X12080500Y-16824214D01*
X12080500Y-16667071D02*
X12094786Y-16638500D01*
X12123357Y-16624214D01*
X12166214Y-16624214D01*
X12194786Y-16638500D01*
X12209071Y-16667071D01*
X12209071Y-16824214D01*
X12351928Y-16824214D02*
X12351928Y-16624214D01*
X12351928Y-16652786D02*
X12366214Y-16638500D01*
X12394786Y-16624214D01*
X12437643Y-16624214D01*
X12466214Y-16638500D01*
X12480500Y-16667071D01*
X12480500Y-16824214D01*
X12480500Y-16667071D02*
X12494786Y-16638500D01*
X12523357Y-16624214D01*
X12566214Y-16624214D01*
X12594786Y-16638500D01*
X12609071Y-16667071D01*
X12609071Y-16824214D01*
X13194786Y-16509929D02*
X12937643Y-16895643D01*
X13580500Y-16524214D02*
X13609071Y-16524214D01*
X13637643Y-16538500D01*
X13651928Y-16552786D01*
X13666214Y-16581357D01*
X13680500Y-16638500D01*
X13680500Y-16709929D01*
X13666214Y-16767071D01*
X13651928Y-16795643D01*
X13637643Y-16809929D01*
X13609071Y-16824214D01*
X13580500Y-16824214D01*
X13551928Y-16809929D01*
X13537643Y-16795643D01*
X13523357Y-16767071D01*
X13509071Y-16709929D01*
X13509071Y-16638500D01*
X13523357Y-16581357D01*
X13537643Y-16552786D01*
X13551928Y-16538500D01*
X13580500Y-16524214D01*
X13809071Y-16795643D02*
X13823357Y-16809929D01*
X13809071Y-16824214D01*
X13794786Y-16809929D01*
X13809071Y-16795643D01*
X13809071Y-16824214D01*
X14009071Y-16524214D02*
X14037643Y-16524214D01*
X14066214Y-16538500D01*
X14080500Y-16552786D01*
X14094786Y-16581357D01*
X14109071Y-16638500D01*
X14109071Y-16709929D01*
X14094786Y-16767071D01*
X14080500Y-16795643D01*
X14066214Y-16809929D01*
X14037643Y-16824214D01*
X14009071Y-16824214D01*
X13980500Y-16809929D01*
X13966214Y-16795643D01*
X13951928Y-16767071D01*
X13937643Y-16709929D01*
X13937643Y-16638500D01*
X13951928Y-16581357D01*
X13966214Y-16552786D01*
X13980500Y-16538500D01*
X14009071Y-16524214D01*
X14209071Y-16524214D02*
X14394786Y-16524214D01*
X14294786Y-16638500D01*
X14337643Y-16638500D01*
X14366214Y-16652786D01*
X14380500Y-16667071D01*
X14394786Y-16695643D01*
X14394786Y-16767071D01*
X14380500Y-16795643D01*
X14366214Y-16809929D01*
X14337643Y-16824214D01*
X14251928Y-16824214D01*
X14223357Y-16809929D01*
X14209071Y-16795643D01*
X14494786Y-16524214D02*
X14694786Y-16524214D01*
X14566214Y-16824214D01*
X14794786Y-16524214D02*
X14794786Y-16581357D01*
X14909071Y-16524214D02*
X14909071Y-16581357D01*
X15351928Y-16938500D02*
X15337643Y-16924214D01*
X15309071Y-16881357D01*
X15294786Y-16852786D01*
X15280500Y-16809929D01*
X15266214Y-16738500D01*
X15266214Y-16681357D01*
X15280500Y-16609929D01*
X15294786Y-16567071D01*
X15309071Y-16538500D01*
X15337643Y-16495643D01*
X15351928Y-16481357D01*
X15623357Y-16824214D02*
X15451928Y-16824214D01*
X15537643Y-16824214D02*
X15537643Y-16524214D01*
X15509071Y-16567071D01*
X15480500Y-16595643D01*
X15451928Y-16609929D01*
X15880500Y-16524214D02*
X15823357Y-16524214D01*
X15794786Y-16538500D01*
X15780500Y-16552786D01*
X15751928Y-16595643D01*
X15737643Y-16652786D01*
X15737643Y-16767071D01*
X15751928Y-16795643D01*
X15766214Y-16809929D01*
X15794786Y-16824214D01*
X15851928Y-16824214D01*
X15880500Y-16809929D01*
X15894786Y-16795643D01*
X15909071Y-16767071D01*
X15909071Y-16695643D01*
X15894786Y-16667071D01*
X15880500Y-16652786D01*
X15851928Y-16638500D01*
X15794786Y-16638500D01*
X15766214Y-16652786D01*
X15751928Y-16667071D01*
X15737643Y-16695643D01*
X16266214Y-16824214D02*
X16266214Y-16524214D01*
X16394786Y-16824214D02*
X16394786Y-16667071D01*
X16380500Y-16638500D01*
X16351928Y-16624214D01*
X16309071Y-16624214D01*
X16280500Y-16638500D01*
X16266214Y-16652786D01*
X16580500Y-16824214D02*
X16551928Y-16809929D01*
X16537643Y-16795643D01*
X16523357Y-16767071D01*
X16523357Y-16681357D01*
X16537643Y-16652786D01*
X16551928Y-16638500D01*
X16580500Y-16624214D01*
X16623357Y-16624214D01*
X16651928Y-16638500D01*
X16666214Y-16652786D01*
X16680500Y-16681357D01*
X16680500Y-16767071D01*
X16666214Y-16795643D01*
X16651928Y-16809929D01*
X16623357Y-16824214D01*
X16580500Y-16824214D01*
X16851928Y-16824214D02*
X16823357Y-16809929D01*
X16809071Y-16781357D01*
X16809071Y-16524214D01*
X17080500Y-16809929D02*
X17051928Y-16824214D01*
X16994786Y-16824214D01*
X16966214Y-16809929D01*
X16951928Y-16781357D01*
X16951928Y-16667071D01*
X16966214Y-16638500D01*
X16994786Y-16624214D01*
X17051928Y-16624214D01*
X17080500Y-16638500D01*
X17094786Y-16667071D01*
X17094786Y-16695643D01*
X16951928Y-16724214D01*
X17209071Y-16809929D02*
X17237643Y-16824214D01*
X17294786Y-16824214D01*
X17323357Y-16809929D01*
X17337643Y-16781357D01*
X17337643Y-16767071D01*
X17323357Y-16738500D01*
X17294786Y-16724214D01*
X17251928Y-16724214D01*
X17223357Y-16709929D01*
X17209071Y-16681357D01*
X17209071Y-16667071D01*
X17223357Y-16638500D01*
X17251928Y-16624214D01*
X17294786Y-16624214D01*
X17323357Y-16638500D01*
X17437643Y-16938500D02*
X17451928Y-16924214D01*
X17480500Y-16881357D01*
X17494786Y-16852786D01*
X17509071Y-16809929D01*
X17523357Y-16738500D01*
X17523357Y-16681357D01*
X17509071Y-16609929D01*
X17494786Y-16567071D01*
X17480500Y-16538500D01*
X17451928Y-16495643D01*
X17437643Y-16481357D01*
X10565500Y-17034500D02*
X10665500Y-17134500D01*
X10665500Y-17034500D02*
X10565500Y-17134500D01*
X10615500Y-17134500D02*
X10665500Y-17084500D01*
X10615500Y-17034500D01*
X10565500Y-17084500D01*
X10615500Y-17134500D01*
X11109071Y-17220214D02*
X10937643Y-17220214D01*
X11023357Y-17220214D02*
X11023357Y-16920214D01*
X10994786Y-16963072D01*
X10966214Y-16991643D01*
X10937643Y-17005929D01*
X11237643Y-17191643D02*
X11251928Y-17205929D01*
X11237643Y-17220214D01*
X11223357Y-17205929D01*
X11237643Y-17191643D01*
X11237643Y-17220214D01*
X11437643Y-16920214D02*
X11466214Y-16920214D01*
X11494786Y-16934500D01*
X11509071Y-16948786D01*
X11523357Y-16977357D01*
X11537643Y-17034500D01*
X11537643Y-17105929D01*
X11523357Y-17163072D01*
X11509071Y-17191643D01*
X11494786Y-17205929D01*
X11466214Y-17220214D01*
X11437643Y-17220214D01*
X11409071Y-17205929D01*
X11394786Y-17191643D01*
X11380500Y-17163072D01*
X11366214Y-17105929D01*
X11366214Y-17034500D01*
X11380500Y-16977357D01*
X11394786Y-16948786D01*
X11409071Y-16934500D01*
X11437643Y-16920214D01*
X11723357Y-16920214D02*
X11751928Y-16920214D01*
X11780500Y-16934500D01*
X11794786Y-16948786D01*
X11809071Y-16977357D01*
X11823357Y-17034500D01*
X11823357Y-17105929D01*
X11809071Y-17163072D01*
X11794786Y-17191643D01*
X11780500Y-17205929D01*
X11751928Y-17220214D01*
X11723357Y-17220214D01*
X11694786Y-17205929D01*
X11680500Y-17191643D01*
X11666214Y-17163072D01*
X11651928Y-17105929D01*
X11651928Y-17034500D01*
X11666214Y-16977357D01*
X11680500Y-16948786D01*
X11694786Y-16934500D01*
X11723357Y-16920214D01*
X11951928Y-17220214D02*
X11951928Y-17020214D01*
X11951928Y-17048786D02*
X11966214Y-17034500D01*
X11994786Y-17020214D01*
X12037643Y-17020214D01*
X12066214Y-17034500D01*
X12080500Y-17063072D01*
X12080500Y-17220214D01*
X12080500Y-17063072D02*
X12094786Y-17034500D01*
X12123357Y-17020214D01*
X12166214Y-17020214D01*
X12194786Y-17034500D01*
X12209071Y-17063072D01*
X12209071Y-17220214D01*
X12351928Y-17220214D02*
X12351928Y-17020214D01*
X12351928Y-17048786D02*
X12366214Y-17034500D01*
X12394786Y-17020214D01*
X12437643Y-17020214D01*
X12466214Y-17034500D01*
X12480500Y-17063072D01*
X12480500Y-17220214D01*
X12480500Y-17063072D02*
X12494786Y-17034500D01*
X12523357Y-17020214D01*
X12566214Y-17020214D01*
X12594786Y-17034500D01*
X12609071Y-17063072D01*
X12609071Y-17220214D01*
X13194786Y-16905929D02*
X12937643Y-17291643D01*
X13580500Y-16920214D02*
X13609071Y-16920214D01*
X13637643Y-16934500D01*
X13651928Y-16948786D01*
X13666214Y-16977357D01*
X13680500Y-17034500D01*
X13680500Y-17105929D01*
X13666214Y-17163072D01*
X13651928Y-17191643D01*
X13637643Y-17205929D01*
X13609071Y-17220214D01*
X13580500Y-17220214D01*
X13551928Y-17205929D01*
X13537643Y-17191643D01*
X13523357Y-17163072D01*
X13509071Y-17105929D01*
X13509071Y-17034500D01*
X13523357Y-16977357D01*
X13537643Y-16948786D01*
X13551928Y-16934500D01*
X13580500Y-16920214D01*
X13809071Y-17191643D02*
X13823357Y-17205929D01*
X13809071Y-17220214D01*
X13794786Y-17205929D01*
X13809071Y-17191643D01*
X13809071Y-17220214D01*
X14009071Y-16920214D02*
X14037643Y-16920214D01*
X14066214Y-16934500D01*
X14080500Y-16948786D01*
X14094786Y-16977357D01*
X14109071Y-17034500D01*
X14109071Y-17105929D01*
X14094786Y-17163072D01*
X14080500Y-17191643D01*
X14066214Y-17205929D01*
X14037643Y-17220214D01*
X14009071Y-17220214D01*
X13980500Y-17205929D01*
X13966214Y-17191643D01*
X13951928Y-17163072D01*
X13937643Y-17105929D01*
X13937643Y-17034500D01*
X13951928Y-16977357D01*
X13966214Y-16948786D01*
X13980500Y-16934500D01*
X14009071Y-16920214D01*
X14209071Y-16920214D02*
X14394786Y-16920214D01*
X14294786Y-17034500D01*
X14337643Y-17034500D01*
X14366214Y-17048786D01*
X14380500Y-17063072D01*
X14394786Y-17091643D01*
X14394786Y-17163072D01*
X14380500Y-17191643D01*
X14366214Y-17205929D01*
X14337643Y-17220214D01*
X14251928Y-17220214D01*
X14223357Y-17205929D01*
X14209071Y-17191643D01*
X14537643Y-17220214D02*
X14594786Y-17220214D01*
X14623357Y-17205929D01*
X14637643Y-17191643D01*
X14666214Y-17148786D01*
X14680500Y-17091643D01*
X14680500Y-16977357D01*
X14666214Y-16948786D01*
X14651928Y-16934500D01*
X14623357Y-16920214D01*
X14566214Y-16920214D01*
X14537643Y-16934500D01*
X14523357Y-16948786D01*
X14509071Y-16977357D01*
X14509071Y-17048786D01*
X14523357Y-17077357D01*
X14537643Y-17091643D01*
X14566214Y-17105929D01*
X14623357Y-17105929D01*
X14651928Y-17091643D01*
X14666214Y-17077357D01*
X14680500Y-17048786D01*
X14794786Y-16920214D02*
X14794786Y-16977357D01*
X14909071Y-16920214D02*
X14909071Y-16977357D01*
X15351928Y-17334500D02*
X15337643Y-17320214D01*
X15309071Y-17277357D01*
X15294786Y-17248786D01*
X15280500Y-17205929D01*
X15266214Y-17134500D01*
X15266214Y-17077357D01*
X15280500Y-17005929D01*
X15294786Y-16963072D01*
X15309071Y-16934500D01*
X15337643Y-16891643D01*
X15351928Y-16877357D01*
X15509071Y-17048786D02*
X15480500Y-17034500D01*
X15466214Y-17020214D01*
X15451928Y-16991643D01*
X15451928Y-16977357D01*
X15466214Y-16948786D01*
X15480500Y-16934500D01*
X15509071Y-16920214D01*
X15566214Y-16920214D01*
X15594786Y-16934500D01*
X15609071Y-16948786D01*
X15623357Y-16977357D01*
X15623357Y-16991643D01*
X15609071Y-17020214D01*
X15594786Y-17034500D01*
X15566214Y-17048786D01*
X15509071Y-17048786D01*
X15480500Y-17063072D01*
X15466214Y-17077357D01*
X15451928Y-17105929D01*
X15451928Y-17163072D01*
X15466214Y-17191643D01*
X15480500Y-17205929D01*
X15509071Y-17220214D01*
X15566214Y-17220214D01*
X15594786Y-17205929D01*
X15609071Y-17191643D01*
X15623357Y-17163072D01*
X15623357Y-17105929D01*
X15609071Y-17077357D01*
X15594786Y-17063072D01*
X15566214Y-17048786D01*
X15980500Y-17220214D02*
X15980500Y-16920214D01*
X16109071Y-17220214D02*
X16109071Y-17063072D01*
X16094786Y-17034500D01*
X16066214Y-17020214D01*
X16023357Y-17020214D01*
X15994786Y-17034500D01*
X15980500Y-17048786D01*
X16294786Y-17220214D02*
X16266214Y-17205929D01*
X16251928Y-17191643D01*
X16237643Y-17163072D01*
X16237643Y-17077357D01*
X16251928Y-17048786D01*
X16266214Y-17034500D01*
X16294786Y-17020214D01*
X16337643Y-17020214D01*
X16366214Y-17034500D01*
X16380500Y-17048786D01*
X16394786Y-17077357D01*
X16394786Y-17163072D01*
X16380500Y-17191643D01*
X16366214Y-17205929D01*
X16337643Y-17220214D01*
X16294786Y-17220214D01*
X16566214Y-17220214D02*
X16537643Y-17205929D01*
X16523357Y-17177357D01*
X16523357Y-16920214D01*
X16794786Y-17205929D02*
X16766214Y-17220214D01*
X16709071Y-17220214D01*
X16680500Y-17205929D01*
X16666214Y-17177357D01*
X16666214Y-17063072D01*
X16680500Y-17034500D01*
X16709071Y-17020214D01*
X16766214Y-17020214D01*
X16794786Y-17034500D01*
X16809071Y-17063072D01*
X16809071Y-17091643D01*
X16666214Y-17120214D01*
X16923357Y-17205929D02*
X16951928Y-17220214D01*
X17009071Y-17220214D01*
X17037643Y-17205929D01*
X17051928Y-17177357D01*
X17051928Y-17163072D01*
X17037643Y-17134500D01*
X17009071Y-17120214D01*
X16966214Y-17120214D01*
X16937643Y-17105929D01*
X16923357Y-17077357D01*
X16923357Y-17063072D01*
X16937643Y-17034500D01*
X16966214Y-17020214D01*
X17009071Y-17020214D01*
X17037643Y-17034500D01*
X17151928Y-17334500D02*
X17166214Y-17320214D01*
X17194786Y-17277357D01*
X17209071Y-17248786D01*
X17223357Y-17205929D01*
X17237643Y-17134500D01*
X17237643Y-17077357D01*
X17223357Y-17005929D01*
X17209071Y-16963072D01*
X17194786Y-16934500D01*
X17166214Y-16891643D01*
X17151928Y-16877357D01*
X10605500Y-17420500D02*
X10605500Y-17540500D01*
X10545500Y-17480500D02*
X10665500Y-17480500D01*
X10665500Y-17480500D02*
G75*
G03*
X10665500Y-17480500I-60000J0D01*
G01*
X11109071Y-17616214D02*
X10937643Y-17616214D01*
X11023357Y-17616214D02*
X11023357Y-17316214D01*
X10994786Y-17359072D01*
X10966214Y-17387643D01*
X10937643Y-17401929D01*
X11237643Y-17587643D02*
X11251928Y-17601929D01*
X11237643Y-17616214D01*
X11223357Y-17601929D01*
X11237643Y-17587643D01*
X11237643Y-17616214D01*
X11366214Y-17344786D02*
X11380500Y-17330500D01*
X11409071Y-17316214D01*
X11480500Y-17316214D01*
X11509071Y-17330500D01*
X11523357Y-17344786D01*
X11537643Y-17373357D01*
X11537643Y-17401929D01*
X11523357Y-17444786D01*
X11351928Y-17616214D01*
X11537643Y-17616214D01*
X11723357Y-17316214D02*
X11751928Y-17316214D01*
X11780500Y-17330500D01*
X11794786Y-17344786D01*
X11809071Y-17373357D01*
X11823357Y-17430500D01*
X11823357Y-17501929D01*
X11809071Y-17559072D01*
X11794786Y-17587643D01*
X11780500Y-17601929D01*
X11751928Y-17616214D01*
X11723357Y-17616214D01*
X11694786Y-17601929D01*
X11680500Y-17587643D01*
X11666214Y-17559072D01*
X11651928Y-17501929D01*
X11651928Y-17430500D01*
X11666214Y-17373357D01*
X11680500Y-17344786D01*
X11694786Y-17330500D01*
X11723357Y-17316214D01*
X11951928Y-17616214D02*
X11951928Y-17416214D01*
X11951928Y-17444786D02*
X11966214Y-17430500D01*
X11994786Y-17416214D01*
X12037643Y-17416214D01*
X12066214Y-17430500D01*
X12080500Y-17459072D01*
X12080500Y-17616214D01*
X12080500Y-17459072D02*
X12094786Y-17430500D01*
X12123357Y-17416214D01*
X12166214Y-17416214D01*
X12194786Y-17430500D01*
X12209071Y-17459072D01*
X12209071Y-17616214D01*
X12351928Y-17616214D02*
X12351928Y-17416214D01*
X12351928Y-17444786D02*
X12366214Y-17430500D01*
X12394786Y-17416214D01*
X12437643Y-17416214D01*
X12466214Y-17430500D01*
X12480500Y-17459072D01*
X12480500Y-17616214D01*
X12480500Y-17459072D02*
X12494786Y-17430500D01*
X12523357Y-17416214D01*
X12566214Y-17416214D01*
X12594786Y-17430500D01*
X12609071Y-17459072D01*
X12609071Y-17616214D01*
X13194786Y-17301929D02*
X12937643Y-17687643D01*
X13580500Y-17316214D02*
X13609071Y-17316214D01*
X13637643Y-17330500D01*
X13651928Y-17344786D01*
X13666214Y-17373357D01*
X13680500Y-17430500D01*
X13680500Y-17501929D01*
X13666214Y-17559072D01*
X13651928Y-17587643D01*
X13637643Y-17601929D01*
X13609071Y-17616214D01*
X13580500Y-17616214D01*
X13551928Y-17601929D01*
X13537643Y-17587643D01*
X13523357Y-17559072D01*
X13509071Y-17501929D01*
X13509071Y-17430500D01*
X13523357Y-17373357D01*
X13537643Y-17344786D01*
X13551928Y-17330500D01*
X13580500Y-17316214D01*
X13809071Y-17587643D02*
X13823357Y-17601929D01*
X13809071Y-17616214D01*
X13794786Y-17601929D01*
X13809071Y-17587643D01*
X13809071Y-17616214D01*
X14009071Y-17316214D02*
X14037643Y-17316214D01*
X14066214Y-17330500D01*
X14080500Y-17344786D01*
X14094786Y-17373357D01*
X14109071Y-17430500D01*
X14109071Y-17501929D01*
X14094786Y-17559072D01*
X14080500Y-17587643D01*
X14066214Y-17601929D01*
X14037643Y-17616214D01*
X14009071Y-17616214D01*
X13980500Y-17601929D01*
X13966214Y-17587643D01*
X13951928Y-17559072D01*
X13937643Y-17501929D01*
X13937643Y-17430500D01*
X13951928Y-17373357D01*
X13966214Y-17344786D01*
X13980500Y-17330500D01*
X14009071Y-17316214D01*
X14366214Y-17416214D02*
X14366214Y-17616214D01*
X14294786Y-17301929D02*
X14223357Y-17516214D01*
X14409071Y-17516214D01*
X14494786Y-17316214D02*
X14694786Y-17316214D01*
X14566214Y-17616214D01*
X14794786Y-17316214D02*
X14794786Y-17373357D01*
X14909071Y-17316214D02*
X14909071Y-17373357D01*
X15351928Y-17730500D02*
X15337643Y-17716214D01*
X15309071Y-17673357D01*
X15294786Y-17644786D01*
X15280500Y-17601929D01*
X15266214Y-17530500D01*
X15266214Y-17473357D01*
X15280500Y-17401929D01*
X15294786Y-17359072D01*
X15309071Y-17330500D01*
X15337643Y-17287643D01*
X15351928Y-17273357D01*
X15623357Y-17616214D02*
X15451928Y-17616214D01*
X15537643Y-17616214D02*
X15537643Y-17316214D01*
X15509071Y-17359072D01*
X15480500Y-17387643D01*
X15451928Y-17401929D01*
X15737643Y-17344786D02*
X15751928Y-17330500D01*
X15780500Y-17316214D01*
X15851928Y-17316214D01*
X15880500Y-17330500D01*
X15894786Y-17344786D01*
X15909071Y-17373357D01*
X15909071Y-17401929D01*
X15894786Y-17444786D01*
X15723357Y-17616214D01*
X15909071Y-17616214D01*
X16266214Y-17616214D02*
X16266214Y-17316214D01*
X16394786Y-17616214D02*
X16394786Y-17459072D01*
X16380500Y-17430500D01*
X16351928Y-17416214D01*
X16309071Y-17416214D01*
X16280500Y-17430500D01*
X16266214Y-17444786D01*
X16580500Y-17616214D02*
X16551928Y-17601929D01*
X16537643Y-17587643D01*
X16523357Y-17559072D01*
X16523357Y-17473357D01*
X16537643Y-17444786D01*
X16551928Y-17430500D01*
X16580500Y-17416214D01*
X16623357Y-17416214D01*
X16651928Y-17430500D01*
X16666214Y-17444786D01*
X16680500Y-17473357D01*
X16680500Y-17559072D01*
X16666214Y-17587643D01*
X16651928Y-17601929D01*
X16623357Y-17616214D01*
X16580500Y-17616214D01*
X16851928Y-17616214D02*
X16823357Y-17601929D01*
X16809071Y-17573357D01*
X16809071Y-17316214D01*
X17080500Y-17601929D02*
X17051928Y-17616214D01*
X16994786Y-17616214D01*
X16966214Y-17601929D01*
X16951928Y-17573357D01*
X16951928Y-17459072D01*
X16966214Y-17430500D01*
X16994786Y-17416214D01*
X17051928Y-17416214D01*
X17080500Y-17430500D01*
X17094786Y-17459072D01*
X17094786Y-17487643D01*
X16951928Y-17516214D01*
X17209071Y-17601929D02*
X17237643Y-17616214D01*
X17294786Y-17616214D01*
X17323357Y-17601929D01*
X17337643Y-17573357D01*
X17337643Y-17559072D01*
X17323357Y-17530500D01*
X17294786Y-17516214D01*
X17251928Y-17516214D01*
X17223357Y-17501929D01*
X17209071Y-17473357D01*
X17209071Y-17459072D01*
X17223357Y-17430500D01*
X17251928Y-17416214D01*
X17294786Y-17416214D01*
X17323357Y-17430500D01*
X17437643Y-17730500D02*
X17451928Y-17716214D01*
X17480500Y-17673357D01*
X17494786Y-17644786D01*
X17509071Y-17601929D01*
X17523357Y-17530500D01*
X17523357Y-17473357D01*
X17509071Y-17401929D01*
X17494786Y-17359072D01*
X17480500Y-17330500D01*
X17451928Y-17287643D01*
X17437643Y-17273357D01*
X10614245Y-18000245D02*
X10614245Y-17752755D01*
X10366755Y-17752755D01*
X10366755Y-18000245D01*
X10614245Y-18000245D01*
X10665500Y-17876500D02*
G75*
G03*
X10665500Y-17876500I-175000J0D01*
G01*
X10923357Y-17712214D02*
X11109071Y-17712214D01*
X11009071Y-17826500D01*
X11051928Y-17826500D01*
X11080500Y-17840786D01*
X11094786Y-17855072D01*
X11109071Y-17883643D01*
X11109071Y-17955072D01*
X11094786Y-17983643D01*
X11080500Y-17997929D01*
X11051928Y-18012214D01*
X10966214Y-18012214D01*
X10937643Y-17997929D01*
X10923357Y-17983643D01*
X11237643Y-17983643D02*
X11251928Y-17997929D01*
X11237643Y-18012214D01*
X11223357Y-17997929D01*
X11237643Y-17983643D01*
X11237643Y-18012214D01*
X11523357Y-17712214D02*
X11380500Y-17712214D01*
X11366214Y-17855072D01*
X11380500Y-17840786D01*
X11409071Y-17826500D01*
X11480500Y-17826500D01*
X11509071Y-17840786D01*
X11523357Y-17855072D01*
X11537643Y-17883643D01*
X11537643Y-17955072D01*
X11523357Y-17983643D01*
X11509071Y-17997929D01*
X11480500Y-18012214D01*
X11409071Y-18012214D01*
X11380500Y-17997929D01*
X11366214Y-17983643D01*
X11723357Y-17712214D02*
X11751928Y-17712214D01*
X11780500Y-17726500D01*
X11794786Y-17740786D01*
X11809071Y-17769357D01*
X11823357Y-17826500D01*
X11823357Y-17897929D01*
X11809071Y-17955072D01*
X11794786Y-17983643D01*
X11780500Y-17997929D01*
X11751928Y-18012214D01*
X11723357Y-18012214D01*
X11694786Y-17997929D01*
X11680500Y-17983643D01*
X11666214Y-17955072D01*
X11651928Y-17897929D01*
X11651928Y-17826500D01*
X11666214Y-17769357D01*
X11680500Y-17740786D01*
X11694786Y-17726500D01*
X11723357Y-17712214D01*
X11951928Y-18012214D02*
X11951928Y-17812214D01*
X11951928Y-17840786D02*
X11966214Y-17826500D01*
X11994786Y-17812214D01*
X12037643Y-17812214D01*
X12066214Y-17826500D01*
X12080500Y-17855072D01*
X12080500Y-18012214D01*
X12080500Y-17855072D02*
X12094786Y-17826500D01*
X12123357Y-17812214D01*
X12166214Y-17812214D01*
X12194786Y-17826500D01*
X12209071Y-17855072D01*
X12209071Y-18012214D01*
X12351928Y-18012214D02*
X12351928Y-17812214D01*
X12351928Y-17840786D02*
X12366214Y-17826500D01*
X12394786Y-17812214D01*
X12437643Y-17812214D01*
X12466214Y-17826500D01*
X12480500Y-17855072D01*
X12480500Y-18012214D01*
X12480500Y-17855072D02*
X12494786Y-17826500D01*
X12523357Y-17812214D01*
X12566214Y-17812214D01*
X12594786Y-17826500D01*
X12609071Y-17855072D01*
X12609071Y-18012214D01*
X13194786Y-17697929D02*
X12937643Y-18083643D01*
X13580500Y-17712214D02*
X13609071Y-17712214D01*
X13637643Y-17726500D01*
X13651928Y-17740786D01*
X13666214Y-17769357D01*
X13680500Y-17826500D01*
X13680500Y-17897929D01*
X13666214Y-17955072D01*
X13651928Y-17983643D01*
X13637643Y-17997929D01*
X13609071Y-18012214D01*
X13580500Y-18012214D01*
X13551928Y-17997929D01*
X13537643Y-17983643D01*
X13523357Y-17955072D01*
X13509071Y-17897929D01*
X13509071Y-17826500D01*
X13523357Y-17769357D01*
X13537643Y-17740786D01*
X13551928Y-17726500D01*
X13580500Y-17712214D01*
X13809071Y-17983643D02*
X13823357Y-17997929D01*
X13809071Y-18012214D01*
X13794786Y-17997929D01*
X13809071Y-17983643D01*
X13809071Y-18012214D01*
X14109071Y-18012214D02*
X13937643Y-18012214D01*
X14023357Y-18012214D02*
X14023357Y-17712214D01*
X13994786Y-17755072D01*
X13966214Y-17783643D01*
X13937643Y-17797929D01*
X14209071Y-17712214D02*
X14394786Y-17712214D01*
X14294786Y-17826500D01*
X14337643Y-17826500D01*
X14366214Y-17840786D01*
X14380500Y-17855072D01*
X14394786Y-17883643D01*
X14394786Y-17955072D01*
X14380500Y-17983643D01*
X14366214Y-17997929D01*
X14337643Y-18012214D01*
X14251928Y-18012214D01*
X14223357Y-17997929D01*
X14209071Y-17983643D01*
X14566214Y-17840786D02*
X14537643Y-17826500D01*
X14523357Y-17812214D01*
X14509071Y-17783643D01*
X14509071Y-17769357D01*
X14523357Y-17740786D01*
X14537643Y-17726500D01*
X14566214Y-17712214D01*
X14623357Y-17712214D01*
X14651928Y-17726500D01*
X14666214Y-17740786D01*
X14680500Y-17769357D01*
X14680500Y-17783643D01*
X14666214Y-17812214D01*
X14651928Y-17826500D01*
X14623357Y-17840786D01*
X14566214Y-17840786D01*
X14537643Y-17855072D01*
X14523357Y-17869357D01*
X14509071Y-17897929D01*
X14509071Y-17955072D01*
X14523357Y-17983643D01*
X14537643Y-17997929D01*
X14566214Y-18012214D01*
X14623357Y-18012214D01*
X14651928Y-17997929D01*
X14666214Y-17983643D01*
X14680500Y-17955072D01*
X14680500Y-17897929D01*
X14666214Y-17869357D01*
X14651928Y-17855072D01*
X14623357Y-17840786D01*
X14794786Y-17712214D02*
X14794786Y-17769357D01*
X14909071Y-17712214D02*
X14909071Y-17769357D01*
X15351928Y-18126500D02*
X15337643Y-18112214D01*
X15309071Y-18069357D01*
X15294786Y-18040786D01*
X15280500Y-17997929D01*
X15266214Y-17926500D01*
X15266214Y-17869357D01*
X15280500Y-17797929D01*
X15294786Y-17755072D01*
X15309071Y-17726500D01*
X15337643Y-17683643D01*
X15351928Y-17669357D01*
X15451928Y-17740786D02*
X15466214Y-17726500D01*
X15494786Y-17712214D01*
X15566214Y-17712214D01*
X15594786Y-17726500D01*
X15609071Y-17740786D01*
X15623357Y-17769357D01*
X15623357Y-17797929D01*
X15609071Y-17840786D01*
X15437643Y-18012214D01*
X15623357Y-18012214D01*
X15980500Y-18012214D02*
X15980500Y-17712214D01*
X16109071Y-18012214D02*
X16109071Y-17855072D01*
X16094786Y-17826500D01*
X16066214Y-17812214D01*
X16023357Y-17812214D01*
X15994786Y-17826500D01*
X15980500Y-17840786D01*
X16294786Y-18012214D02*
X16266214Y-17997929D01*
X16251928Y-17983643D01*
X16237643Y-17955072D01*
X16237643Y-17869357D01*
X16251928Y-17840786D01*
X16266214Y-17826500D01*
X16294786Y-17812214D01*
X16337643Y-17812214D01*
X16366214Y-17826500D01*
X16380500Y-17840786D01*
X16394786Y-17869357D01*
X16394786Y-17955072D01*
X16380500Y-17983643D01*
X16366214Y-17997929D01*
X16337643Y-18012214D01*
X16294786Y-18012214D01*
X16566214Y-18012214D02*
X16537643Y-17997929D01*
X16523357Y-17969357D01*
X16523357Y-17712214D01*
X16794786Y-17997929D02*
X16766214Y-18012214D01*
X16709071Y-18012214D01*
X16680500Y-17997929D01*
X16666214Y-17969357D01*
X16666214Y-17855072D01*
X16680500Y-17826500D01*
X16709071Y-17812214D01*
X16766214Y-17812214D01*
X16794786Y-17826500D01*
X16809071Y-17855072D01*
X16809071Y-17883643D01*
X16666214Y-17912214D01*
X16923357Y-17997929D02*
X16951928Y-18012214D01*
X17009071Y-18012214D01*
X17037643Y-17997929D01*
X17051928Y-17969357D01*
X17051928Y-17955072D01*
X17037643Y-17926500D01*
X17009071Y-17912214D01*
X16966214Y-17912214D01*
X16937643Y-17897929D01*
X16923357Y-17869357D01*
X16923357Y-17855072D01*
X16937643Y-17826500D01*
X16966214Y-17812214D01*
X17009071Y-17812214D01*
X17037643Y-17826500D01*
X17151928Y-18126500D02*
X17166214Y-18112214D01*
X17194786Y-18069357D01*
X17209071Y-18040786D01*
X17223357Y-17997929D01*
X17237643Y-17926500D01*
X17237643Y-17869357D01*
X17223357Y-17797929D01*
X17209071Y-17755072D01*
X17194786Y-17726500D01*
X17166214Y-17683643D01*
X17151928Y-17669357D01*
X10480500Y-18541500D02*
X10665500Y-18356500D01*
X10480500Y-18171500D01*
X10295500Y-18356500D01*
X10480500Y-18541500D01*
X10665500Y-18356500D02*
G75*
G03*
X10665500Y-18356500I-185000J0D01*
G01*
X10923357Y-18192214D02*
X11109071Y-18192214D01*
X11009071Y-18306500D01*
X11051928Y-18306500D01*
X11080500Y-18320786D01*
X11094786Y-18335072D01*
X11109071Y-18363643D01*
X11109071Y-18435072D01*
X11094786Y-18463643D01*
X11080500Y-18477929D01*
X11051928Y-18492214D01*
X10966214Y-18492214D01*
X10937643Y-18477929D01*
X10923357Y-18463643D01*
X11237643Y-18463643D02*
X11251928Y-18477929D01*
X11237643Y-18492214D01*
X11223357Y-18477929D01*
X11237643Y-18463643D01*
X11237643Y-18492214D01*
X11351928Y-18192214D02*
X11551928Y-18192214D01*
X11423357Y-18492214D01*
X11723357Y-18192214D02*
X11751928Y-18192214D01*
X11780500Y-18206500D01*
X11794786Y-18220786D01*
X11809071Y-18249357D01*
X11823357Y-18306500D01*
X11823357Y-18377929D01*
X11809071Y-18435072D01*
X11794786Y-18463643D01*
X11780500Y-18477929D01*
X11751928Y-18492214D01*
X11723357Y-18492214D01*
X11694786Y-18477929D01*
X11680500Y-18463643D01*
X11666214Y-18435072D01*
X11651928Y-18377929D01*
X11651928Y-18306500D01*
X11666214Y-18249357D01*
X11680500Y-18220786D01*
X11694786Y-18206500D01*
X11723357Y-18192214D01*
X11951928Y-18492214D02*
X11951928Y-18292214D01*
X11951928Y-18320786D02*
X11966214Y-18306500D01*
X11994786Y-18292214D01*
X12037643Y-18292214D01*
X12066214Y-18306500D01*
X12080500Y-18335072D01*
X12080500Y-18492214D01*
X12080500Y-18335072D02*
X12094786Y-18306500D01*
X12123357Y-18292214D01*
X12166214Y-18292214D01*
X12194786Y-18306500D01*
X12209071Y-18335072D01*
X12209071Y-18492214D01*
X12351928Y-18492214D02*
X12351928Y-18292214D01*
X12351928Y-18320786D02*
X12366214Y-18306500D01*
X12394786Y-18292214D01*
X12437643Y-18292214D01*
X12466214Y-18306500D01*
X12480500Y-18335072D01*
X12480500Y-18492214D01*
X12480500Y-18335072D02*
X12494786Y-18306500D01*
X12523357Y-18292214D01*
X12566214Y-18292214D01*
X12594786Y-18306500D01*
X12609071Y-18335072D01*
X12609071Y-18492214D01*
X13194786Y-18177929D02*
X12937643Y-18563643D01*
X13580500Y-18192214D02*
X13609071Y-18192214D01*
X13637643Y-18206500D01*
X13651928Y-18220786D01*
X13666214Y-18249357D01*
X13680500Y-18306500D01*
X13680500Y-18377929D01*
X13666214Y-18435072D01*
X13651928Y-18463643D01*
X13637643Y-18477929D01*
X13609071Y-18492214D01*
X13580500Y-18492214D01*
X13551928Y-18477929D01*
X13537643Y-18463643D01*
X13523357Y-18435072D01*
X13509071Y-18377929D01*
X13509071Y-18306500D01*
X13523357Y-18249357D01*
X13537643Y-18220786D01*
X13551928Y-18206500D01*
X13580500Y-18192214D01*
X13809071Y-18463643D02*
X13823357Y-18477929D01*
X13809071Y-18492214D01*
X13794786Y-18477929D01*
X13809071Y-18463643D01*
X13809071Y-18492214D01*
X14109071Y-18492214D02*
X13937643Y-18492214D01*
X14023357Y-18492214D02*
X14023357Y-18192214D01*
X13994786Y-18235072D01*
X13966214Y-18263643D01*
X13937643Y-18277929D01*
X14366214Y-18292214D02*
X14366214Y-18492214D01*
X14294786Y-18177929D02*
X14223357Y-18392214D01*
X14409071Y-18392214D01*
X14651928Y-18192214D02*
X14594786Y-18192214D01*
X14566214Y-18206500D01*
X14551928Y-18220786D01*
X14523357Y-18263643D01*
X14509071Y-18320786D01*
X14509071Y-18435072D01*
X14523357Y-18463643D01*
X14537643Y-18477929D01*
X14566214Y-18492214D01*
X14623357Y-18492214D01*
X14651928Y-18477929D01*
X14666214Y-18463643D01*
X14680500Y-18435072D01*
X14680500Y-18363643D01*
X14666214Y-18335072D01*
X14651928Y-18320786D01*
X14623357Y-18306500D01*
X14566214Y-18306500D01*
X14537643Y-18320786D01*
X14523357Y-18335072D01*
X14509071Y-18363643D01*
X14794786Y-18192214D02*
X14794786Y-18249357D01*
X14909071Y-18192214D02*
X14909071Y-18249357D01*
X15351928Y-18606500D02*
X15337643Y-18592214D01*
X15309071Y-18549357D01*
X15294786Y-18520786D01*
X15280500Y-18477929D01*
X15266214Y-18406500D01*
X15266214Y-18349357D01*
X15280500Y-18277929D01*
X15294786Y-18235072D01*
X15309071Y-18206500D01*
X15337643Y-18163643D01*
X15351928Y-18149357D01*
X15594786Y-18292214D02*
X15594786Y-18492214D01*
X15523357Y-18177929D02*
X15451928Y-18392214D01*
X15637643Y-18392214D01*
X15980500Y-18492214D02*
X15980500Y-18192214D01*
X16109071Y-18492214D02*
X16109071Y-18335072D01*
X16094786Y-18306500D01*
X16066214Y-18292214D01*
X16023357Y-18292214D01*
X15994786Y-18306500D01*
X15980500Y-18320786D01*
X16294786Y-18492214D02*
X16266214Y-18477929D01*
X16251928Y-18463643D01*
X16237643Y-18435072D01*
X16237643Y-18349357D01*
X16251928Y-18320786D01*
X16266214Y-18306500D01*
X16294786Y-18292214D01*
X16337643Y-18292214D01*
X16366214Y-18306500D01*
X16380500Y-18320786D01*
X16394786Y-18349357D01*
X16394786Y-18435072D01*
X16380500Y-18463643D01*
X16366214Y-18477929D01*
X16337643Y-18492214D01*
X16294786Y-18492214D01*
X16566214Y-18492214D02*
X16537643Y-18477929D01*
X16523357Y-18449357D01*
X16523357Y-18192214D01*
X16794786Y-18477929D02*
X16766214Y-18492214D01*
X16709071Y-18492214D01*
X16680500Y-18477929D01*
X16666214Y-18449357D01*
X16666214Y-18335072D01*
X16680500Y-18306500D01*
X16709071Y-18292214D01*
X16766214Y-18292214D01*
X16794786Y-18306500D01*
X16809071Y-18335072D01*
X16809071Y-18363643D01*
X16666214Y-18392214D01*
X16923357Y-18477929D02*
X16951928Y-18492214D01*
X17009071Y-18492214D01*
X17037643Y-18477929D01*
X17051928Y-18449357D01*
X17051928Y-18435072D01*
X17037643Y-18406500D01*
X17009071Y-18392214D01*
X16966214Y-18392214D01*
X16937643Y-18377929D01*
X16923357Y-18349357D01*
X16923357Y-18335072D01*
X16937643Y-18306500D01*
X16966214Y-18292214D01*
X17009071Y-18292214D01*
X17037643Y-18306500D01*
X17151928Y-18606500D02*
X17166214Y-18592214D01*
X17194786Y-18549357D01*
X17209071Y-18520786D01*
X17223357Y-18477929D01*
X17237643Y-18406500D01*
X17237643Y-18349357D01*
X17223357Y-18277929D01*
X17209071Y-18235072D01*
X17194786Y-18206500D01*
X17166214Y-18163643D01*
X17151928Y-18149357D01*
X10465500Y-18656500D02*
X10465500Y-19056500D01*
X10265500Y-18856500D02*
X10665500Y-18856500D01*
X10606923Y-18997923D02*
X10606923Y-18715077D01*
X10324077Y-18715077D01*
X10324077Y-18997923D01*
X10606923Y-18997923D01*
X11080500Y-18792214D02*
X11080500Y-18992214D01*
X11009071Y-18677929D02*
X10937643Y-18892214D01*
X11123357Y-18892214D01*
X11237643Y-18963643D02*
X11251928Y-18977929D01*
X11237643Y-18992214D01*
X11223357Y-18977929D01*
X11237643Y-18963643D01*
X11237643Y-18992214D01*
X11437643Y-18692214D02*
X11466214Y-18692214D01*
X11494786Y-18706500D01*
X11509071Y-18720786D01*
X11523357Y-18749357D01*
X11537643Y-18806500D01*
X11537643Y-18877929D01*
X11523357Y-18935072D01*
X11509071Y-18963643D01*
X11494786Y-18977929D01*
X11466214Y-18992214D01*
X11437643Y-18992214D01*
X11409071Y-18977929D01*
X11394786Y-18963643D01*
X11380500Y-18935072D01*
X11366214Y-18877929D01*
X11366214Y-18806500D01*
X11380500Y-18749357D01*
X11394786Y-18720786D01*
X11409071Y-18706500D01*
X11437643Y-18692214D01*
X11723357Y-18692214D02*
X11751928Y-18692214D01*
X11780500Y-18706500D01*
X11794786Y-18720786D01*
X11809071Y-18749357D01*
X11823357Y-18806500D01*
X11823357Y-18877929D01*
X11809071Y-18935072D01*
X11794786Y-18963643D01*
X11780500Y-18977929D01*
X11751928Y-18992214D01*
X11723357Y-18992214D01*
X11694786Y-18977929D01*
X11680500Y-18963643D01*
X11666214Y-18935072D01*
X11651928Y-18877929D01*
X11651928Y-18806500D01*
X11666214Y-18749357D01*
X11680500Y-18720786D01*
X11694786Y-18706500D01*
X11723357Y-18692214D01*
X11951928Y-18992214D02*
X11951928Y-18792214D01*
X11951928Y-18820786D02*
X11966214Y-18806500D01*
X11994786Y-18792214D01*
X12037643Y-18792214D01*
X12066214Y-18806500D01*
X12080500Y-18835072D01*
X12080500Y-18992214D01*
X12080500Y-18835072D02*
X12094786Y-18806500D01*
X12123357Y-18792214D01*
X12166214Y-18792214D01*
X12194786Y-18806500D01*
X12209071Y-18835072D01*
X12209071Y-18992214D01*
X12351928Y-18992214D02*
X12351928Y-18792214D01*
X12351928Y-18820786D02*
X12366214Y-18806500D01*
X12394786Y-18792214D01*
X12437643Y-18792214D01*
X12466214Y-18806500D01*
X12480500Y-18835072D01*
X12480500Y-18992214D01*
X12480500Y-18835072D02*
X12494786Y-18806500D01*
X12523357Y-18792214D01*
X12566214Y-18792214D01*
X12594786Y-18806500D01*
X12609071Y-18835072D01*
X12609071Y-18992214D01*
X13194786Y-18677929D02*
X12937643Y-19063643D01*
X13580500Y-18692214D02*
X13609071Y-18692214D01*
X13637643Y-18706500D01*
X13651928Y-18720786D01*
X13666214Y-18749357D01*
X13680500Y-18806500D01*
X13680500Y-18877929D01*
X13666214Y-18935072D01*
X13651928Y-18963643D01*
X13637643Y-18977929D01*
X13609071Y-18992214D01*
X13580500Y-18992214D01*
X13551928Y-18977929D01*
X13537643Y-18963643D01*
X13523357Y-18935072D01*
X13509071Y-18877929D01*
X13509071Y-18806500D01*
X13523357Y-18749357D01*
X13537643Y-18720786D01*
X13551928Y-18706500D01*
X13580500Y-18692214D01*
X13809071Y-18963643D02*
X13823357Y-18977929D01*
X13809071Y-18992214D01*
X13794786Y-18977929D01*
X13809071Y-18963643D01*
X13809071Y-18992214D01*
X14109071Y-18992214D02*
X13937643Y-18992214D01*
X14023357Y-18992214D02*
X14023357Y-18692214D01*
X13994786Y-18735072D01*
X13966214Y-18763643D01*
X13937643Y-18777929D01*
X14380500Y-18692214D02*
X14237643Y-18692214D01*
X14223357Y-18835072D01*
X14237643Y-18820786D01*
X14266214Y-18806500D01*
X14337643Y-18806500D01*
X14366214Y-18820786D01*
X14380500Y-18835072D01*
X14394786Y-18863643D01*
X14394786Y-18935072D01*
X14380500Y-18963643D01*
X14366214Y-18977929D01*
X14337643Y-18992214D01*
X14266214Y-18992214D01*
X14237643Y-18977929D01*
X14223357Y-18963643D01*
X14494786Y-18692214D02*
X14694786Y-18692214D01*
X14566214Y-18992214D01*
X14794786Y-18692214D02*
X14794786Y-18749357D01*
X14909071Y-18692214D02*
X14909071Y-18749357D01*
X15351928Y-19106500D02*
X15337643Y-19092214D01*
X15309071Y-19049357D01*
X15294786Y-19020786D01*
X15280500Y-18977929D01*
X15266214Y-18906500D01*
X15266214Y-18849357D01*
X15280500Y-18777929D01*
X15294786Y-18735072D01*
X15309071Y-18706500D01*
X15337643Y-18663643D01*
X15351928Y-18649357D01*
X15451928Y-18720786D02*
X15466214Y-18706500D01*
X15494786Y-18692214D01*
X15566214Y-18692214D01*
X15594786Y-18706500D01*
X15609071Y-18720786D01*
X15623357Y-18749357D01*
X15623357Y-18777929D01*
X15609071Y-18820786D01*
X15437643Y-18992214D01*
X15623357Y-18992214D01*
X15980500Y-18992214D02*
X15980500Y-18692214D01*
X16109071Y-18992214D02*
X16109071Y-18835072D01*
X16094786Y-18806500D01*
X16066214Y-18792214D01*
X16023357Y-18792214D01*
X15994786Y-18806500D01*
X15980500Y-18820786D01*
X16294786Y-18992214D02*
X16266214Y-18977929D01*
X16251928Y-18963643D01*
X16237643Y-18935072D01*
X16237643Y-18849357D01*
X16251928Y-18820786D01*
X16266214Y-18806500D01*
X16294786Y-18792214D01*
X16337643Y-18792214D01*
X16366214Y-18806500D01*
X16380500Y-18820786D01*
X16394786Y-18849357D01*
X16394786Y-18935072D01*
X16380500Y-18963643D01*
X16366214Y-18977929D01*
X16337643Y-18992214D01*
X16294786Y-18992214D01*
X16566214Y-18992214D02*
X16537643Y-18977929D01*
X16523357Y-18949357D01*
X16523357Y-18692214D01*
X16794786Y-18977929D02*
X16766214Y-18992214D01*
X16709071Y-18992214D01*
X16680500Y-18977929D01*
X16666214Y-18949357D01*
X16666214Y-18835072D01*
X16680500Y-18806500D01*
X16709071Y-18792214D01*
X16766214Y-18792214D01*
X16794786Y-18806500D01*
X16809071Y-18835072D01*
X16809071Y-18863643D01*
X16666214Y-18892214D01*
X16923357Y-18977929D02*
X16951928Y-18992214D01*
X17009071Y-18992214D01*
X17037643Y-18977929D01*
X17051928Y-18949357D01*
X17051928Y-18935072D01*
X17037643Y-18906500D01*
X17009071Y-18892214D01*
X16966214Y-18892214D01*
X16937643Y-18877929D01*
X16923357Y-18849357D01*
X16923357Y-18835072D01*
X16937643Y-18806500D01*
X16966214Y-18792214D01*
X17009071Y-18792214D01*
X17037643Y-18806500D01*
X17151928Y-19106500D02*
X17166214Y-19092214D01*
X17194786Y-19049357D01*
X17209071Y-19020786D01*
X17223357Y-18977929D01*
X17237643Y-18906500D01*
X17237643Y-18849357D01*
X17223357Y-18777929D01*
X17209071Y-18735072D01*
X17194786Y-18706500D01*
X17166214Y-18663643D01*
X17151928Y-18649357D01*
M02*
