M48
; DRILL file {KiCad 5.1.9+dfsg1-1+deb11u1} date Mon Apr  3 20:15:34 2023
; FORMAT={-:-/ absolute / metric / decimal}
; #@! TF.CreationDate,2023-04-03T20:15:34-05:00
; #@! TF.GenerationSoftware,Kicad,Pcbnew,5.1.9+dfsg1-1+deb11u1
; #@! TF.FileFunction,Plated,1,2,PTH
FMAT,2
METRIC
T1C0.400
T2C0.600
T3C0.635
T4C0.700
T5C0.750
T6C0.800
T7C0.900
T8C0.940
T9C1.000
T10C1.200
T11C3.500
T12C3.700
T13C4.000
%
G90
G05
T1
X126.365Y-72.39
X133.985Y-85.09
X135.255Y-82.55
X135.89Y-86.995
X137.16Y-90.805
X139.065Y-86.995
X153.67Y-89.535
X153.67Y-91.53
X156.21Y-60.96
X158.75Y-53.34
X161.29Y-58.42
T2
X147.32Y-95.25
X147.32Y-100.33
X147.32Y-105.41
X147.32Y-110.49
T3
X164.465Y-101.6
T4
X113.07Y-95.25
X115.57Y-95.25
X119.38Y-87.63
X121.88Y-87.63
X121.96Y-72.39
X124.46Y-72.39
X130.85Y-90.17
X133.35Y-90.17
X133.35Y-106.68
X135.85Y-106.68
X139.7Y-106.68
X139.7Y-111.76
X142.2Y-106.68
X142.2Y-111.76
X142.24Y-88.9
X142.28Y-66.04
X144.74Y-88.9
X144.78Y-66.04
X148.59Y-66.04
X148.59Y-88.9
X151.09Y-66.04
X151.09Y-88.9
X154.94Y-63.5
X157.44Y-63.5
T5
X119.38Y-93.98
X120.65Y-93.98
X121.92Y-93.98
T6
X113.03Y-88.9
X114.34Y-107.63
X114.34Y-113.03
X115.53Y-88.9
X115.61Y-75.88
X115.61Y-81.28
X116.84Y-107.63
X116.84Y-113.03
X118.11Y-75.88
X118.11Y-81.28
X119.34Y-107.63
X119.34Y-113.03
X120.61Y-75.88
X120.61Y-81.28
X125.73Y-111.76
X127.0Y-96.52
X127.0Y-102.87
X128.27Y-69.85
X128.27Y-77.47
X129.5Y-96.52
X129.5Y-102.87
X130.81Y-69.85
X130.81Y-77.47
X133.35Y-69.85
X133.35Y-77.47
X133.35Y-93.98
X133.35Y-101.6
X135.89Y-69.85
X135.89Y-77.47
X135.89Y-93.98
X135.89Y-101.6
X135.89Y-111.76
X138.43Y-69.85
X138.43Y-77.47
X138.43Y-93.98
X138.43Y-101.6
X140.97Y-69.85
X140.97Y-77.47
X140.97Y-93.98
X140.97Y-101.6
X143.51Y-69.85
X143.51Y-77.47
X144.78Y-83.82
X146.05Y-69.85
X146.05Y-77.47
X148.59Y-69.85
X148.59Y-77.47
X149.66Y-83.82
X151.13Y-69.85
X151.13Y-77.47
X153.67Y-69.85
X153.67Y-77.47
X156.21Y-69.85
X156.21Y-77.47
X156.25Y-107.63
X156.25Y-113.03
X158.75Y-69.85
X158.75Y-77.47
X158.75Y-107.63
X158.75Y-113.03
X161.25Y-107.63
X161.25Y-113.03
X161.29Y-69.85
X161.29Y-77.47
X167.68Y-107.63
X167.68Y-113.03
X170.18Y-107.63
X170.18Y-113.03
X172.68Y-107.63
X172.68Y-113.03
T7
X166.37Y-69.85
X168.87Y-64.85
X171.37Y-69.85
T8
X114.3Y-59.69
X116.84Y-59.69
X119.38Y-59.69
X121.92Y-59.69
X124.46Y-59.69
X127.0Y-59.69
X129.54Y-59.69
X132.08Y-59.69
X134.62Y-59.69
X137.16Y-59.69
X139.7Y-59.69
X142.24Y-59.69
X144.78Y-59.69
X147.32Y-59.69
X149.86Y-59.69
X152.4Y-59.69
T9
X114.3Y-67.31
X114.3Y-69.85
X167.64Y-74.93
X167.64Y-77.47
X170.18Y-74.93
X170.18Y-77.47
X172.72Y-74.93
X172.72Y-77.47
T10
X125.73Y-82.55
X138.43Y-82.55
X161.29Y-82.55
X161.29Y-87.63
X161.29Y-92.71
X161.29Y-97.79
X161.29Y-102.87
X173.99Y-82.55
X173.99Y-87.63
X173.99Y-92.71
X173.99Y-97.79
X173.99Y-102.87
T11
X112.01Y-49.15
X176.01Y-49.15
T12
X111.76Y-39.37
X111.76Y-124.46
X175.26Y-39.37
X175.26Y-124.46
T13
X127.0Y-121.92
X146.05Y-121.92
T0
M30
